Nunito-Light.ufo
<glyph name="exclam" format="1">
  <advance width="793"/>
  <unicode hex="0021"/>
  <outline>
    <contour>
      <point x="392" y="181" type="qcurve"/>
      <point x="419" y="181"/>
      <point x="459" y="166"/>
      <point x="486" y="140"/>
      <point x="500" y="108"/>
      <point x="500" y="92" type="qcurve"/>
      <point x="500" y="74"/>
      <point x="486" y="41"/>
      <point x="459" y="16"/>
      <point x="419" y="0"/>
      <point x="392" y="0" type="qcurve"/>
      <point x="365" y="0"/>
      <point x="324" y="16"/>
      <point x="297" y="41"/>
      <point x="283" y="74"/>
      <point x="283" y="92" type="qcurve"/>
      <point x="283" y="108"/>
      <point x="297" y="140"/>
      <point x="324" y="166"/>
      <point x="365" y="181"/>
    </contour>
    <contour>
      <point x="293" y="1400" type="line"/>
      <point x="293" y="1439"/>
      <point x="349" y="1480"/>
      <point x="386" y="1480" type="qcurve"/>
      <point x="422" y="1480"/>
      <point x="477" y="1441"/>
      <point x="477" y="1400" type="qcurve"/>
      <point x="449" y="438" type="line"/>
      <point x="447" y="398"/>
      <point x="409" y="358"/>
      <point x="384" y="358" type="qcurve"/>
      <point x="361" y="358"/>
      <point x="321" y="398"/>
      <point x="320" y="438" type="qcurve"/>
    </contour>
  </outline>
</glyph>
<glyph name="quotedbl" format="1">
  <advance width="633"/>
  <unicode hex="0022"/>
  <outline>
    <contour>
      <point x="365" y="1408" type="line"/>
      <point x="365" y="1414" type="line" smooth="yes"/>
      <point x="365" y="1457"/>
      <point x="406" y="1480"/>
      <point x="447" y="1480" type="curve" smooth="yes"/>
      <point x="488" y="1480"/>
      <point x="528" y="1458"/>
      <point x="528" y="1414" type="curve"/>
      <point x="501" y="1059" type="line" smooth="yes"/>
      <point x="498" y="1016"/>
      <point x="471" y="994"/>
      <point x="446" y="994" type="curve" smooth="yes"/>
      <point x="419" y="994"/>
      <point x="395" y="1016"/>
      <point x="392" y="1059" type="curve" smooth="yes"/>
    </contour>
    <contour>
      <point x="98" y="1408" type="line"/>
      <point x="98" y="1414" type="line" smooth="yes"/>
      <point x="98" y="1457"/>
      <point x="139" y="1480"/>
      <point x="180" y="1480" type="curve" smooth="yes"/>
      <point x="221" y="1480"/>
      <point x="261" y="1458"/>
      <point x="261" y="1414" type="curve"/>
      <point x="234" y="1059" type="line" smooth="yes"/>
      <point x="231" y="1016"/>
      <point x="204" y="994"/>
      <point x="179" y="994" type="curve" smooth="yes"/>
      <point x="154" y="994"/>
      <point x="128" y="1016"/>
      <point x="125" y="1059" type="curve" smooth="yes"/>
    </contour>
  </outline>
</glyph>
<glyph name="numbersign" format="1">
  <advance width="1169"/>
  <unicode hex="0023"/>
  <outline>
    <contour>
      <point x="687" y="459" type="line"/>
      <point x="422" y="459" type="line"/>
      <point x="355" y="10" type="line"/>
      <point x="350" y="-21"/>
      <point x="309" y="-51"/>
      <point x="286" y="-51" type="qcurve"/>
      <point x="261" y="-51"/>
      <point x="220" y="-17"/>
      <point x="220" y="15" type="qcurve"/>
      <point x="220" y="21" type="line"/>
      <point x="220" y="25"/>
      <point x="221" y="29" type="qcurve"/>
      <point x="284" y="459" type="line"/>
      <point x="137" y="459" type="line"/>
      <point x="105" y="459"/>
      <point x="72" y="500"/>
      <point x="72" y="524" type="qcurve"/>
      <point x="72" y="549"/>
      <point x="104" y="589"/>
      <point x="137" y="589" type="qcurve"/>
      <point x="302" y="589" type="line"/>
      <point x="342" y="863" type="line"/>
      <point x="193" y="863" type="line"/>
      <point x="161" y="863"/>
      <point x="128" y="904"/>
      <point x="128" y="929" type="qcurve"/>
      <point x="128" y="954"/>
      <point x="160" y="994"/>
      <point x="193" y="994" type="qcurve"/>
      <point x="361" y="994" type="line"/>
      <point x="420" y="1399" type="line"/>
      <point x="425" y="1430"/>
      <point x="468" y="1460"/>
      <point x="492" y="1460" type="qcurve"/>
      <point x="518" y="1460"/>
      <point x="559" y="1427"/>
      <point x="559" y="1395" type="qcurve"/>
      <point x="559" y="1388" type="line"/>
      <point x="559" y="1385"/>
      <point x="558" y="1381" type="qcurve"/>
      <point x="500" y="994" type="line"/>
      <point x="765" y="994" type="line"/>
      <point x="824" y="1399" type="line"/>
      <point x="829" y="1430"/>
      <point x="872" y="1460"/>
      <point x="896" y="1460" type="qcurve"/>
      <point x="922" y="1460"/>
      <point x="963" y="1427"/>
      <point x="963" y="1395" type="qcurve"/>
      <point x="963" y="1388" type="line"/>
      <point x="963" y="1385"/>
      <point x="962" y="1381" type="qcurve"/>
      <point x="904" y="994" type="line"/>
      <point x="1031" y="994" type="line"/>
      <point x="1063" y="994"/>
      <point x="1096" y="953"/>
      <point x="1096" y="928" type="qcurve"/>
      <point x="1096" y="903"/>
      <point x="1064" y="863"/>
      <point x="1031" y="863" type="qcurve"/>
      <point x="885" y="863" type="line"/>
      <point x="845" y="589" type="line"/>
      <point x="974" y="589" type="line"/>
      <point x="1006" y="589"/>
      <point x="1040" y="548"/>
      <point x="1040" y="523" type="qcurve"/>
      <point x="1040" y="499"/>
      <point x="1007" y="459"/>
      <point x="974" y="459" type="qcurve"/>
      <point x="825" y="459" type="line"/>
      <point x="759" y="10" type="line"/>
      <point x="754" y="-21"/>
      <point x="713" y="-51"/>
      <point x="690" y="-51" type="qcurve"/>
      <point x="665" y="-51"/>
      <point x="624" y="-17"/>
      <point x="624" y="15" type="qcurve"/>
      <point x="624" y="21" type="line"/>
      <point x="624" y="25"/>
      <point x="625" y="29" type="qcurve"/>
    </contour>
    <contour>
      <point x="441" y="589" type="line"/>
      <point x="706" y="589" type="line"/>
      <point x="746" y="863" type="line"/>
      <point x="481" y="863" type="line"/>
    </contour>
  </outline>
</glyph>
<glyph name="dollar" format="1">
  <advance width="1274"/>
  <unicode hex="0024"/>
  <outline>
    <contour>
      <point x="530" y="-41" type="line"/>
      <point x="480" y="-40"/>
      <point x="381" y="-25"/>
      <point x="290" y="-5"/>
      <point x="210" y="18"/>
      <point x="179" y="29" type="qcurve"/>
      <point x="148" y="40"/>
      <point x="121" y="80"/>
      <point x="121" y="101" type="qcurve"/>
      <point x="121" y="127"/>
      <point x="154" y="166"/>
      <point x="183" y="166" type="qcurve"/>
      <point x="196" y="166"/>
      <point x="208" y="162" type="qcurve"/>
      <point x="248" y="150"/>
      <point x="322" y="127"/>
      <point x="406" y="109"/>
      <point x="510" y="99"/>
      <point x="580" y="99" type="qcurve"/>
      <point x="645" y="99"/>
      <point x="769" y="130"/>
      <point x="865" y="191"/>
      <point x="924" y="282"/>
      <point x="924" y="342" type="qcurve"/>
      <point x="924" y="385"/>
      <point x="895" y="453"/>
      <point x="844" y="506"/>
      <point x="773" y="548"/>
      <point x="732" y="565" type="qcurve"/>
      <point x="663" y="593"/>
      <point x="514" y="638"/>
      <point x="372" y="685"/>
      <point x="244" y="744"/>
      <point x="148" y="830"/>
      <point x="91" y="951"/>
      <point x="91" y="1037" type="qcurve"/>
      <point x="91" y="1120"/>
      <point x="162" y="1253"/>
      <point x="282" y="1348"/>
      <point x="441" y="1404"/>
      <point x="530" y="1411" type="qcurve"/>
      <point x="530" y="1535" type="line"/>
      <point x="530" y="1562"/>
      <point x="564" y="1590"/>
      <point x="585" y="1590" type="qcurve"/>
      <point x="605" y="1590"/>
      <point x="639" y="1563"/>
      <point x="639" y="1535" type="qcurve"/>
      <point x="639" y="1411" type="line"/>
      <point x="721" y="1407"/>
      <point x="895" y="1379"/>
      <point x="968" y="1351" type="qcurve"/>
      <point x="997" y="1342"/>
      <point x="1024" y="1302"/>
      <point x="1024" y="1280" type="qcurve"/>
      <point x="1024" y="1255"/>
      <point x="990" y="1216"/>
      <point x="961" y="1216" type="qcurve"/>
      <point x="948" y="1216"/>
      <point x="936" y="1220" type="qcurve"/>
      <point x="897" y="1229"/>
      <point x="810" y="1247"/>
      <point x="722" y="1261"/>
      <point x="636" y="1269"/>
      <point x="598" y="1269" type="qcurve"/>
      <point x="543" y="1269"/>
      <point x="428" y="1244"/>
      <point x="333" y="1193"/>
      <point x="273" y="1112"/>
      <point x="273" y="1057" type="qcurve"/>
      <point x="273" y="985"/>
      <point x="345" y="889"/>
      <point x="462" y="822"/>
      <point x="613" y="773"/>
      <point x="769" y="724"/>
      <point x="920" y="665"/>
      <point x="1037" y="577"/>
      <point x="1109" y="451"/>
      <point x="1109" y="359" type="qcurve"/>
      <point x="1109" y="270"/>
      <point x="1033" y="129"/>
      <point x="904" y="28"/>
      <point x="733" y="-32"/>
      <point x="639" y="-40" type="qcurve"/>
      <point x="639" y="-176" type="line"/>
      <point x="639" y="-203"/>
      <point x="603" y="-231"/>
      <point x="582" y="-231" type="qcurve"/>
      <point x="562" y="-231"/>
      <point x="530" y="-205"/>
      <point x="530" y="-176" type="qcurve"/>
    </contour>
  </outline>
</glyph>
<glyph name="percent" format="1">
  <advance width="2060"/>
  <unicode hex="0025"/>
  <outline>
    <contour>
      <point x="557" y="1299" type="qcurve"/>
      <point x="502" y="1299"/>
      <point x="426" y="1250"/>
      <point x="379" y="1171"/>
      <point x="358" y="1071"/>
      <point x="358" y="1020" type="qcurve"/>
      <point x="358" y="969"/>
      <point x="379" y="868"/>
      <point x="426" y="789"/>
      <point x="502" y="740"/>
      <point x="557" y="740" type="qcurve"/>
      <point x="613" y="740"/>
      <point x="689" y="789"/>
      <point x="736" y="868"/>
      <point x="757" y="969"/>
      <point x="757" y="1020" type="qcurve"/>
      <point x="757" y="1071"/>
      <point x="736" y="1171"/>
      <point x="689" y="1250"/>
      <point x="613" y="1299"/>
    </contour>
    <contour>
      <point x="1339" y="1399" type="line"/>
      <point x="1351" y="1419"/>
      <point x="1381" y="1437"/>
      <point x="1395" y="1437" type="qcurve"/>
      <point x="1417" y="1437"/>
      <point x="1449" y="1404"/>
      <point x="1449" y="1380" type="qcurve"/>
      <point x="1449" y="1363"/>
      <point x="1440" y="1347" type="qcurve"/>
      <point x="649" y="-42" type="line"/>
      <point x="640" y="-58"/>
      <point x="615" y="-71"/>
      <point x="601" y="-71" type="qcurve"/>
      <point x="578" y="-71"/>
      <point x="541" y="-40"/>
      <point x="541" y="-17" type="qcurve"/>
      <point x="541" y="-5"/>
      <point x="549" y="9" type="qcurve"/>
    </contour>
    <contour>
      <point x="557" y="1403" type="qcurve"/>
      <point x="642" y="1403"/>
      <point x="768" y="1338"/>
      <point x="852" y="1230"/>
      <point x="893" y="1092"/>
      <point x="893" y="1020" type="qcurve"/>
      <point x="893" y="942"/>
      <point x="847" y="803"/>
      <point x="761" y="698"/>
      <point x="636" y="637"/>
      <point x="557" y="637" type="qcurve"/>
      <point x="477" y="637"/>
      <point x="353" y="697"/>
      <point x="268" y="801"/>
      <point x="223" y="941"/>
      <point x="223" y="1020" type="qcurve"/>
      <point x="223" y="1098"/>
      <point x="268" y="1237"/>
      <point x="354" y="1342"/>
      <point x="478" y="1403"/>
    </contour>
    <contour>
      <point x="1502" y="735" type="qcurve"/>
      <point x="1587" y="735"/>
      <point x="1713" y="670"/>
      <point x="1796" y="563"/>
      <point x="1837" y="425"/>
      <point x="1837" y="353" type="qcurve"/>
      <point x="1837" y="275"/>
      <point x="1792" y="136"/>
      <point x="1706" y="31"/>
      <point x="1581" y="-31"/>
      <point x="1502" y="-31" type="qcurve"/>
      <point x="1422" y="-31"/>
      <point x="1297" y="30"/>
      <point x="1212" y="135"/>
      <point x="1167" y="274"/>
      <point x="1167" y="353" type="qcurve"/>
      <point x="1167" y="431"/>
      <point x="1213" y="569"/>
      <point x="1299" y="674"/>
      <point x="1423" y="735"/>
    </contour>
    <contour>
      <point x="1502" y="632" type="qcurve"/>
      <point x="1446" y="632"/>
      <point x="1370" y="583"/>
      <point x="1323" y="504"/>
      <point x="1303" y="404"/>
      <point x="1303" y="353" type="qcurve"/>
      <point x="1303" y="302"/>
      <point x="1323" y="201"/>
      <point x="1370" y="122"/>
      <point x="1446" y="73"/>
      <point x="1502" y="73" type="qcurve"/>
      <point x="1557" y="73"/>
      <point x="1634" y="122"/>
      <point x="1680" y="201"/>
      <point x="1701" y="302"/>
      <point x="1701" y="353" type="qcurve"/>
      <point x="1701" y="404"/>
      <point x="1680" y="504"/>
      <point x="1634" y="583"/>
      <point x="1557" y="632"/>
    </contour>
  </outline>
</glyph>
<glyph name="ampersand" format="1">
  <advance width="1513"/>
  <unicode hex="0026"/>
  <outline>
    <contour>
      <point x="1215" y="881" type="qcurve"/>
      <point x="1218" y="916"/>
      <point x="1262" y="948"/>
      <point x="1288" y="948" type="qcurve"/>
      <point x="1303" y="948"/>
      <point x="1331" y="938"/>
      <point x="1354" y="919"/>
      <point x="1368" y="892"/>
      <point x="1368" y="874" type="qcurve"/>
      <point x="1368" y="867" type="line"/>
      <point x="1368" y="864"/>
      <point x="1367" y="861" type="qcurve"/>
      <point x="1362" y="809"/>
      <point x="1347" y="672"/>
      <point x="1315" y="524"/>
      <point x="1263" y="373"/>
      <point x="1223" y="306" type="qcurve"/>
      <point x="1382" y="134" type="line"/>
      <point x="1393" y="121"/>
      <point x="1403" y="94"/>
      <point x="1403" y="80" type="qcurve"/>
      <point x="1403" y="63"/>
      <point x="1389" y="32"/>
      <point x="1366" y="8"/>
      <point x="1335" y="-6"/>
      <point x="1319" y="-6" type="qcurve"/>
      <point x="1304" y="-6"/>
      <point x="1274" y="7"/>
      <point x="1260" y="22" type="qcurve"/>
      <point x="1111" y="186" type="line"/>
      <point x="1020" y="83"/>
      <point x="800" y="-29"/>
      <point x="656" y="-29" type="qcurve"/>
      <point x="543" y="-29"/>
      <point x="342" y="30"/>
      <point x="192" y="141"/>
      <point x="104" y="303"/>
      <point x="104" y="406" type="qcurve"/>
      <point x="104" y="491"/>
      <point x="170" y="623"/>
      <point x="275" y="729"/>
      <point x="407" y="820"/>
      <point x="473" y="865" type="qcurve"/>
      <point x="437" y="904"/>
      <point x="366" y="988"/>
      <point x="309" y="1079"/>
      <point x="274" y="1178"/>
      <point x="274" y="1232" type="qcurve"/>
      <point x="274" y="1302"/>
      <point x="334" y="1407"/>
      <point x="433" y="1475"/>
      <point x="558" y="1509"/>
      <point x="624" y="1509" type="qcurve"/>
      <point x="689" y="1509"/>
      <point x="816" y="1477"/>
      <point x="917" y="1411"/>
      <point x="979" y="1309"/>
      <point x="979" y="1239" type="qcurve"/>
      <point x="979" y="1175"/>
      <point x="933" y="1065"/>
      <point x="856" y="970"/>
      <point x="758" y="887"/>
      <point x="707" y="849" type="qcurve"/>
      <point x="1115" y="415" type="line"/>
      <point x="1138" y="464"/>
      <point x="1174" y="581"/>
      <point x="1199" y="703"/>
      <point x="1214" y="825"/>
    </contour>
    <contour>
      <point x="576" y="758" type="line"/>
      <point x="539" y="735"/>
      <point x="438" y="662"/>
      <point x="346" y="573"/>
      <point x="282" y="476"/>
      <point x="282" y="431" type="qcurve"/>
      <point x="282" y="355"/>
      <point x="343" y="236"/>
      <point x="444" y="153"/>
      <point x="576" y="110"/>
      <point x="647" y="110" type="qcurve"/>
      <point x="705" y="110"/>
      <point x="806" y="135"/>
      <point x="895" y="180"/>
      <point x="977" y="245"/>
      <point x="1017" y="286" type="qcurve"/>
    </contour>
    <contour>
      <point x="449" y="1230" type="qcurve"/>
      <point x="449" y="1193"/>
      <point x="478" y="1116"/>
      <point x="524" y="1042"/>
      <point x="580" y="975"/>
      <point x="606" y="948" type="qcurve"/>
      <point x="638" y="978"/>
      <point x="708" y="1040"/>
      <point x="767" y="1108"/>
      <point x="806" y="1185"/>
      <point x="806" y="1230" type="qcurve"/>
      <point x="806" y="1266"/>
      <point x="776" y="1320"/>
      <point x="726" y="1356"/>
      <point x="663" y="1373"/>
      <point x="630" y="1373" type="qcurve"/>
      <point x="595" y="1373"/>
      <point x="530" y="1357"/>
      <point x="479" y="1323"/>
      <point x="449" y="1269"/>
    </contour>
  </outline>
</glyph>
<glyph name="quotesingle" format="1">
  <advance width="584"/>
  <unicode hex="0027"/>
  <outline>
    <contour>
      <point x="210" y="1408" type="line"/>
      <point x="210" y="1414" type="line"/>
      <point x="210" y="1446"/>
      <point x="261" y="1480"/>
      <point x="293" y="1480" type="qcurve"/>
      <point x="324" y="1480"/>
      <point x="374" y="1447"/>
      <point x="374" y="1414" type="qcurve"/>
      <point x="374" y="1408" type="line"/>
      <point x="346" y="1059" type="line"/>
      <point x="343" y="1027"/>
      <point x="311" y="994"/>
      <point x="291" y="994" type="qcurve"/>
      <point x="272" y="994"/>
      <point x="240" y="1027"/>
      <point x="238" y="1059" type="qcurve"/>
    </contour>
  </outline>
</glyph>
<glyph name="parenleft" format="1">
  <advance width="592"/>
  <unicode hex="0028"/>
  <outline>
    <contour>
      <point x="362" y="-174" type="qcurve"/>
      <point x="321" y="-77"/>
      <point x="246" y="122"/>
      <point x="189" y="324"/>
      <point x="155" y="529"/>
      <point x="155" y="633" type="qcurve"/>
      <point x="155" y="737"/>
      <point x="189" y="944"/>
      <point x="246" y="1148"/>
      <point x="321" y="1349"/>
      <point x="362" y="1447" type="qcurve"/>
      <point x="372" y="1471"/>
      <point x="406" y="1493"/>
      <point x="424" y="1493" type="qcurve"/>
      <point x="448" y="1493"/>
      <point x="487" y="1459"/>
      <point x="487" y="1432" type="qcurve"/>
      <point x="487" y="1426"/>
      <point x="485" y="1413"/>
      <point x="482" y="1406" type="qcurve"/>
      <point x="410" y="1211"/>
      <point x="328" y="821"/>
      <point x="328" y="634" type="qcurve"/>
      <point x="328" y="448"/>
      <point x="409" y="61"/>
      <point x="481" y="-134" type="qcurve"/>
      <point x="486" y="-145"/>
      <point x="486" y="-161" type="qcurve"/>
      <point x="486" y="-187"/>
      <point x="448" y="-220"/>
      <point x="424" y="-220" type="qcurve"/>
      <point x="406" y="-220"/>
      <point x="373" y="-199"/>
    </contour>
  </outline>
</glyph>
<glyph name="parenright" format="1">
  <advance width="592"/>
  <unicode hex="0029"/>
  <outline>
    <contour>
      <point x="232" y="-174" type="curve"/>
      <point x="217" y="-207"/>
      <point x="193" y="-220"/>
      <point x="169" y="-220" type="curve" smooth="yes"/>
      <point x="137" y="-220"/>
      <point x="107" y="-196"/>
      <point x="107" y="-161" type="curve" smooth="yes"/>
      <point x="107" y="-153"/>
      <point x="109" y="-144"/>
      <point x="113" y="-134" type="curve" smooth="yes"/>
      <point x="209" y="126"/>
      <point x="266" y="386"/>
      <point x="266" y="634" type="curve" smooth="yes"/>
      <point x="266" y="883"/>
      <point x="208" y="1145"/>
      <point x="112" y="1406" type="curve" smooth="yes"/>
      <point x="108" y="1415"/>
      <point x="106" y="1423"/>
      <point x="106" y="1432" type="curve" smooth="yes"/>
      <point x="106" y="1467"/>
      <point x="138" y="1492"/>
      <point x="170" y="1492" type="curve" smooth="yes"/>
      <point x="194" y="1492"/>
      <point x="217" y="1479"/>
      <point x="232" y="1447" type="curve"/>
      <point x="341" y="1185"/>
      <point x="439" y="911"/>
      <point x="439" y="633" type="curve" smooth="yes"/>
      <point x="439" y="356"/>
      <point x="342" y="85"/>
    </contour>
  </outline>
</glyph>
<glyph name="asterisk" format="1">
  <advance width="1105"/>
  <unicode hex="002A"/>
  <outline>
    <contour>
      <point x="654" y="1139" type="line"/>
      <point x="898" y="1148" type="line"/>
      <point x="925" y="1148"/>
      <point x="962" y="1113"/>
      <point x="962" y="1086" type="qcurve"/>
      <point x="962" y="1061"/>
      <point x="925" y="1025"/>
      <point x="898" y="1025" type="qcurve"/>
      <point x="652" y="1034" type="line"/>
      <point x="778" y="830" type="line"/>
      <point x="787" y="813"/>
      <point x="787" y="797" type="qcurve"/>
      <point x="787" y="775"/>
      <point x="753" y="737"/>
      <point x="724" y="737" type="qcurve"/>
      <point x="707" y="737"/>
      <point x="677" y="753"/>
      <point x="669" y="768" type="qcurve"/>
      <point x="551" y="979" type="line"/>
      <point x="434" y="768" type="line"/>
      <point x="426" y="753"/>
      <point x="395" y="738"/>
      <point x="378" y="737" type="qcurve"/>
      <point x="363" y="737"/>
      <point x="340" y="748"/>
      <point x="324" y="766"/>
      <point x="315" y="787"/>
      <point x="315" y="797" type="qcurve"/>
      <point x="315" y="813"/>
      <point x="324" y="830" type="qcurve"/>
      <point x="451" y="1034" type="line"/>
      <point x="207" y="1025" type="line"/>
      <point x="181" y="1025"/>
      <point x="143" y="1061"/>
      <point x="143" y="1086" type="qcurve"/>
      <point x="143" y="1113"/>
      <point x="180" y="1148"/>
      <point x="207" y="1148" type="qcurve"/>
      <point x="448" y="1139" type="line"/>
      <point x="322" y="1343" type="line"/>
      <point x="313" y="1358"/>
      <point x="313" y="1375" type="qcurve"/>
      <point x="313" y="1398"/>
      <point x="348" y="1437"/>
      <point x="376" y="1437" type="qcurve"/>
      <point x="393" y="1437"/>
      <point x="423" y="1421"/>
      <point x="432" y="1405" type="qcurve"/>
      <point x="551" y="1189" type="line"/>
      <point x="670" y="1405" type="line"/>
      <point x="691" y="1437"/>
      <point x="726" y="1437" type="qcurve"/>
      <point x="754" y="1437"/>
      <point x="789" y="1398"/>
      <point x="789" y="1374" type="qcurve"/>
      <point x="789" y="1356"/>
      <point x="781" y="1343" type="qcurve"/>
    </contour>
  </outline>
</glyph>
<glyph name="plus" format="1">
  <advance width="1340"/>
  <unicode hex="002B"/>
  <outline>
    <contour>
      <point x="739" y="563" type="line"/>
      <point x="1113" y="563" type="line"/>
      <point x="1142" y="563"/>
      <point x="1183" y="525"/>
      <point x="1183" y="496" type="qcurve"/>
      <point x="1183" y="469"/>
      <point x="1142" y="429"/>
      <point x="1113" y="429" type="qcurve"/>
      <point x="739" y="429" type="line"/>
      <point x="739" y="71" type="line"/>
      <point x="739" y="43"/>
      <point x="698" y="4"/>
      <point x="670" y="4" type="qcurve"/>
      <point x="640" y="4"/>
      <point x="600" y="42"/>
      <point x="600" y="71" type="qcurve"/>
      <point x="600" y="429" type="line"/>
      <point x="227" y="429" type="line"/>
      <point x="198" y="429"/>
      <point x="157" y="469"/>
      <point x="157" y="496" type="qcurve"/>
      <point x="157" y="525"/>
      <point x="198" y="563"/>
      <point x="227" y="563" type="qcurve"/>
      <point x="600" y="563" type="line"/>
      <point x="600" y="924" type="line"/>
      <point x="600" y="953"/>
      <point x="640" y="992"/>
      <point x="670" y="992" type="qcurve"/>
      <point x="698" y="992"/>
      <point x="739" y="953"/>
      <point x="739" y="924" type="qcurve"/>
    </contour>
  </outline>
</glyph>
<glyph name="comma" format="1">
  <advance width="584"/>
  <unicode hex="002C"/>
  <outline>
    <contour>
      <point x="111" y="-240" type="line"/>
      <point x="249" y="-240" type="line"/>
      <point x="401" y="185" type="line"/>
      <point x="204" y="185" type="line"/>
    </contour>
  </outline>
</glyph>
<glyph name="hyphen" format="1">
  <advance width="596"/>
  <unicode hex="002D"/>
  <outline>
    <contour>
      <point x="104" y="457" type="line"/>
      <point x="73" y="457"/>
      <point x="30" y="497"/>
      <point x="30" y="526" type="qcurve"/>
      <point x="30" y="557"/>
      <point x="72" y="598"/>
      <point x="104" y="598" type="qcurve"/>
      <point x="493" y="598" type="line"/>
      <point x="524" y="598"/>
      <point x="566" y="557"/>
      <point x="566" y="526" type="qcurve"/>
      <point x="566" y="497"/>
      <point x="524" y="457"/>
      <point x="493" y="457" type="qcurve"/>
    </contour>
  </outline>
</glyph>
<glyph name="period" format="1">
  <advance width="584"/>
  <unicode hex="002E"/>
  <outline>
    <contour>
      <point x="184" y="97" type="qcurve"/>
      <point x="184" y="115"/>
      <point x="198" y="150"/>
      <point x="226" y="177"/>
      <point x="266" y="194"/>
      <point x="292" y="194" type="qcurve"/>
      <point x="317" y="194"/>
      <point x="357" y="177"/>
      <point x="385" y="150"/>
      <point x="399" y="115"/>
      <point x="399" y="97" type="qcurve"/>
      <point x="399" y="78"/>
      <point x="385" y="43"/>
      <point x="357" y="16"/>
      <point x="317" y="-1"/>
      <point x="292" y="-1" type="qcurve"/>
      <point x="266" y="-1"/>
      <point x="226" y="16"/>
      <point x="198" y="43"/>
      <point x="184" y="78"/>
    </contour>
  </outline>
</glyph>
<glyph name="slash" format="1">
  <advance width="588"/>
  <unicode hex="002F"/>
  <outline>
    <contour>
      <point x="116" y="-125" type="line"/>
      <point x="107" y="-151"/>
      <point x="70" y="-175"/>
      <point x="49" y="-175" type="qcurve"/>
      <point x="23" y="-175"/>
      <point x="-20" y="-141"/>
      <point x="-20" y="-110" type="qcurve"/>
      <point x="-20" y="-100"/>
      <point x="-15" y="-83" type="qcurve"/>
      <point x="468" y="1380" type="line"/>
      <point x="476" y="1406"/>
      <point x="515" y="1430"/>
      <point x="537" y="1430" type="qcurve"/>
      <point x="564" y="1430"/>
      <point x="608" y="1396"/>
      <point x="608" y="1365" type="qcurve"/>
      <point x="608" y="1354"/>
      <point x="603" y="1337" type="qcurve"/>
    </contour>
  </outline>
</glyph>
<glyph name="zero" format="1">
  <advance width="1169"/>
  <unicode hex="0030"/>
  <outline>
    <contour>
      <point x="584" y="1296" type="qcurve"/>
      <point x="514" y="1296"/>
      <point x="415" y="1242"/>
      <point x="347" y="1151"/>
      <point x="306" y="1032"/>
      <point x="285" y="905"/>
      <point x="278" y="777"/>
      <point x="278" y="705" type="qcurve"/>
      <point x="278" y="641"/>
      <point x="285" y="512"/>
      <point x="306" y="384"/>
      <point x="347" y="266"/>
      <point x="415" y="175"/>
      <point x="515" y="120"/>
      <point x="584" y="120" type="qcurve"/>
      <point x="654" y="120"/>
      <point x="754" y="175"/>
      <point x="822" y="266"/>
      <point x="863" y="384"/>
      <point x="885" y="512"/>
      <point x="892" y="641"/>
      <point x="892" y="705" type="qcurve"/>
      <point x="892" y="777"/>
      <point x="885" y="905"/>
      <point x="863" y="1032"/>
      <point x="822" y="1151"/>
      <point x="754" y="1242"/>
      <point x="654" y="1296"/>
    </contour>
    <contour>
      <point x="584" y="1438" type="qcurve"/>
      <point x="683" y="1438"/>
      <point x="832" y="1382"/>
      <point x="941" y="1282"/>
      <point x="1014" y="1146"/>
      <point x="1057" y="987"/>
      <point x="1075" y="811"/>
      <point x="1075" y="705" type="qcurve"/>
      <point x="1075" y="606"/>
      <point x="1057" y="430"/>
      <point x="1014" y="271"/>
      <point x="941" y="134"/>
      <point x="832" y="35"/>
      <point x="683" y="-22"/>
      <point x="584" y="-22" type="qcurve"/>
      <point x="485" y="-22"/>
      <point x="336" y="35"/>
      <point x="227" y="134"/>
      <point x="154" y="271"/>
      <point x="111" y="430"/>
      <point x="93" y="606"/>
      <point x="93" y="705" type="qcurve"/>
      <point x="93" y="811"/>
      <point x="111" y="987"/>
      <point x="154" y="1146"/>
      <point x="227" y="1282"/>
      <point x="336" y="1382"/>
      <point x="486" y="1438"/>
    </contour>
  </outline>
</glyph>
<glyph name="one" format="1">
  <advance width="1169"/>
  <unicode hex="0031"/>
  <outline>
    <contour>
      <point x="329" y="1092" type="line"/>
      <point x="312" y="1081"/>
      <point x="294" y="1081" type="qcurve"/>
      <point x="266" y="1081"/>
      <point x="227" y="1122"/>
      <point x="227" y="1148" type="qcurve"/>
      <point x="227" y="1162"/>
      <point x="241" y="1188"/>
      <point x="257" y="1199" type="qcurve"/>
      <point x="593" y="1412" type="line"/>
      <point x="604" y="1419"/>
      <point x="630" y="1425"/>
      <point x="643" y="1426" type="qcurve"/>
      <point x="675" y="1426"/>
      <point x="727" y="1384"/>
      <point x="727" y="1340" type="qcurve"/>
      <point x="727" y="83" type="line"/>
      <point x="727" y="62"/>
      <point x="712" y="31"/>
      <point x="687" y="10"/>
      <point x="655" y="0"/>
      <point x="638" y="0" type="qcurve"/>
      <point x="622" y="0"/>
      <point x="591" y="10"/>
      <point x="566" y="31"/>
      <point x="551" y="62"/>
      <point x="551" y="83" type="qcurve"/>
      <point x="551" y="1236" type="line"/>
    </contour>
  </outline>
</glyph>
<glyph name="two" format="1">
  <advance width="1169"/>
  <unicode hex="0032"/>
  <outline>
    <contour>
      <point x="588" y="1292" type="qcurve"/>
      <point x="551" y="1292"/>
      <point x="478" y="1277"/>
      <point x="410" y="1253"/>
      <point x="348" y="1224"/>
      <point x="323" y="1209" type="qcurve"/>
      <point x="295" y="1193"/>
      <point x="269" y="1193" type="qcurve"/>
      <point x="240" y="1193"/>
      <point x="202" y="1228"/>
      <point x="202" y="1254" type="qcurve"/>
      <point x="202" y="1275"/>
      <point x="239" y="1319"/>
      <point x="301" y="1360"/>
      <point x="382" y="1396"/>
      <point x="471" y="1423"/>
      <point x="562" y="1438"/>
      <point x="602" y="1438" type="qcurve"/>
      <point x="687" y="1438"/>
      <point x="840" y="1395"/>
      <point x="956" y="1310"/>
      <point x="1025" y="1184"/>
      <point x="1025" y="1101" type="qcurve"/>
      <point x="1025" y="1024"/>
      <point x="957" y="858"/>
      <point x="844" y="690"/>
      <point x="699" y="521"/>
      <point x="544" y="367"/>
      <point x="376" y="200"/>
      <point x="313" y="145" type="qcurve"/>
      <point x="953" y="145" type="line"/>
      <point x="988" y="145"/>
      <point x="1023" y="99"/>
      <point x="1023" y="71" type="qcurve"/>
      <point x="1023" y="44"/>
      <point x="988" y="0"/>
      <point x="953" y="0" type="qcurve"/>
      <point x="227" y="0" type="line"/>
      <point x="164" y="0"/>
      <point x="106" y="52"/>
      <point x="106" y="90" type="qcurve"/>
      <point x="106" y="120"/>
      <point x="140" y="186"/>
      <point x="173" y="216" type="qcurve"/>
      <point x="223" y="261"/>
      <point x="373" y="419"/>
      <point x="519" y="566"/>
      <point x="661" y="728"/>
      <point x="774" y="884"/>
      <point x="843" y="1029"/>
      <point x="843" y="1087" type="qcurve"/>
      <point x="843" y="1138"/>
      <point x="800" y="1214"/>
      <point x="729" y="1266"/>
      <point x="637" y="1292"/>
    </contour>
  </outline>
</glyph>
<glyph name="three" format="1">
  <advance width="1169"/>
  <unicode hex="0033"/>
  <outline>
    <contour>
      <point x="527" y="796" type="line"/>
      <point x="588" y="797"/>
      <point x="702" y="827"/>
      <point x="791" y="889"/>
      <point x="844" y="981"/>
      <point x="844" y="1047" type="qcurve"/>
      <point x="844" y="1105"/>
      <point x="798" y="1195"/>
      <point x="721" y="1257"/>
      <point x="619" y="1288"/>
      <point x="563" y="1288" type="qcurve"/>
      <point x="510" y="1288"/>
      <point x="406" y="1267"/>
      <point x="319" y="1242"/>
      <point x="255" y="1221"/>
      <point x="243" y="1221" type="qcurve"/>
      <point x="210" y="1221"/>
      <point x="170" y="1268"/>
      <point x="170" y="1297" type="qcurve"/>
      <point x="170" y="1317"/>
      <point x="193" y="1352"/>
      <point x="217" y="1363" type="qcurve"/>
      <point x="292" y="1397"/>
      <point x="458" y="1438"/>
      <point x="554" y="1438" type="qcurve"/>
      <point x="649" y="1438"/>
      <point x="820" y="1391"/>
      <point x="950" y="1295"/>
      <point x="1026" y="1149"/>
      <point x="1026" y="1049" type="qcurve"/>
      <point x="1026" y="985"/>
      <point x="983" y="882"/>
      <point x="908" y="801"/>
      <point x="808" y="747"/>
      <point x="752" y="735" type="qcurve"/>
      <point x="752" y="731" type="line"/>
      <point x="818" y="717"/>
      <point x="928" y="654"/>
      <point x="1007" y="561"/>
      <point x="1050" y="441"/>
      <point x="1050" y="370" type="qcurve"/>
      <point x="1050" y="266"/>
      <point x="970" y="117"/>
      <point x="838" y="22"/>
      <point x="667" y="-22"/>
      <point x="575" y="-22" type="qcurve"/>
      <point x="542" y="-22"/>
      <point x="460" y="-13"/>
      <point x="373" y="5"/>
      <point x="290" y="31"/>
      <point x="226" y="64"/>
      <point x="186" y="104"/>
      <point x="186" y="127" type="qcurve"/>
      <point x="186" y="154"/>
      <point x="226" y="198"/>
      <point x="258" y="198" type="qcurve"/>
      <point x="271" y="198"/>
      <point x="283" y="194" type="qcurve"/>
      <point x="307" y="183"/>
      <point x="372" y="159"/>
      <point x="448" y="140"/>
      <point x="532" y="127"/>
      <point x="576" y="127" type="qcurve"/>
      <point x="642" y="127"/>
      <point x="750" y="158"/>
      <point x="825" y="220"/>
      <point x="866" y="309"/>
      <point x="866" y="368" type="qcurve"/>
      <point x="866" y="438"/>
      <point x="813" y="545"/>
      <point x="724" y="619"/>
      <point x="606" y="657"/>
      <point x="542" y="657" type="qcurve"/>
      <point x="467" y="657" type="line"/>
      <point x="434" y="657"/>
      <point x="400" y="699"/>
      <point x="400" y="725" type="qcurve"/>
      <point x="400" y="751"/>
      <point x="434" y="794"/>
      <point x="467" y="795" type="qcurve"/>
    </contour>
  </outline>
</glyph>
<glyph name="four" format="1">
  <advance width="1169"/>
  <unicode hex="0034"/>
  <outline>
    <contour>
      <point x="618" y="1345" type="line"/>
      <point x="644" y="1388"/>
      <point x="718" y="1426"/>
      <point x="760" y="1426" type="qcurve"/>
      <point x="784" y="1426"/>
      <point x="829" y="1412"/>
      <point x="864" y="1382"/>
      <point x="884" y="1335"/>
      <point x="884" y="1303" type="qcurve"/>
      <point x="884" y="448" type="line"/>
      <point x="1038" y="448" type="line"/>
      <point x="1071" y="448"/>
      <point x="1104" y="407"/>
      <point x="1104" y="382" type="qcurve"/>
      <point x="1104" y="357"/>
      <point x="1071" y="316"/>
      <point x="1038" y="316" type="qcurve"/>
      <point x="883" y="316" type="line"/>
      <point x="883" y="80" type="line"/>
      <point x="883" y="60"/>
      <point x="868" y="30"/>
      <point x="844" y="10"/>
      <point x="814" y="0"/>
      <point x="798" y="0" type="qcurve"/>
      <point x="782" y="0"/>
      <point x="751" y="10"/>
      <point x="727" y="30"/>
      <point x="711" y="60"/>
      <point x="711" y="80" type="qcurve"/>
      <point x="711" y="316" type="line"/>
      <point x="134" y="316" type="line"/>
      <point x="90" y="316"/>
      <point x="38" y="373"/>
      <point x="38" y="411" type="qcurve"/>
      <point x="38" y="426"/>
      <point x="46" y="459"/>
      <point x="57" y="474" type="qcurve"/>
    </contour>
    <contour>
      <point x="191" y="448" type="line"/>
      <point x="711" y="448" type="line"/>
      <point x="711" y="1263" type="line"/>
    </contour>
  </outline>
</glyph>
<glyph name="five" format="1">
  <advance width="1169"/>
  <unicode hex="0035"/>
  <outline>
    <contour>
      <point x="183" y="1348" type="line"/>
      <point x="183" y="1383"/>
      <point x="224" y="1426"/>
      <point x="266" y="1426" type="qcurve"/>
      <point x="934" y="1426" type="line"/>
      <point x="969" y="1426"/>
      <point x="1003" y="1382"/>
      <point x="1003" y="1356" type="qcurve"/>
      <point x="1003" y="1329"/>
      <point x="969" y="1285"/>
      <point x="934" y="1285" type="qcurve"/>
      <point x="324" y="1285" type="line"/>
      <point x="322" y="783" type="line"/>
      <point x="384" y="850"/>
      <point x="544" y="924"/>
      <point x="640" y="924" type="qcurve"/>
      <point x="739" y="924"/>
      <point x="899" y="851"/>
      <point x="1011" y="726"/>
      <point x="1072" y="558"/>
      <point x="1072" y="457" type="qcurve"/>
      <point x="1072" y="351"/>
      <point x="1003" y="177"/>
      <point x="878" y="50"/>
      <point x="702" y="-22"/>
      <point x="595" y="-22" type="qcurve"/>
      <point x="518" y="-22"/>
      <point x="379" y="8"/>
      <point x="263" y="70"/>
      <point x="176" y="165"/>
      <point x="152" y="230" type="qcurve"/>
      <point x="147" y="244"/>
      <point x="141" y="265"/>
      <point x="141" y="276" type="qcurve"/>
      <point x="141" y="308"/>
      <point x="179" y="344"/>
      <point x="204" y="344" type="qcurve"/>
      <point x="222" y="344"/>
      <point x="259" y="322"/>
      <point x="273" y="297" type="qcurve"/>
      <point x="291" y="252"/>
      <point x="352" y="184"/>
      <point x="432" y="140"/>
      <point x="526" y="118"/>
      <point x="578" y="118" type="qcurve"/>
      <point x="657" y="118"/>
      <point x="774" y="171"/>
      <point x="851" y="264"/>
      <point x="889" y="389"/>
      <point x="889" y="464" type="qcurve"/>
      <point x="889" y="536"/>
      <point x="852" y="651"/>
      <point x="780" y="737"/>
      <point x="676" y="787"/>
      <point x="610" y="787" type="qcurve"/>
      <point x="556" y="787"/>
      <point x="469" y="760"/>
      <point x="402" y="718"/>
      <point x="355" y="668"/>
      <point x="341" y="645" type="qcurve"/>
      <point x="325" y="616"/>
      <point x="277" y="588"/>
      <point x="253" y="588" type="qcurve"/>
      <point x="225" y="588"/>
      <point x="183" y="627"/>
      <point x="183" y="665" type="qcurve"/>
    </contour>
  </outline>
</glyph>
<glyph name="six" format="1">
  <advance width="1169"/>
  <unicode hex="0036"/>
  <outline>
    <contour>
      <point x="971" y="1366" type="qcurve"/>
      <point x="988" y="1358"/>
      <point x="1003" y="1329"/>
      <point x="1003" y="1313" type="qcurve"/>
      <point x="1003" y="1299"/>
      <point x="993" y="1271"/>
      <point x="975" y="1249"/>
      <point x="951" y="1235"/>
      <point x="937" y="1235" type="qcurve"/>
      <point x="929" y="1235"/>
      <point x="920" y="1238" type="qcurve"/>
      <point x="853" y="1264"/>
      <point x="727" y="1294"/>
      <point x="674" y="1294" type="qcurve"/>
      <point x="585" y="1294"/>
      <point x="457" y="1243"/>
      <point x="367" y="1157"/>
      <point x="312" y="1042"/>
      <point x="282" y="913"/>
      <point x="271" y="778"/>
      <point x="271" y="714" type="qcurve"/>
      <point x="324" y="821"/>
      <point x="517" y="926"/>
      <point x="640" y="926" type="qcurve"/>
      <point x="744" y="926"/>
      <point x="908" y="859"/>
      <point x="1021" y="739"/>
      <point x="1081" y="573"/>
      <point x="1081" y="464" type="qcurve"/>
      <point x="1081" y="348"/>
      <point x="1017" y="176"/>
      <point x="896" y="50"/>
      <point x="722" y="-22"/>
      <point x="613" y="-22" type="qcurve"/>
      <point x="513" y="-22"/>
      <point x="358" y="27"/>
      <point x="241" y="115"/>
      <point x="161" y="237"/>
      <point x="111" y="381"/>
      <point x="89" y="570"/>
      <point x="89" y="655" type="qcurve"/>
      <point x="89" y="747"/>
      <point x="106" y="935"/>
      <point x="151" y="1109"/>
      <point x="232" y="1260"/>
      <point x="361" y="1373"/>
      <point x="542" y="1438"/>
      <point x="666" y="1438" type="qcurve"/>
      <point x="749" y="1438"/>
      <point x="904" y="1401"/>
    </contour>
    <contour>
      <point x="597" y="118" type="qcurve"/>
      <point x="670" y="118"/>
      <point x="784" y="166"/>
      <point x="862" y="251"/>
      <point x="902" y="369"/>
      <point x="902" y="455" type="qcurve"/>
      <point x="902" y="531"/>
      <point x="870" y="652"/>
      <point x="801" y="744"/>
      <point x="695" y="799"/>
      <point x="620" y="799" type="qcurve"/>
      <point x="541" y="799"/>
      <point x="420" y="747"/>
      <point x="337" y="655"/>
      <point x="295" y="530"/>
      <point x="295" y="447" type="qcurve"/>
      <point x="295" y="368"/>
      <point x="340" y="254"/>
      <point x="421" y="169"/>
      <point x="531" y="118"/>
    </contour>
  </outline>
</glyph>
<glyph name="seven" format="1">
  <advance width="1169"/>
  <unicode hex="0037"/>
  <outline>
    <contour>
      <point x="512" y="49" type="line"/>
      <point x="501" y="23"/>
      <point x="457" y="0"/>
      <point x="434" y="0" type="qcurve"/>
      <point x="416" y="0"/>
      <point x="382" y="12"/>
      <point x="355" y="34"/>
      <point x="338" y="65"/>
      <point x="338" y="83" type="qcurve"/>
      <point x="338" y="99"/>
      <point x="347" y="119" type="qcurve"/>
      <point x="856" y="1281" type="line"/>
      <point x="176" y="1281" type="line"/>
      <point x="139" y="1281"/>
      <point x="103" y="1326"/>
      <point x="103" y="1353" type="qcurve"/>
      <point x="103" y="1380"/>
      <point x="139" y="1426"/>
      <point x="176" y="1426" type="qcurve"/>
      <point x="941" y="1426" type="line"/>
      <point x="995" y="1426"/>
      <point x="1045" y="1374"/>
      <point x="1045" y="1336" type="qcurve"/>
      <point x="1045" y="1302"/>
      <point x="1029" y="1267" type="qcurve"/>
    </contour>
  </outline>
</glyph>
<glyph name="eight" format="1">
  <advance width="1169"/>
  <unicode hex="0038"/>
  <outline>
    <contour>
      <point x="584" y="-22" type="curve" smooth="yes"/>
      <point x="848" y="-22"/>
      <point x="1084" y="113"/>
      <point x="1084" y="377" type="curve" smooth="yes"/>
      <point x="1084" y="557"/>
      <point x="970" y="682"/>
      <point x="779" y="735" type="curve"/>
      <point x="779" y="737" type="line"/>
      <point x="942.571495074" y="769.31041878"/>
      <point x="1062.0" y="895.617714215"/>
      <point x="1062" y="1064" type="curve" smooth="yes"/>
      <point x="1062" y="1316"/>
      <point x="832" y="1438"/>
      <point x="584" y="1438" type="curve" smooth="yes"/>
      <point x="339" y="1438"/>
      <point x="107" y="1316"/>
      <point x="107" y="1064" type="curve" smooth="yes"/>
      <point x="107" y="907"/>
      <point x="232" y="754"/>
      <point x="392" y="737" type="curve"/>
      <point x="392" y="733" type="line"/>
      <point x="204.0" y="695.0"/>
      <point x="85.0" y="551.0"/>
      <point x="85" y="377" type="curve" smooth="yes"/>
      <point x="85" y="113"/>
      <point x="320" y="-22"/>
    </contour>
    <contour>
      <point x="584" y="118" type="curve" smooth="yes"/>
      <point x="420" y="118"/>
      <point x="267" y="202"/>
      <point x="267" y="383" type="curve" smooth="yes"/>
      <point x="267.0" y="569.0"/>
      <point x="418.0" y="664.0"/>
      <point x="584" y="664" type="curve" smooth="yes"/>
      <point x="750.0" y="664.0"/>
      <point x="901.0" y="569.0"/>
      <point x="901" y="383" type="curve" smooth="yes"/>
      <point x="901" y="202"/>
      <point x="750" y="118"/>
    </contour>
    <contour>
      <point x="584" y="818" type="curve" smooth="yes"/>
      <point x="408" y="818"/>
      <point x="279" y="898"/>
      <point x="279" y="1061" type="curve" smooth="yes"/>
      <point x="279" y="1236"/>
      <point x="436" y="1307"/>
      <point x="584" y="1307" type="curve" smooth="yes"/>
      <point x="734" y="1307"/>
      <point x="890" y="1236"/>
      <point x="890" y="1061" type="curve" smooth="yes"/>
      <point x="890" y="898"/>
      <point x="762" y="818"/>
    </contour>
  </outline>
</glyph>
<glyph name="nine" format="1">
  <advance width="1169"/>
  <unicode hex="0039"/>
  <outline>
    <contour>
      <point x="198" y="50" type="curve"/>
      <point x="175" y="61"/>
      <point x="166" y="81"/>
      <point x="166" y="104" type="curve" smooth="yes"/>
      <point x="166" y="144"/>
      <point x="195" y="185"/>
      <point x="232" y="185" type="curve" smooth="yes"/>
      <point x="237" y="185"/>
      <point x="243" y="184"/>
      <point x="249" y="182" type="curve" smooth="yes"/>
      <point x="345" y="145"/>
      <point x="438" y="126"/>
      <point x="511" y="126" type="curve" smooth="yes"/>
      <point x="839" y="126"/>
      <point x="899" y="448"/>
      <point x="899" y="728" type="curve"/>
      <point x="897" y="728" type="line"/>
      <point x="896" y="728"/>
      <point x="895" y="728"/>
      <point x="895" y="728" type="curve"/>
      <point x="830" y="585"/>
      <point x="690" y="517"/>
      <point x="529" y="517" type="curve" smooth="yes"/>
      <point x="251" y="517"/>
      <point x="89" y="703"/>
      <point x="89" y="968" type="curve" smooth="yes"/>
      <point x="89" y="1235"/>
      <point x="265" y="1438"/>
      <point x="556" y="1438" type="curve" smooth="yes"/>
      <point x="957" y="1438"/>
      <point x="1081" y="1127"/>
      <point x="1081" y="787" type="curve" smooth="yes"/>
      <point x="1081" y="456"/>
      <point x="1011" y="-22"/>
      <point x="504" y="-22" type="curve" smooth="yes"/>
      <point x="393" y="-22"/>
      <point x="287" y="3"/>
    </contour>
    <contour>
      <point x="572" y="1298" type="curve" smooth="yes"/>
      <point x="376" y="1298"/>
      <point x="268" y="1164"/>
      <point x="268" y="977" type="curve" smooth="yes"/>
      <point x="268" y="801"/>
      <point x="350" y="643"/>
      <point x="549" y="643" type="curve" smooth="yes"/>
      <point x="760" y="643"/>
      <point x="874" y="790"/>
      <point x="874" y="985" type="curve" smooth="yes"/>
      <point x="874" y="1153"/>
      <point x="748" y="1298"/>
    </contour>
  </outline>
</glyph>
<glyph name="colon" format="1">
  <advance width="584"/>
  <unicode hex="003A"/>
  <outline>
    <contour>
      <point x="184" y="902" type="qcurve"/>
      <point x="184" y="921"/>
      <point x="198" y="956"/>
      <point x="226" y="983"/>
      <point x="266" y="1000"/>
      <point x="292" y="1000" type="qcurve"/>
      <point x="317" y="1000"/>
      <point x="357" y="983"/>
      <point x="385" y="956"/>
      <point x="399" y="921"/>
      <point x="399" y="902" type="qcurve"/>
      <point x="399" y="883"/>
      <point x="385" y="848"/>
      <point x="357" y="821"/>
      <point x="317" y="805"/>
      <point x="292" y="805" type="qcurve"/>
      <point x="266" y="805"/>
      <point x="226" y="821"/>
      <point x="198" y="848"/>
      <point x="184" y="883"/>
    </contour>
    <contour>
      <point x="184" y="97" type="qcurve"/>
      <point x="184" y="115"/>
      <point x="198" y="150"/>
      <point x="226" y="177"/>
      <point x="266" y="194"/>
      <point x="292" y="194" type="qcurve"/>
      <point x="317" y="194"/>
      <point x="357" y="177"/>
      <point x="385" y="150"/>
      <point x="399" y="115"/>
      <point x="399" y="97" type="qcurve"/>
      <point x="399" y="78"/>
      <point x="385" y="43"/>
      <point x="357" y="16"/>
      <point x="317" y="-1"/>
      <point x="292" y="-1" type="qcurve"/>
      <point x="266" y="-1"/>
      <point x="226" y="16"/>
      <point x="198" y="43"/>
      <point x="184" y="78"/>
    </contour>
  </outline>
</glyph>
<glyph name="semicolon" format="1">
  <advance width="584"/>
  <unicode hex="003B"/>
  <outline>
    <contour>
      <point x="210" y="924" type="qcurve"/>
      <point x="210" y="942"/>
      <point x="224" y="977"/>
      <point x="251" y="1004"/>
      <point x="291" y="1020"/>
      <point x="317" y="1020" type="qcurve"/>
      <point x="343" y="1020"/>
      <point x="383" y="1004"/>
      <point x="411" y="977"/>
      <point x="425" y="942"/>
      <point x="425" y="924" type="qcurve"/>
      <point x="425" y="905"/>
      <point x="411" y="869"/>
      <point x="383" y="842"/>
      <point x="343" y="825"/>
      <point x="317" y="825" type="qcurve"/>
      <point x="291" y="825"/>
      <point x="251" y="842"/>
      <point x="224" y="869"/>
      <point x="210" y="905"/>
    </contour>
    <contour>
      <point x="284" y="-240" type="line"/>
      <point x="146" y="-240" type="line"/>
      <point x="239" y="185" type="line"/>
      <point x="436" y="185" type="line"/>
    </contour>
  </outline>
</glyph>
<glyph name="less" format="1">
  <advance width="1340"/>
  <unicode hex="003C"/>
  <outline>
    <contour>
      <point x="1117" y="16" type="curve" smooth="yes"/>
      <point x="1154" y="16"/>
      <point x="1181" y="49"/>
      <point x="1181" y="82" type="curve" smooth="yes"/>
      <point x="1181" y="104"/>
      <point x="1170" y="125"/>
      <point x="1142" y="138" type="curve" smooth="yes"/>
      <point x="338" y="495" type="line"/>
      <point x="1139" y="833" type="line" smooth="yes"/>
      <point x="1168" y="845"/>
      <point x="1180" y="866"/>
      <point x="1180" y="889" type="curve" smooth="yes"/>
      <point x="1180" y="922"/>
      <point x="1152" y="956"/>
      <point x="1112" y="956" type="curve" smooth="yes"/>
      <point x="1103" y="956"/>
      <point x="1095" y="955"/>
      <point x="1087" y="952" type="curve" smooth="yes"/>
      <point x="200" y="574" type="line" smooth="yes"/>
      <point x="157" y="555"/>
      <point x="138" y="523"/>
      <point x="138" y="495" type="curve" smooth="yes"/>
      <point x="138" y="467"/>
      <point x="156" y="437"/>
      <point x="197" y="419" type="curve" smooth="yes"/>
      <point x="1089" y="22" type="line" smooth="yes"/>
      <point x="1099" y="18"/>
      <point x="1108" y="16"/>
    </contour>
  </outline>
</glyph>
<glyph name="equal" format="1">
  <advance width="1340"/>
  <unicode hex="003D"/>
  <outline>
    <contour>
      <point x="227" y="233" type="curve" smooth="yes"/>
      <point x="1113" y="233" type="line" smooth="yes"/>
      <point x="1152" y="233"/>
      <point x="1182" y="263"/>
      <point x="1182" y="299" type="curve" smooth="yes"/>
      <point x="1182" y="338"/>
      <point x="1152" y="367"/>
      <point x="1113" y="367" type="curve" smooth="yes"/>
      <point x="227" y="367" type="line" smooth="yes"/>
      <point x="188" y="367"/>
      <point x="157" y="338"/>
      <point x="157" y="299" type="curve" smooth="yes"/>
      <point x="157" y="263"/>
      <point x="188" y="233"/>
    </contour>
    <contour>
      <point x="227" y="625" type="curve" smooth="yes"/>
      <point x="1113" y="625" type="line" smooth="yes"/>
      <point x="1152" y="625"/>
      <point x="1182" y="656"/>
      <point x="1182" y="692" type="curve" smooth="yes"/>
      <point x="1182" y="731"/>
      <point x="1152" y="760"/>
      <point x="1113" y="760" type="curve" smooth="yes"/>
      <point x="227" y="760" type="line" smooth="yes"/>
      <point x="188" y="760"/>
      <point x="157" y="731"/>
      <point x="157" y="692" type="curve" smooth="yes"/>
      <point x="157" y="656"/>
      <point x="188" y="625"/>
    </contour>
  </outline>
</glyph>
<glyph name="greater" format="1">
  <advance width="1340"/>
  <unicode hex="003E"/>
  <outline>
    <contour>
      <point x="1142" y="571" type="line"/>
      <point x="1173" y="557"/>
      <point x="1201" y="515"/>
      <point x="1201" y="495" type="qcurve"/>
      <point x="1201" y="472"/>
      <point x="1171" y="430"/>
      <point x="1139" y="416" type="qcurve"/>
      <point x="252" y="38" type="line"/>
      <point x="237" y="33"/>
      <point x="226" y="33" type="qcurve"/>
      <point x="196" y="33"/>
      <point x="159" y="75"/>
      <point x="159" y="101" type="qcurve"/>
      <point x="159" y="118"/>
      <point x="178" y="148"/>
      <point x="199" y="157" type="qcurve"/>
      <point x="1001" y="495" type="line"/>
      <point x="197" y="852" type="line"/>
      <point x="177" y="861"/>
      <point x="158" y="891"/>
      <point x="158" y="908" type="qcurve"/>
      <point x="158" y="933"/>
      <point x="193" y="974"/>
      <point x="221" y="974" type="qcurve"/>
      <point x="235" y="974"/>
      <point x="250" y="968" type="qcurve"/>
    </contour>
  </outline>
</glyph>
<glyph name="question" format="1">
  <advance width="1032"/>
  <unicode hex="003F"/>
  <outline>
    <contour>
      <point x="222" y="1333" type="qcurve"/>
      <point x="212" y="1331"/>
      <point x="207" y="1331" type="qcurve"/>
      <point x="178" y="1331"/>
      <point x="143" y="1377"/>
      <point x="143" y="1405" type="qcurve"/>
      <point x="143" y="1428"/>
      <point x="172" y="1471"/>
      <point x="205" y="1479" type="qcurve"/>
      <point x="274" y="1497"/>
      <point x="419" y="1510"/>
      <point x="488" y="1510" type="qcurve"/>
      <point x="570" y="1510"/>
      <point x="715" y="1466"/>
      <point x="825" y="1374"/>
      <point x="889" y="1235"/>
      <point x="889" y="1140" type="qcurve"/>
      <point x="889" y="1076"/>
      <point x="856" y="975"/>
      <point x="799" y="888"/>
      <point x="723" y="809"/>
      <point x="681" y="769" type="qcurve"/>
      <point x="633" y="719"/>
      <point x="563" y="655"/>
      <point x="518" y="605"/>
      <point x="497" y="558"/>
      <point x="496" y="524" type="qcurve"/>
      <point x="496" y="509" type="line"/>
      <point x="496" y="498"/>
      <point x="497" y="458"/>
      <point x="497" y="426" type="qcurve"/>
      <point x="497" y="391"/>
      <point x="449" y="355"/>
      <point x="420" y="355" type="qcurve"/>
      <point x="385" y="355"/>
      <point x="352" y="384"/>
      <point x="340" y="439"/>
      <point x="342" y="520"/>
      <point x="342" y="571" type="qcurve"/>
      <point x="344" y="621"/>
      <point x="400" y="708"/>
      <point x="482" y="791"/>
      <point x="576" y="873"/>
      <point x="657" y="964"/>
      <point x="711" y="1066"/>
      <point x="711" y="1128" type="qcurve"/>
      <point x="711" y="1195"/>
      <point x="666" y="1284"/>
      <point x="593" y="1337"/>
      <point x="498" y="1359"/>
      <point x="448" y="1359" type="qcurve"/>
      <point x="434" y="1359"/>
      <point x="382" y="1356"/>
      <point x="319" y="1350"/>
      <point x="251" y="1340"/>
    </contour>
    <contour>
      <point x="317" y="88" type="qcurve"/>
      <point x="317" y="106"/>
      <point x="331" y="141"/>
      <point x="358" y="168"/>
      <point x="398" y="184"/>
      <point x="424" y="184" type="qcurve"/>
      <point x="450" y="184"/>
      <point x="490" y="168"/>
      <point x="518" y="141"/>
      <point x="532" y="106"/>
      <point x="532" y="88" type="qcurve"/>
      <point x="532" y="69"/>
      <point x="518" y="33"/>
      <point x="490" y="6"/>
      <point x="450" y="-11"/>
      <point x="424" y="-11" type="qcurve"/>
      <point x="398" y="-11"/>
      <point x="358" y="6"/>
      <point x="331" y="33"/>
      <point x="317" y="69"/>
    </contour>
  </outline>
</glyph>
<glyph name="at" format="1">
  <advance width="1638"/>
  <unicode hex="0040"/>
  <outline>
    <contour>
      <point x="538" y="604" type="qcurve"/>
      <point x="538" y="567"/>
      <point x="559" y="498"/>
      <point x="600" y="446"/>
      <point x="658" y="414"/>
      <point x="695" y="414" type="qcurve"/>
      <point x="732" y="414"/>
      <point x="812" y="437"/>
      <point x="884" y="483"/>
      <point x="941" y="551"/>
      <point x="956" y="596" type="qcurve"/>
      <point x="1037" y="844" type="line"/>
      <point x="1046" y="872"/>
      <point x="1046" y="898" type="qcurve"/>
      <point x="1046" y="935"/>
      <point x="1013" y="994"/>
      <point x="964" y="1035"/>
      <point x="904" y="1057"/>
      <point x="877" y="1057" type="qcurve"/>
      <point x="826" y="1057"/>
      <point x="736" y="1015"/>
      <point x="661" y="944"/>
      <point x="601" y="851"/>
      <point x="560" y="750"/>
      <point x="538" y="648"/>
    </contour>
    <contour>
      <point x="1087" y="123" type="qcurve"/>
      <point x="1099" y="127"/>
      <point x="1113" y="127" type="qcurve"/>
      <point x="1139" y="127"/>
      <point x="1165" y="95"/>
      <point x="1165" y="75" type="qcurve"/>
      <point x="1165" y="59"/>
      <point x="1148" y="31"/>
      <point x="1130" y="26" type="qcurve"/>
      <point x="963" y="-25"/>
      <point x="807" y="-25" type="qcurve"/>
      <point x="647" y="-25"/>
      <point x="373" y="79"/>
      <point x="172" y="276"/>
      <point x="58" y="560"/>
      <point x="58" y="740" type="qcurve"/>
      <point x="58" y="864"/>
      <point x="126" y="1074"/>
      <point x="244" y="1246"/>
      <point x="405" y="1377"/>
      <point x="590" y="1466"/>
      <point x="791" y="1512"/>
      <point x="891" y="1512" type="qcurve"/>
      <point x="1019" y="1512"/>
      <point x="1256" y="1435"/>
      <point x="1439" y="1277"/>
      <point x="1549" y="1036"/>
      <point x="1549" y="871" type="qcurve"/>
      <point x="1549" y="790"/>
      <point x="1509" y="640"/>
      <point x="1440" y="509"/>
      <point x="1348" y="401"/>
      <point x="1244" y="324"/>
      <point x="1133" y="281"/>
      <point x="1080" y="281" type="qcurve"/>
      <point x="1053" y="281"/>
      <point x="1000" y="294"/>
      <point x="953" y="319"/>
      <point x="918" y="359"/>
      <point x="909" y="386" type="qcurve"/>
      <point x="862" y="337"/>
      <point x="728" y="283"/>
      <point x="661" y="283" type="qcurve"/>
      <point x="594" y="283"/>
      <point x="487" y="332"/>
      <point x="413" y="417"/>
      <point x="374" y="530"/>
      <point x="374" y="594" type="qcurve"/>
      <point x="374" y="662"/>
      <point x="406" y="803"/>
      <point x="467" y="936"/>
      <point x="554" y="1054"/>
      <point x="665" y="1142"/>
      <point x="796" y="1193"/>
      <point x="870" y="1193" type="qcurve"/>
      <point x="906" y="1193"/>
      <point x="974" y="1176"/>
      <point x="1035" y="1143"/>
      <point x="1084" y="1094"/>
      <point x="1100" y="1061" type="qcurve"/>
      <point x="1109" y="1091" type="line"/>
      <point x="1117" y="1117"/>
      <point x="1161" y="1143"/>
      <point x="1184" y="1143" type="qcurve"/>
      <point x="1208" y="1143"/>
      <point x="1246" y="1115"/>
      <point x="1246" y="1088" type="qcurve"/>
      <point x="1246" y="1075"/>
      <point x="1242" y="1063" type="qcurve"/>
      <point x="1078" y="558" type="line"/>
      <point x="1067" y="526"/>
      <point x="1054" y="470"/>
      <point x="1054" y="449" type="qcurve"/>
      <point x="1054" y="425"/>
      <point x="1078" y="398"/>
      <point x="1110" y="398" type="qcurve"/>
      <point x="1169" y="398"/>
      <point x="1280" y="483"/>
      <point x="1365" y="619"/>
      <point x="1417" y="787"/>
      <point x="1417" y="870" type="qcurve"/>
      <point x="1417" y="1006"/>
      <point x="1331" y="1206"/>
      <point x="1186" y="1336"/>
      <point x="997" y="1399"/>
      <point x="894" y="1399" type="qcurve"/>
      <point x="811" y="1399"/>
      <point x="642" y="1359"/>
      <point x="486" y="1281"/>
      <point x="350" y="1166"/>
      <point x="250" y="1017"/>
      <point x="192" y="835"/>
      <point x="192" y="728" type="qcurve"/>
      <point x="192" y="567"/>
      <point x="294" y="325"/>
      <point x="467" y="163"/>
      <point x="697" y="82"/>
      <point x="825" y="82" type="qcurve"/>
      <point x="953" y="82"/>
    </contour>
  </outline>
</glyph>
<glyph name="A" format="1">
  <advance width="1392"/>
  <unicode hex="0041"/>
  <outline>
    <contour>
      <point x="1337" y="108" type="line"/>
      <point x="1342" y="91"/>
      <point x="1342" y="80" type="qcurve"/>
      <point x="1342" y="62"/>
      <point x="1326" y="32"/>
      <point x="1299" y="11"/>
      <point x="1265" y="0"/>
      <point x="1248" y="0" type="qcurve"/>
      <point x="1224" y="0"/>
      <point x="1182" y="25"/>
      <point x="1173" y="53" type="qcurve"/>
      <point x="1045" y="373" type="line"/>
      <point x="338" y="373" type="line"/>
      <point x="211" y="53" type="line"/>
      <point x="201" y="24"/>
      <point x="161" y="0"/>
      <point x="138" y="0" type="qcurve"/>
      <point x="121" y="0"/>
      <point x="89" y="11"/>
      <point x="64" y="32"/>
      <point x="48" y="61"/>
      <point x="48" y="78" type="qcurve"/>
      <point x="48" y="91"/>
      <point x="54" y="108" type="qcurve"/>
      <point x="530" y="1270" type="line"/>
      <point x="549" y="1320"/>
      <point x="587" y="1382"/>
      <point x="626" y="1415"/>
      <point x="669" y="1426"/>
      <point x="694" y="1426" type="qcurve"/>
      <point x="719" y="1426"/>
      <point x="762" y="1415"/>
      <point x="802" y="1381"/>
      <point x="839" y="1320"/>
      <point x="859" y="1270" type="qcurve"/>
    </contour>
    <contour>
      <point x="691" y="1279" type="line"/>
      <point x="388" y="508" type="line"/>
      <point x="995" y="508" type="line"/>
      <point x="693" y="1279" type="line"/>
    </contour>
  </outline>
</glyph>
<glyph name="B" format="1">
  <advance width="1385"/>
  <unicode hex="0042"/>
  <outline>
    <contour>
      <point x="195" y="1341" type="line"/>
      <point x="195" y="1359"/>
      <point x="209" y="1390"/>
      <point x="233" y="1413"/>
      <point x="265" y="1426"/>
      <point x="283" y="1426" type="qcurve"/>
      <point x="742" y="1426" type="line"/>
      <point x="837" y="1426"/>
      <point x="998" y="1375"/>
      <point x="1112" y="1282"/>
      <point x="1178" y="1150"/>
      <point x="1178" y="1068" type="qcurve"/>
      <point x="1178" y="1009"/>
      <point x="1136" y="904"/>
      <point x="1063" y="819"/>
      <point x="962" y="759"/>
      <point x="903" y="746" type="qcurve"/>
      <point x="903" y="742" type="line"/>
      <point x="978" y="730"/>
      <point x="1102" y="671"/>
      <point x="1189" y="580"/>
      <point x="1237" y="458"/>
      <point x="1237" y="383" type="qcurve"/>
      <point x="1237" y="312"/>
      <point x="1188" y="175"/>
      <point x="1071" y="67"/>
      <point x="884" y="0"/>
      <point x="761" y="0" type="qcurve"/>
      <point x="283" y="0" type="line"/>
      <point x="265" y="0"/>
      <point x="233" y="13"/>
      <point x="209" y="36"/>
      <point x="195" y="67"/>
      <point x="195" y="85" type="qcurve"/>
    </contour>
    <contour>
      <point x="370" y="138" type="line"/>
      <point x="671" y="138" type="line"/>
      <point x="762" y="138"/>
      <point x="904" y="162"/>
      <point x="1001" y="223"/>
      <point x="1052" y="326"/>
      <point x="1052" y="405" type="qcurve"/>
      <point x="1052" y="490"/>
      <point x="984" y="595"/>
      <point x="864" y="653"/>
      <point x="698" y="672"/>
      <point x="599" y="672" type="qcurve"/>
      <point x="370" y="672" type="line"/>
    </contour>
    <contour>
      <point x="370" y="1288" type="line"/>
      <point x="370" y="801" type="line"/>
      <point x="666" y="801" type="line"/>
      <point x="729" y="801"/>
      <point x="848" y="827"/>
      <point x="940" y="886"/>
      <point x="995" y="980"/>
      <point x="995" y="1049" type="qcurve"/>
      <point x="995" y="1122"/>
      <point x="938" y="1215"/>
      <point x="844" y="1268"/>
      <point x="724" y="1288"/>
      <point x="661" y="1288" type="qcurve"/>
    </contour>
  </outline>
</glyph>
<glyph name="C" format="1">
  <advance width="1385"/>
  <unicode hex="0043"/>
  <outline>
    <contour>
      <point x="769" y="-22" type="curve" smooth="yes"/>
      <point x="883.805788875" y="-22.0"/>
      <point x="1054.86067643" y="15.164583058"/>
      <point x="1144.78146442" y="77.7485534689" type="curve" smooth="yes"/>
      <point x="1181.74598245" y="103.475488858"/>
      <point x="1205.0" y="133.497936547"/>
      <point x="1205" y="167" type="curve" smooth="yes"/>
      <point x="1205" y="202"/>
      <point x="1180" y="232"/>
      <point x="1145" y="232" type="curve" smooth="yes"/>
      <point x="1134" y="232"/>
      <point x="1121" y="230"/>
      <point x="1109" y="223" type="curve" smooth="yes"/>
      <point x="1001" y="160"/>
      <point x="871" y="131"/>
      <point x="780" y="131" type="curve" smooth="yes"/>
      <point x="414" y="131"/>
      <point x="307" y="454"/>
      <point x="307" y="706" type="curve" smooth="yes"/>
      <point x="307" y="967"/>
      <point x="419" y="1283"/>
      <point x="780" y="1283" type="curve" smooth="yes"/>
      <point x="868" y="1283"/>
      <point x="979" y="1259"/>
      <point x="1084" y="1220" type="curve" smooth="yes"/>
      <point x="1091" y="1217"/>
      <point x="1099" y="1216"/>
      <point x="1107" y="1216" type="curve" smooth="yes"/>
      <point x="1146" y="1216"/>
      <point x="1170" y="1251"/>
      <point x="1170" y="1288" type="curve" smooth="yes"/>
      <point x="1170" y="1314"/>
      <point x="1157" y="1344"/>
      <point x="1126" y="1359" type="curve" smooth="yes"/>
      <point x="1023" y="1406"/>
      <point x="902" y="1438"/>
      <point x="767" y="1438" type="curve" smooth="yes"/>
      <point x="327" y="1438"/>
      <point x="118" y="1095"/>
      <point x="118" y="704" type="curve" smooth="yes"/>
      <point x="118" y="305"/>
      <point x="333" y="-22"/>
    </contour>
  </outline>
</glyph>
<glyph name="D" format="1">
  <advance width="1494"/>
  <unicode hex="0044"/>
  <outline>
    <contour>
      <point x="267" y="0" type="line"/>
      <point x="249" y="0"/>
      <point x="216" y="14"/>
      <point x="192" y="37"/>
      <point x="178" y="68"/>
      <point x="178" y="86" type="qcurve"/>
      <point x="178" y="1340" type="line"/>
      <point x="178" y="1358"/>
      <point x="192" y="1389"/>
      <point x="216" y="1412"/>
      <point x="249" y="1426"/>
      <point x="267" y="1426" type="qcurve"/>
      <point x="607" y="1426" type="line"/>
      <point x="793" y="1426"/>
      <point x="1078" y="1334"/>
      <point x="1272" y="1153"/>
      <point x="1371" y="885"/>
      <point x="1371" y="710" type="qcurve"/>
      <point x="1371" y="535"/>
      <point x="1269" y="270"/>
      <point x="1074" y="91"/>
      <point x="792" y="0"/>
      <point x="611" y="0" type="qcurve"/>
    </contour>
    <contour>
      <point x="355" y="140" type="line"/>
      <point x="630" y="140" type="line"/>
      <point x="777" y="140"/>
      <point x="986" y="220"/>
      <point x="1119" y="369"/>
      <point x="1181" y="581"/>
      <point x="1181" y="712" type="qcurve"/>
      <point x="1181" y="860"/>
      <point x="1100" y="1077"/>
      <point x="946" y="1218"/>
      <point x="723" y="1286"/>
      <point x="582" y="1286" type="qcurve"/>
      <point x="355" y="1286" type="line"/>
    </contour>
  </outline>
</glyph>
<glyph name="E" format="1">
  <advance width="1255"/>
  <unicode hex="0045"/>
  <outline>
    <contour>
      <point x="287" y="0" type="line"/>
      <point x="270" y="0"/>
      <point x="239" y="14"/>
      <point x="214" y="38"/>
      <point x="199" y="69"/>
      <point x="199" y="86" type="qcurve"/>
      <point x="199" y="1340" type="line"/>
      <point x="199" y="1356"/>
      <point x="211" y="1387"/>
      <point x="234" y="1411"/>
      <point x="264" y="1426"/>
      <point x="282" y="1426" type="qcurve"/>
      <point x="1028" y="1426" type="line"/>
      <point x="1065" y="1426"/>
      <point x="1101" y="1381"/>
      <point x="1101" y="1354" type="qcurve"/>
      <point x="1101" y="1326"/>
      <point x="1065" y="1281"/>
      <point x="1028" y="1281" type="qcurve"/>
      <point x="374" y="1281" type="line"/>
      <point x="374" y="806" type="line"/>
      <point x="996" y="806" type="line"/>
      <point x="1034" y="806"/>
      <point x="1070" y="761"/>
      <point x="1070" y="734" type="qcurve"/>
      <point x="1070" y="707"/>
      <point x="1033" y="662"/>
      <point x="996" y="662" type="qcurve"/>
      <point x="374" y="662" type="line"/>
      <point x="374" y="145" type="line"/>
      <point x="1056" y="145" type="line"/>
      <point x="1093" y="145"/>
      <point x="1129" y="100"/>
      <point x="1129" y="73" type="qcurve"/>
      <point x="1129" y="45"/>
      <point x="1093" y="0"/>
      <point x="1056" y="0" type="qcurve"/>
    </contour>
  </outline>
</glyph>
<glyph name="F" format="1">
  <advance width="1150"/>
  <unicode hex="0046"/>
  <outline>
    <contour>
      <point x="275" y="0" type="curve" smooth="yes"/>
      <point x="319" y="0"/>
      <point x="364" y="27"/>
      <point x="364" y="84" type="curve" smooth="yes"/>
      <point x="364" y="670" type="line"/>
      <point x="949" y="670" type="line" smooth="yes"/>
      <point x="998" y="670"/>
      <point x="1023" y="706"/>
      <point x="1023" y="743" type="curve" smooth="yes"/>
      <point x="1023" y="779"/>
      <point x="998" y="815"/>
      <point x="949" y="815" type="curve" smooth="yes"/>
      <point x="364" y="815" type="line"/>
      <point x="364" y="1281" type="line"/>
      <point x="975" y="1281" type="line" smooth="yes"/>
      <point x="1024" y="1281"/>
      <point x="1048" y="1317"/>
      <point x="1048" y="1354" type="curve" smooth="yes"/>
      <point x="1048" y="1390"/>
      <point x="1024" y="1426"/>
      <point x="975" y="1426" type="curve" smooth="yes"/>
      <point x="270" y="1426" type="line" smooth="yes"/>
      <point x="225" y="1426"/>
      <point x="186" y="1392"/>
      <point x="186" y="1341" type="curve" smooth="yes"/>
      <point x="186" y="84" type="line" smooth="yes"/>
      <point x="186" y="28"/>
      <point x="230" y="0"/>
    </contour>
  </outline>
</glyph>
<glyph name="G" format="1">
  <advance width="1498"/>
  <unicode hex="0047"/>
  <outline>
    <contour>
      <point x="1247" y="735" type="line"/>
      <point x="1282" y="735"/>
      <point x="1321" y="695"/>
      <point x="1321" y="660" type="qcurve"/>
      <point x="1321" y="138" type="line"/>
      <point x="1321" y="101"/>
      <point x="1283" y="57"/>
      <point x="1255" y="50" type="qcurve"/>
      <point x="1145" y="16"/>
      <point x="915" y="-22"/>
      <point x="815" y="-22" type="qcurve"/>
      <point x="661" y="-22"/>
      <point x="406" y="65"/>
      <point x="224" y="248"/>
      <point x="123" y="528"/>
      <point x="123" y="712" type="qcurve"/>
      <point x="123" y="795"/>
      <point x="161" y="984"/>
      <point x="238" y="1149"/>
      <point x="354" y="1286"/>
      <point x="511" y="1384"/>
      <point x="708" y="1438"/>
      <point x="828" y="1438" type="qcurve"/>
      <point x="937" y="1438"/>
      <point x="1141" y="1401"/>
      <point x="1227" y="1365" type="qcurve"/>
      <point x="1248" y="1356"/>
      <point x="1266" y="1323"/>
      <point x="1266" y="1305" type="qcurve"/>
      <point x="1266" y="1278"/>
      <point x="1231" y="1232"/>
      <point x="1202" y="1232" type="qcurve"/>
      <point x="1194" y="1232" type="line"/>
      <point x="1190" y="1232"/>
      <point x="1186" y="1234" type="qcurve"/>
      <point x="1142" y="1246"/>
      <point x="1050" y="1265"/>
      <point x="958" y="1279"/>
      <point x="872" y="1287"/>
      <point x="835" y="1287" type="qcurve"/>
      <point x="694" y="1287"/>
      <point x="495" y="1192"/>
      <point x="369" y="1029"/>
      <point x="312" y="812"/>
      <point x="312" y="709" type="qcurve"/>
      <point x="312" y="580"/>
      <point x="367" y="359"/>
      <point x="490" y="205"/>
      <point x="689" y="123"/>
      <point x="834" y="123" type="qcurve"/>
      <point x="913" y="123"/>
      <point x="1072" y="147"/>
      <point x="1145" y="167" type="qcurve"/>
      <point x="1145" y="601" type="line"/>
      <point x="862" y="601" type="line"/>
      <point x="829" y="601"/>
      <point x="795" y="642"/>
      <point x="795" y="668" type="qcurve"/>
      <point x="795" y="694"/>
      <point x="828" y="735"/>
      <point x="862" y="735" type="qcurve"/>
    </contour>
  </outline>
</glyph>
<glyph name="H" format="1">
  <advance width="1494"/>
  <unicode hex="0048"/>
  <outline>
    <contour>
      <point x="1123" y="1342" type="line"/>
      <point x="1123" y="1363"/>
      <point x="1138" y="1394"/>
      <point x="1163" y="1415"/>
      <point x="1195" y="1426"/>
      <point x="1212" y="1426" type="qcurve"/>
      <point x="1246" y="1426"/>
      <point x="1301" y="1384"/>
      <point x="1301" y="1342" type="qcurve"/>
      <point x="1301" y="84" type="line"/>
      <point x="1301" y="63"/>
      <point x="1286" y="31"/>
      <point x="1260" y="10"/>
      <point x="1228" y="0"/>
      <point x="1211" y="0" type="qcurve"/>
      <point x="1178" y="0"/>
      <point x="1123" y="42"/>
      <point x="1123" y="84" type="qcurve"/>
      <point x="1123" y="666" type="line"/>
      <point x="371" y="666" type="line"/>
      <point x="371" y="84" type="line"/>
      <point x="371" y="63"/>
      <point x="356" y="31"/>
      <point x="330" y="10"/>
      <point x="298" y="0"/>
      <point x="281" y="0" type="qcurve"/>
      <point x="248" y="0"/>
      <point x="193" y="42"/>
      <point x="193" y="84" type="qcurve"/>
      <point x="193" y="1342" type="line"/>
      <point x="193" y="1363"/>
      <point x="208" y="1394"/>
      <point x="234" y="1415"/>
      <point x="266" y="1426"/>
      <point x="283" y="1426" type="qcurve"/>
      <point x="316" y="1426"/>
      <point x="371" y="1384"/>
      <point x="371" y="1342" type="qcurve"/>
      <point x="371" y="814" type="line"/>
      <point x="1123" y="814" type="line"/>
    </contour>
  </outline>
</glyph>
<glyph name="I" format="1">
  <advance width="592"/>
  <unicode hex="0049"/>
  <outline>
    <contour>
      <point x="208" y="1341" type="line"/>
      <point x="208" y="1362"/>
      <point x="223" y="1394"/>
      <point x="249" y="1415"/>
      <point x="281" y="1426"/>
      <point x="298" y="1426" type="qcurve"/>
      <point x="331" y="1426"/>
      <point x="386" y="1384"/>
      <point x="386" y="1341" type="qcurve"/>
      <point x="386" y="84" type="line"/>
      <point x="386" y="63"/>
      <point x="371" y="31"/>
      <point x="345" y="10"/>
      <point x="313" y="0"/>
      <point x="296" y="0" type="qcurve"/>
      <point x="263" y="0"/>
      <point x="208" y="42"/>
      <point x="208" y="84" type="qcurve"/>
    </contour>
  </outline>
</glyph>
<glyph name="J" format="1">
  <advance width="1058"/>
  <unicode hex="004A"/>
  <outline>
    <contour>
      <point x="708" y="1343" type="line" smooth="yes"/>
      <point x="708" y="1399"/>
      <point x="753" y="1426"/>
      <point x="798" y="1426" type="curve" smooth="yes"/>
      <point x="843" y="1426"/>
      <point x="887" y="1399"/>
      <point x="887" y="1343" type="curve" smooth="yes"/>
      <point x="887" y="441" type="line" smooth="yes"/>
      <point x="887" y="103"/>
      <point x="670" y="-22"/>
      <point x="446" y="-22" type="curve" smooth="yes"/>
      <point x="282" y="-22"/>
      <point x="125" y="72"/>
      <point x="69" y="239" type="curve"/>
      <point x="62" y="254"/>
      <point x="59" y="269"/>
      <point x="59" y="282" type="curve" smooth="yes"/>
      <point x="59" y="326"/>
      <point x="95" y="353"/>
      <point x="131" y="353" type="curve" smooth="yes"/>
      <point x="156" y="353"/>
      <point x="180" y="341"/>
      <point x="195" y="312" type="curve"/>
      <point x="238" y="191"/>
      <point x="317" y="121"/>
      <point x="446" y="121" type="curve" smooth="yes"/>
      <point x="613" y="121"/>
      <point x="708" y="223"/>
      <point x="708" y="456" type="curve" smooth="yes"/>
    </contour>
  </outline>
</glyph>
<glyph name="K" format="1">
  <advance width="1289"/>
  <unicode hex="004B"/>
  <outline>
    <contour>
      <point x="381" y="83" type="line"/>
      <point x="381" y="62"/>
      <point x="366" y="31"/>
      <point x="340" y="10"/>
      <point x="308" y="0"/>
      <point x="292" y="0" type="qcurve"/>
      <point x="276" y="0"/>
      <point x="245" y="10"/>
      <point x="221" y="31"/>
      <point x="206" y="62"/>
      <point x="206" y="83" type="qcurve"/>
      <point x="206" y="1342" type="line"/>
      <point x="206" y="1384"/>
      <point x="261" y="1426"/>
      <point x="294" y="1426" type="qcurve"/>
      <point x="310" y="1426"/>
      <point x="341" y="1415"/>
      <point x="366" y="1394"/>
      <point x="381" y="1363"/>
      <point x="381" y="1342" type="qcurve"/>
      <point x="381" y="797" type="line"/>
      <point x="983" y="1395" type="line"/>
      <point x="997" y="1412"/>
      <point x="1031" y="1426"/>
      <point x="1048" y="1426" type="qcurve"/>
      <point x="1080" y="1426"/>
      <point x="1128" y="1384"/>
      <point x="1128" y="1353" type="qcurve"/>
      <point x="1128" y="1328"/>
      <point x="1108" y="1302" type="qcurve"/>
      <point x="568" y="779" type="line"/>
      <point x="1164" y="139" type="line"/>
      <point x="1186" y="111"/>
      <point x="1186" y="84" type="qcurve"/>
      <point x="1186" y="67"/>
      <point x="1171" y="36"/>
      <point x="1145" y="13"/>
      <point x="1113" y="0"/>
      <point x="1095" y="0" type="qcurve"/>
      <point x="1077" y="0"/>
      <point x="1041" y="17"/>
      <point x="1026" y="35" type="qcurve"/>
      <point x="381" y="733" type="line"/>
    </contour>
  </outline>
</glyph>
<glyph name="L" format="1">
  <advance width="1150"/>
  <unicode hex="004C"/>
  <outline>
    <contour>
      <point x="285" y="0" type="line"/>
      <point x="267" y="0"/>
      <point x="234" y="13"/>
      <point x="210" y="37"/>
      <point x="195" y="69"/>
      <point x="195" y="87" type="qcurve"/>
      <point x="195" y="1342" type="line"/>
      <point x="195" y="1363"/>
      <point x="210" y="1394"/>
      <point x="236" y="1415"/>
      <point x="268" y="1426"/>
      <point x="285" y="1426" type="qcurve"/>
      <point x="318" y="1426"/>
      <point x="373" y="1384"/>
      <point x="373" y="1342" type="qcurve"/>
      <point x="373" y="146" type="line"/>
      <point x="1020" y="146" type="line"/>
      <point x="1058" y="146"/>
      <point x="1094" y="101"/>
      <point x="1094" y="73" type="qcurve"/>
      <point x="1094" y="46"/>
      <point x="1057" y="0"/>
      <point x="1020" y="0" type="qcurve"/>
    </contour>
  </outline>
</glyph>
<glyph name="M" format="1">
  <advance width="1956"/>
  <unicode hex="004D"/>
  <outline>
    <contour>
      <point x="981" y="230" type="line"/>
      <point x="1454" y="1277" type="line"/>
      <point x="1473" y="1322"/>
      <point x="1508" y="1380"/>
      <point x="1547" y="1413"/>
      <point x="1594" y="1426"/>
      <point x="1625" y="1426" type="qcurve"/>
      <point x="1654" y="1426"/>
      <point x="1705" y="1408"/>
      <point x="1743" y="1370"/>
      <point x="1765" y="1311"/>
      <point x="1765" y="1271" type="qcurve"/>
      <point x="1765" y="79" type="line"/>
      <point x="1765" y="40"/>
      <point x="1713" y="0"/>
      <point x="1682" y="0" type="qcurve"/>
      <point x="1652" y="0"/>
      <point x="1602" y="39"/>
      <point x="1602" y="79" type="qcurve"/>
      <point x="1602" y="1253" type="line"/>
      <point x="1085" y="110" type="line"/>
      <point x="1069" y="72"/>
      <point x="1010" y="33"/>
      <point x="977" y="33" type="qcurve"/>
      <point x="945" y="33"/>
      <point x="889" y="70"/>
      <point x="872" y="110" type="qcurve"/>
      <point x="357" y="1245" type="line"/>
      <point x="357" y="79" type="line"/>
      <point x="357" y="40"/>
      <point x="305" y="0"/>
      <point x="274" y="0" type="qcurve"/>
      <point x="244" y="0"/>
      <point x="194" y="39"/>
      <point x="194" y="79" type="qcurve"/>
      <point x="194" y="1271" type="line"/>
      <point x="194" y="1311"/>
      <point x="216" y="1370"/>
      <point x="254" y="1408"/>
      <point x="305" y="1426"/>
      <point x="334" y="1426" type="qcurve"/>
      <point x="365" y="1426"/>
      <point x="414" y="1413"/>
      <point x="456" y="1379"/>
      <point x="493" y="1320"/>
      <point x="513" y="1275" type="qcurve"/>
      <point x="976" y="230" type="line"/>
    </contour>
  </outline>
</glyph>
<glyph name="N" format="1">
  <advance width="1502"/>
  <unicode hex="004E"/>
  <outline>
    <contour>
      <point x="180" y="1308" type="line" smooth="yes"/>
      <point x="180" y="1383"/>
      <point x="234" y="1426"/>
      <point x="293" y="1426" type="curve" smooth="yes"/>
      <point x="332" y="1426"/>
      <point x="370" y="1408"/>
      <point x="399" y="1368" type="curve"/>
      <point x="1156" y="227" type="line"/>
      <point x="1156" y="1346" type="line" smooth="yes"/>
      <point x="1156" y="1399"/>
      <point x="1197" y="1426"/>
      <point x="1240" y="1426" type="curve" smooth="yes"/>
      <point x="1281" y="1426"/>
      <point x="1323" y="1399"/>
      <point x="1323" y="1346" type="curve" smooth="yes"/>
      <point x="1323" y="118" type="line" smooth="yes"/>
      <point x="1323" y="43"/>
      <point x="1265" y="0"/>
      <point x="1202" y="0" type="curve" smooth="yes"/>
      <point x="1163" y="0"/>
      <point x="1122" y="18"/>
      <point x="1093" y="58" type="curve"/>
      <point x="348" y="1183" type="line"/>
      <point x="348" y="79" type="line" smooth="yes"/>
      <point x="348" y="27"/>
      <point x="305" y="0"/>
      <point x="263" y="0" type="curve" smooth="yes"/>
      <point x="220" y="0"/>
      <point x="180" y="26"/>
      <point x="180" y="79" type="curve" smooth="yes"/>
    </contour>
  </outline>
</glyph>
<glyph name="O" format="1">
  <advance width="1597"/>
  <unicode hex="004F"/>
  <outline>
    <contour>
      <point x="319" y="708" type="qcurve"/>
      <point x="319" y="604"/>
      <point x="373" y="387"/>
      <point x="489" y="222"/>
      <point x="671" y="123"/>
      <point x="799" y="123" type="qcurve"/>
      <point x="926" y="123"/>
      <point x="1108" y="222"/>
      <point x="1225" y="387"/>
      <point x="1279" y="604"/>
      <point x="1279" y="708" type="qcurve"/>
      <point x="1279" y="811"/>
      <point x="1225" y="1028"/>
      <point x="1108" y="1194"/>
      <point x="926" y="1293"/>
      <point x="799" y="1293" type="qcurve"/>
      <point x="671" y="1293"/>
      <point x="489" y="1194"/>
      <point x="373" y="1028"/>
      <point x="319" y="811"/>
    </contour>
    <contour>
      <point x="128" y="708" type="qcurve"/>
      <point x="128" y="861"/>
      <point x="216" y="1135"/>
      <point x="386" y="1331"/>
      <point x="637" y="1438"/>
      <point x="799" y="1438" type="qcurve"/>
      <point x="961" y="1438"/>
      <point x="1211" y="1331"/>
      <point x="1380" y="1135"/>
      <point x="1468" y="861"/>
      <point x="1468" y="708" type="qcurve"/>
      <point x="1468" y="555"/>
      <point x="1380" y="281"/>
      <point x="1211" y="86"/>
      <point x="961" y="-22"/>
      <point x="799" y="-22" type="qcurve"/>
      <point x="637" y="-22"/>
      <point x="386" y="86"/>
      <point x="216" y="281"/>
      <point x="128" y="555"/>
    </contour>
  </outline>
</glyph>
<glyph name="P" format="1">
  <advance width="1278"/>
  <unicode hex="0050"/>
  <outline>
    <contour>
      <point x="373" y="624" type="line"/>
      <point x="373" y="84" type="line"/>
      <point x="373" y="63"/>
      <point x="358" y="31"/>
      <point x="332" y="10"/>
      <point x="300" y="0"/>
      <point x="284" y="0" type="qcurve"/>
      <point x="250" y="0"/>
      <point x="195" y="42"/>
      <point x="195" y="84" type="qcurve"/>
      <point x="195" y="1339" type="line"/>
      <point x="195" y="1357"/>
      <point x="209" y="1389"/>
      <point x="233" y="1412"/>
      <point x="266" y="1426"/>
      <point x="285" y="1426" type="qcurve"/>
      <point x="644" y="1426" type="line"/>
      <point x="715" y="1426"/>
      <point x="854" y="1410"/>
      <point x="980" y="1372"/>
      <point x="1087" y="1310"/>
      <point x="1166" y="1219"/>
      <point x="1211" y="1096"/>
      <point x="1211" y="1026" type="qcurve"/>
      <point x="1211" y="954"/>
      <point x="1166" y="831"/>
      <point x="1086" y="739"/>
      <point x="977" y="678"/>
      <point x="849" y="640"/>
      <point x="708" y="624"/>
      <point x="636" y="624" type="qcurve"/>
    </contour>
    <contour>
      <point x="668" y="764" type="line"/>
      <point x="740" y="764"/>
      <point x="870" y="789"/>
      <point x="968" y="851"/>
      <point x="1025" y="956"/>
      <point x="1025" y="1026" type="qcurve"/>
      <point x="1025" y="1095"/>
      <point x="968" y="1199"/>
      <point x="871" y="1261"/>
      <point x="743" y="1286"/>
      <point x="671" y="1286" type="qcurve"/>
      <point x="373" y="1286" type="line"/>
      <point x="373" y="764" type="line"/>
    </contour>
  </outline>
</glyph>
<glyph name="Q" format="1">
  <advance width="1597"/>
  <unicode hex="0051"/>
  <outline>
    <contour>
      <point x="128" y="702" type="qcurve"/>
      <point x="128" y="861"/>
      <point x="216" y="1135"/>
      <point x="386" y="1331"/>
      <point x="637" y="1438"/>
      <point x="799" y="1438" type="qcurve"/>
      <point x="961" y="1438"/>
      <point x="1210" y="1331"/>
      <point x="1380" y="1136"/>
      <point x="1467" y="863"/>
      <point x="1467" y="704" type="qcurve"/>
      <point x="1467" y="627"/>
      <point x="1432" y="462"/>
      <point x="1369" y="318"/>
      <point x="1278" y="195"/>
      <point x="1223" y="142" type="qcurve"/>
      <point x="1449" y="142" type="line"/>
      <point x="1485" y="142"/>
      <point x="1521" y="98"/>
      <point x="1521" y="72" type="qcurve"/>
      <point x="1521" y="44"/>
      <point x="1485" y="1"/>
      <point x="1449" y="0" type="qcurve"/>
      <point x="979" y="0" type="line"/>
      <point x="927" y="-11"/>
      <point x="844" y="-22"/>
      <point x="799" y="-22" type="qcurve"/>
      <point x="637" y="-22"/>
      <point x="386" y="82"/>
      <point x="216" y="277"/>
      <point x="128" y="551"/>
    </contour>
    <contour>
      <point x="319" y="702" type="qcurve"/>
      <point x="319" y="600"/>
      <point x="373" y="383"/>
      <point x="489" y="218"/>
      <point x="671" y="119"/>
      <point x="799" y="119" type="qcurve"/>
      <point x="926" y="119"/>
      <point x="1108" y="218"/>
      <point x="1225" y="383"/>
      <point x="1279" y="600"/>
      <point x="1279" y="702" type="qcurve"/>
      <point x="1279" y="811"/>
      <point x="1225" y="1028"/>
      <point x="1108" y="1194"/>
      <point x="926" y="1293"/>
      <point x="799" y="1293" type="qcurve"/>
      <point x="671" y="1293"/>
      <point x="489" y="1194"/>
      <point x="373" y="1028"/>
      <point x="319" y="811"/>
    </contour>
  </outline>
</glyph>
<glyph name="R" format="1">
  <advance width="1385"/>
  <unicode hex="0052"/>
  <outline>
    <contour>
      <point x="200" y="1340" type="line" smooth="yes"/>
      <point x="200" y="1387"/>
      <point x="240" y="1426"/>
      <point x="289" y="1426" type="curve" smooth="yes"/>
      <point x="717" y="1426" type="line" smooth="yes"/>
      <point x="962" y="1426"/>
      <point x="1223" y="1357"/>
      <point x="1223" y="1056" type="curve" smooth="yes"/>
      <point x="1223" y="899"/>
      <point x="1118" y="785"/>
      <point x="931" y="744" type="curve"/>
      <point x="931" y="740" type="line"/>
      <point x="1124" y="710"/>
      <point x="1167" y="597"/>
      <point x="1187" y="426" type="curve"/>
      <point x="1198" y="322"/>
      <point x="1206" y="237"/>
      <point x="1211" y="178" type="curve" smooth="yes"/>
      <point x="1218" y="87" type="line"/>
      <point x="1218" y="30"/>
      <point x="1176" y="0"/>
      <point x="1128" y="0" type="curve" smooth="yes"/>
      <point x="1085" y="0"/>
      <point x="1041" y="26"/>
      <point x="1036" y="81" type="curve" smooth="yes"/>
      <point x="988" y="574"/>
      <point x="1016" y="662"/>
      <point x="714" y="662" type="curve" smooth="yes"/>
      <point x="377" y="662" type="line"/>
      <point x="377" y="84" type="line" smooth="yes"/>
      <point x="377" y="27"/>
      <point x="332" y="0"/>
      <point x="288" y="0" type="curve" smooth="yes"/>
      <point x="244" y="0"/>
      <point x="200" y="28"/>
      <point x="200" y="84" type="curve" smooth="yes"/>
    </contour>
    <contour>
      <point x="639" y="801" type="line" smooth="yes"/>
      <point x="819" y="801"/>
      <point x="1038" y="816"/>
      <point x="1038" y="1044" type="curve" smooth="yes"/>
      <point x="1038" y="1269"/>
      <point x="846" y="1286"/>
      <point x="703" y="1286" type="curve" smooth="yes"/>
      <point x="377" y="1286" type="line"/>
      <point x="377" y="801" type="line"/>
    </contour>
  </outline>
</glyph>
<glyph name="S" format="1">
  <advance width="1274"/>
  <unicode hex="0053"/>
  <outline>
    <contour>
      <point x="328" y="1074" type="curve" smooth="yes"/>
      <point x="328" y="899"/>
      <point x="532" y="840"/>
      <point x="736" y="779" type="curve"/>
      <point x="963" y="707"/>
      <point x="1164" y="627"/>
      <point x="1164" y="366" type="curve" smooth="yes"/>
      <point x="1164" y="135"/>
      <point x="940" y="-22"/>
      <point x="629" y="-22" type="curve" smooth="yes"/>
      <point x="410" y="-22"/>
      <point x="239" y="60"/>
      <point x="136" y="166" type="curve" smooth="yes"/>
      <point x="125" y="177"/>
      <point x="121" y="191"/>
      <point x="121" y="206" type="curve" smooth="yes"/>
      <point x="121" y="243"/>
      <point x="154" y="287"/>
      <point x="183" y="287" type="curve" smooth="yes"/>
      <point x="207" y="287"/>
      <point x="232" y="265"/>
      <point x="256" y="248" type="curve" smooth="yes"/>
      <point x="346" y="183"/>
      <point x="459" y="124"/>
      <point x="647" y="124" type="curve" smooth="yes"/>
      <point x="836" y="124"/>
      <point x="979" y="216"/>
      <point x="979" y="355" type="curve" smooth="yes"/>
      <point x="979" y="549"/>
      <point x="776" y="596"/>
      <point x="573" y="661" type="curve" smooth="yes"/>
      <point x="351" y="732"/>
      <point x="145" y="831"/>
      <point x="145" y="1064" type="curve" smooth="yes"/>
      <point x="145" y="1294"/>
      <point x="379" y="1438"/>
      <point x="640" y="1438" type="curve" smooth="yes"/>
      <point x="839" y="1438"/>
      <point x="994" y="1376"/>
      <point x="1115" y="1247" type="curve" smooth="yes"/>
      <point x="1126" y="1235"/>
      <point x="1128" y="1220"/>
      <point x="1128" y="1203" type="curve" smooth="yes"/>
      <point x="1128" y="1173"/>
      <point x="1109" y="1131"/>
      <point x="1060" y="1131" type="curve" smooth="yes"/>
      <point x="1041" y="1131"/>
      <point x="1019" y="1143"/>
      <point x="995" y="1167" type="curve"/>
      <point x="909" y="1231"/>
      <point x="806" y="1289"/>
      <point x="656" y="1289" type="curve" smooth="yes"/>
      <point x="503" y="1289"/>
      <point x="328" y="1215"/>
    </contour>
  </outline>
</glyph>
<glyph name="T" format="1">
  <advance width="1158"/>
  <unicode hex="0054"/>
  <outline>
    <contour>
      <point x="101" y="1280" type="line"/>
      <point x="64" y="1280"/>
      <point x="27" y="1326"/>
      <point x="27" y="1353" type="qcurve"/>
      <point x="27" y="1381"/>
      <point x="64" y="1426"/>
      <point x="101" y="1426" type="qcurve"/>
      <point x="1056" y="1426" type="line"/>
      <point x="1094" y="1426"/>
      <point x="1131" y="1381"/>
      <point x="1131" y="1353" type="qcurve"/>
      <point x="1131" y="1326"/>
      <point x="1093" y="1280"/>
      <point x="1056" y="1280" type="qcurve"/>
      <point x="671" y="1280" type="line"/>
      <point x="671" y="85" type="line"/>
      <point x="671" y="64"/>
      <point x="656" y="32"/>
      <point x="630" y="11"/>
      <point x="598" y="0"/>
      <point x="582" y="0" type="qcurve"/>
      <point x="548" y="0"/>
      <point x="493" y="43"/>
      <point x="493" y="85" type="qcurve"/>
      <point x="493" y="1280" type="line"/>
    </contour>
  </outline>
</glyph>
<glyph name="U" format="1">
  <advance width="1490"/>
  <unicode hex="0055"/>
  <outline>
    <contour>
      <point x="189" y="1341" type="line"/>
      <point x="189" y="1362"/>
      <point x="204" y="1394"/>
      <point x="229" y="1415"/>
      <point x="262" y="1426"/>
      <point x="279" y="1426" type="qcurve"/>
      <point x="312" y="1426"/>
      <point x="367" y="1384"/>
      <point x="367" y="1341" type="qcurve"/>
      <point x="367" y="500" type="line"/>
      <point x="367" y="403"/>
      <point x="432" y="262"/>
      <point x="538" y="169"/>
      <point x="674" y="124"/>
      <point x="745" y="124" type="qcurve"/>
      <point x="816" y="124"/>
      <point x="952" y="169"/>
      <point x="1059" y="262"/>
      <point x="1124" y="403"/>
      <point x="1124" y="500" type="qcurve"/>
      <point x="1124" y="1341" type="line"/>
      <point x="1124" y="1362"/>
      <point x="1139" y="1394"/>
      <point x="1164" y="1415"/>
      <point x="1197" y="1426"/>
      <point x="1214" y="1426" type="qcurve"/>
      <point x="1247" y="1426"/>
      <point x="1302" y="1384"/>
      <point x="1302" y="1341" type="qcurve"/>
      <point x="1302" y="496" type="line"/>
      <point x="1302" y="364"/>
      <point x="1209" y="170"/>
      <point x="1054" y="41"/>
      <point x="853" y="-22"/>
      <point x="745" y="-22" type="qcurve"/>
      <point x="637" y="-22"/>
      <point x="436" y="41"/>
      <point x="282" y="170"/>
      <point x="189" y="364"/>
      <point x="189" y="496" type="qcurve"/>
    </contour>
  </outline>
</glyph>
<glyph name="V" format="1">
  <advance width="1289"/>
  <unicode hex="0056"/>
  <outline>
    <contour>
      <point x="649" y="153" type="line"/>
      <point x="652" y="153" type="line"/>
      <point x="1080" y="1366" type="line"/>
      <point x="1091" y="1395"/>
      <point x="1135" y="1426"/>
      <point x="1161" y="1426" type="qcurve"/>
      <point x="1177" y="1426"/>
      <point x="1207" y="1415"/>
      <point x="1230" y="1395"/>
      <point x="1244" y="1367"/>
      <point x="1244" y="1351" type="qcurve"/>
      <point x="1244" y="1344"/>
      <point x="1242" y="1332"/>
      <point x="1239" y="1324" type="qcurve"/>
      <point x="791" y="107" type="line"/>
      <point x="771" y="47"/>
      <point x="695" y="0"/>
      <point x="644" y="0" type="qcurve"/>
      <point x="597" y="0"/>
      <point x="523" y="45"/>
      <point x="501" y="107" type="qcurve"/>
      <point x="48" y="1318" type="line"/>
      <point x="45" y="1324"/>
      <point x="43" y="1338"/>
      <point x="43" y="1344" type="qcurve"/>
      <point x="43" y="1362"/>
      <point x="59" y="1392"/>
      <point x="85" y="1415"/>
      <point x="118" y="1427"/>
      <point x="135" y="1427" type="qcurve"/>
      <point x="161" y="1427"/>
      <point x="204" y="1398"/>
      <point x="214" y="1370" type="qcurve"/>
    </contour>
  </outline>
</glyph>
<glyph name="W" format="1">
  <advance width="2055"/>
  <unicode hex="0057"/>
  <outline>
    <contour>
      <point x="1024" y="1254" type="line"/>
      <point x="658" y="112" type="line"/>
      <point x="642" y="58"/>
      <point x="554" y="0"/>
      <point x="505" y="0" type="qcurve"/>
      <point x="459" y="0"/>
      <point x="382" y="54"/>
      <point x="366" y="112" type="qcurve"/>
      <point x="43" y="1318" type="line"/>
      <point x="39" y="1329"/>
      <point x="39" y="1341" type="qcurve"/>
      <point x="39" y="1360"/>
      <point x="57" y="1391"/>
      <point x="85" y="1413"/>
      <point x="120" y="1426"/>
      <point x="137" y="1426" type="qcurve"/>
      <point x="161" y="1426"/>
      <point x="199" y="1400"/>
      <point x="207" y="1371" type="qcurve"/>
      <point x="519" y="153" type="line"/>
      <point x="900" y="1322" type="line"/>
      <point x="914" y="1374"/>
      <point x="985" y="1426"/>
      <point x="1026" y="1426" type="qcurve"/>
      <point x="1067" y="1426"/>
      <point x="1139" y="1374"/>
      <point x="1155" y="1322" type="qcurve"/>
      <point x="1551" y="154" type="line"/>
      <point x="1860" y="1366" type="line"/>
      <point x="1868" y="1398"/>
      <point x="1909" y="1426"/>
      <point x="1934" y="1426" type="qcurve"/>
      <point x="1950" y="1426"/>
      <point x="1981" y="1415"/>
      <point x="2006" y="1395"/>
      <point x="2021" y="1367"/>
      <point x="2021" y="1350" type="qcurve"/>
      <point x="2021" y="1345"/>
      <point x="2019" y="1333"/>
      <point x="2017" y="1327" type="qcurve"/>
      <point x="1689" y="113" type="line"/>
      <point x="1681" y="85"/>
      <point x="1652" y="42"/>
      <point x="1614" y="14"/>
      <point x="1569" y="0"/>
      <point x="1545" y="0" type="qcurve"/>
      <point x="1498" y="0"/>
      <point x="1416" y="56"/>
      <point x="1399" y="113" type="qcurve"/>
    </contour>
  </outline>
</glyph>
<glyph name="X" format="1">
  <advance width="1274"/>
  <unicode hex="0058"/>
  <outline>
    <contour>
      <point x="222" y="41" type="line"/>
      <point x="207" y="19"/>
      <point x="170" y="0"/>
      <point x="151" y="0" type="qcurve"/>
      <point x="135" y="0"/>
      <point x="105" y="12"/>
      <point x="82" y="33"/>
      <point x="68" y="61"/>
      <point x="68" y="76" type="qcurve"/>
      <point x="68" y="99"/>
      <point x="84" y="121" type="qcurve"/>
      <point x="529" y="734" type="line"/>
      <point x="114" y="1303" type="line"/>
      <point x="100" y="1321"/>
      <point x="100" y="1343" type="qcurve"/>
      <point x="100" y="1360"/>
      <point x="117" y="1390"/>
      <point x="144" y="1413"/>
      <point x="179" y="1426"/>
      <point x="197" y="1426" type="qcurve"/>
      <point x="218" y="1426"/>
      <point x="257" y="1407"/>
      <point x="272" y="1385" type="qcurve"/>
      <point x="648" y="844" type="line"/>
      <point x="1037" y="1385" type="line"/>
      <point x="1053" y="1407"/>
      <point x="1090" y="1426"/>
      <point x="1110" y="1426" type="qcurve"/>
      <point x="1126" y="1426"/>
      <point x="1155" y="1414"/>
      <point x="1177" y="1395"/>
      <point x="1190" y="1368"/>
      <point x="1190" y="1353" type="qcurve"/>
      <point x="1190" y="1342"/>
      <point x="1183" y="1321"/>
      <point x="1175" y="1310" type="qcurve"/>
      <point x="746" y="734" type="line"/>
      <point x="1186" y="126" type="line"/>
      <point x="1200" y="106"/>
      <point x="1200" y="85" type="qcurve"/>
      <point x="1200" y="68"/>
      <point x="1183" y="37"/>
      <point x="1156" y="14"/>
      <point x="1122" y="0"/>
      <point x="1104" y="0" type="qcurve"/>
      <point x="1062" y="0"/>
      <point x="1033" y="40" type="qcurve"/>
      <point x="628" y="618" type="line"/>
    </contour>
  </outline>
</glyph>
<glyph name="Y" format="1">
  <advance width="1278"/>
  <unicode hex="0059"/>
  <outline>
    <contour>
      <point x="730" y="607" type="line"/>
      <point x="730" y="85" type="line"/>
      <point x="730" y="64"/>
      <point x="715" y="32"/>
      <point x="689" y="11"/>
      <point x="657" y="0"/>
      <point x="640" y="0" type="qcurve"/>
      <point x="606" y="0"/>
      <point x="551" y="43"/>
      <point x="551" y="85" type="qcurve"/>
      <point x="551" y="602" type="line"/>
      <point x="87" y="1307" type="line"/>
      <point x="81" y="1316"/>
      <point x="76" y="1335"/>
      <point x="75" y="1344" type="qcurve"/>
      <point x="75" y="1361"/>
      <point x="92" y="1391"/>
      <point x="121" y="1413"/>
      <point x="156" y="1426"/>
      <point x="174" y="1426" type="qcurve"/>
      <point x="196" y="1426"/>
      <point x="236" y="1405"/>
      <point x="249" y="1382" type="qcurve"/>
      <point x="652" y="746" type="line"/>
      <point x="654" y="746" type="line"/>
      <point x="1058" y="1383" type="line"/>
      <point x="1071" y="1406"/>
      <point x="1109" y="1426"/>
      <point x="1130" y="1426" type="qcurve"/>
      <point x="1145" y="1426"/>
      <point x="1175" y="1416"/>
      <point x="1198" y="1398"/>
      <point x="1212" y="1373"/>
      <point x="1212" y="1358" type="qcurve"/>
      <point x="1211" y="1349"/>
      <point x="1206" y="1330"/>
      <point x="1200" y="1320" type="qcurve"/>
    </contour>
  </outline>
</glyph>
<glyph name="Z" format="1">
  <advance width="1165"/>
  <unicode hex="005A"/>
  <outline>
    <contour>
      <point x="179" y="0" type="line"/>
      <point x="150" y="0"/>
      <point x="110" y="15"/>
      <point x="83" y="40"/>
      <point x="71" y="73"/>
      <point x="71" y="90" type="qcurve"/>
      <point x="71" y="124"/>
      <point x="91" y="153" type="qcurve"/>
      <point x="876" y="1281" type="line"/>
      <point x="152" y="1281" type="line"/>
      <point x="116" y="1281"/>
      <point x="79" y="1326"/>
      <point x="79" y="1354" type="qcurve"/>
      <point x="79" y="1381"/>
      <point x="115" y="1426"/>
      <point x="152" y="1426" type="qcurve"/>
      <point x="1006" y="1426" type="line"/>
      <point x="1048" y="1426"/>
      <point x="1097" y="1379"/>
      <point x="1097" y="1343" type="qcurve"/>
      <point x="1097" y="1327"/>
      <point x="1086" y="1291"/>
      <point x="1073" y="1273" type="qcurve"/>
      <point x="285" y="145" type="line"/>
      <point x="1014" y="145" type="line"/>
      <point x="1051" y="145"/>
      <point x="1088" y="100"/>
      <point x="1088" y="73" type="qcurve"/>
      <point x="1088" y="45"/>
      <point x="1051" y="0"/>
      <point x="1014" y="0" type="qcurve"/>
    </contour>
  </outline>
</glyph>
<glyph name="bracketleft" format="1">
  <advance width="611"/>
  <unicode hex="005B"/>
  <outline>
    <contour>
      <point x="173" y="1346" type="line"/>
      <point x="173" y="1379"/>
      <point x="220" y="1426"/>
      <point x="255" y="1426" type="qcurve"/>
      <point x="438" y="1426" type="line"/>
      <point x="470" y="1426"/>
      <point x="500" y="1388"/>
      <point x="500" y="1365" type="qcurve"/>
      <point x="500" y="1342"/>
      <point x="469" y="1303"/>
      <point x="438" y="1303" type="qcurve"/>
      <point x="336" y="1303" type="line"/>
      <point x="336" y="-76" type="line"/>
      <point x="438" y="-76" type="line"/>
      <point x="470" y="-76"/>
      <point x="501" y="-114"/>
      <point x="501" y="-137" type="qcurve"/>
      <point x="501" y="-160"/>
      <point x="469" y="-200"/>
      <point x="438" y="-200" type="qcurve"/>
      <point x="255" y="-200" type="line"/>
      <point x="220" y="-200"/>
      <point x="173" y="-153"/>
      <point x="173" y="-120" type="qcurve"/>
    </contour>
  </outline>
</glyph>
<glyph name="backslash" format="1">
  <advance width="588"/>
  <unicode hex="005C"/>
  <outline>
    <contour>
      <point x="-15" y="1407" type="line"/>
      <point x="-20" y="1424"/>
      <point x="-20" y="1434" type="qcurve"/>
      <point x="-20" y="1465"/>
      <point x="24" y="1499"/>
      <point x="51" y="1499" type="qcurve"/>
      <point x="72" y="1499"/>
      <point x="112" y="1475"/>
      <point x="120" y="1449" type="qcurve"/>
      <point x="603" y="-14" type="line"/>
      <point x="607" y="-27"/>
      <point x="607" y="-41" type="qcurve"/>
      <point x="607" y="-72"/>
      <point x="565" y="-106"/>
      <point x="539" y="-106" type="qcurve"/>
      <point x="518" y="-106"/>
      <point x="480" y="-82"/>
      <point x="472" y="-56" type="qcurve"/>
    </contour>
  </outline>
</glyph>
<glyph name="bracketright" format="1">
  <advance width="611"/>
  <unicode hex="005D"/>
  <outline>
    <contour>
      <point x="437" y="-120" type="line"/>
      <point x="437" y="-153"/>
      <point x="389" y="-200"/>
      <point x="355" y="-200" type="qcurve"/>
      <point x="171" y="-200" type="line"/>
      <point x="140" y="-200"/>
      <point x="109" y="-160"/>
      <point x="109" y="-137" type="qcurve"/>
      <point x="109" y="-114"/>
      <point x="140" y="-76"/>
      <point x="171" y="-76" type="qcurve"/>
      <point x="274" y="-76" type="line"/>
      <point x="274" y="1303" type="line"/>
      <point x="171" y="1303" type="line"/>
      <point x="140" y="1303"/>
      <point x="109" y="1342"/>
      <point x="109" y="1365" type="qcurve"/>
      <point x="109" y="1388"/>
      <point x="139" y="1426"/>
      <point x="171" y="1426" type="qcurve"/>
      <point x="355" y="1426" type="line"/>
      <point x="389" y="1426"/>
      <point x="437" y="1379"/>
      <point x="437" y="1346" type="qcurve"/>
    </contour>
  </outline>
</glyph>
<glyph name="asciicircum" format="1">
  <advance width="1340"/>
  <unicode hex="005E"/>
  <outline>
    <contour>
      <point x="668" y="1235" type="line"/>
      <point x="319" y="534" type="line"/>
      <point x="309" y="511"/>
      <point x="275" y="492"/>
      <point x="257" y="492" type="qcurve"/>
      <point x="231" y="492"/>
      <point x="187" y="527"/>
      <point x="187" y="556" type="qcurve"/>
      <point x="187" y="569"/>
      <point x="193" y="584" type="qcurve"/>
      <point x="584" y="1340" type="line"/>
      <point x="598" y="1367"/>
      <point x="643" y="1395"/>
      <point x="668" y="1395" type="qcurve"/>
      <point x="694" y="1395"/>
      <point x="739" y="1367"/>
      <point x="753" y="1340" type="qcurve"/>
      <point x="1142" y="584" type="line"/>
      <point x="1148" y="569"/>
      <point x="1148" y="557" type="qcurve"/>
      <point x="1148" y="543"/>
      <point x="1136" y="519"/>
      <point x="1116" y="502"/>
      <point x="1090" y="492"/>
      <point x="1077" y="492" type="qcurve"/>
      <point x="1058" y="492"/>
      <point x="1026" y="512"/>
      <point x="1015" y="534" type="qcurve"/>
    </contour>
  </outline>
</glyph>
<glyph name="underscore" format="1">
  <advance width="1024"/>
  <unicode hex="005F"/>
  <outline>
    <contour>
      <point x="55" y="-254" type="line"/>
      <point x="27" y="-254"/>
      <point x="-1" y="-217"/>
      <point x="-1" y="-195" type="qcurve"/>
      <point x="-1" y="-172"/>
      <point x="27" y="-135"/>
      <point x="55" y="-135" type="qcurve"/>
      <point x="965" y="-135" type="line"/>
      <point x="994" y="-135"/>
      <point x="1023" y="-172"/>
      <point x="1023" y="-195" type="qcurve"/>
      <point x="1023" y="-217"/>
      <point x="994" y="-254"/>
      <point x="965" y="-254" type="qcurve"/>
    </contour>
  </outline>
</glyph>
<glyph name="grave" format="1">
  <advance width="569"/>
  <unicode hex="0060"/>
  <outline>
    <contour>
      <point x="82" y="1367" type="line"/>
      <point x="70" y="1376"/>
      <point x="60" y="1399"/>
      <point x="59" y="1411" type="qcurve"/>
      <point x="59" y="1427"/>
      <point x="75" y="1458"/>
      <point x="100" y="1483"/>
      <point x="133" y="1499"/>
      <point x="150" y="1499" type="qcurve"/>
      <point x="164" y="1499"/>
      <point x="189" y="1488"/>
      <point x="201" y="1474" type="qcurve"/>
      <point x="470" y="1173" type="line"/>
      <point x="477" y="1165"/>
      <point x="482" y="1149"/>
      <point x="482" y="1141" type="qcurve"/>
      <point x="482" y="1125"/>
      <point x="462" y="1103"/>
      <point x="445" y="1103" type="qcurve"/>
      <point x="425" y="1103"/>
      <point x="404" y="1120" type="qcurve"/>
    </contour>
  </outline>
</glyph>
<glyph name="a" format="1">
  <advance width="1043"/>
  <unicode hex="0061"/>
  <outline>
    <contour>
      <point x="423" y="-20" type="curve" smooth="yes"/>
      <point x="583" y="-20"/>
      <point x="682" y="42"/>
      <point x="740" y="176" type="curve"/>
      <point x="740" y="68" type="line" smooth="yes"/>
      <point x="740" y="21"/>
      <point x="781" y="0"/>
      <point x="818" y="0" type="curve" smooth="yes"/>
      <point x="857" y="0"/>
      <point x="900" y="24"/>
      <point x="900" y="71" type="curve" smooth="yes"/>
      <point x="900" y="673" type="line" smooth="yes"/>
      <point x="900" y="912"/>
      <point x="747" y="1013"/>
      <point x="516" y="1013" type="curve" smooth="yes"/>
      <point x="359" y="1013"/>
      <point x="230" y="971"/>
      <point x="143" y="904" type="curve" smooth="yes"/>
      <point x="130" y="894"/>
      <point x="128" y="883"/>
      <point x="128" y="868" type="curve" smooth="yes"/>
      <point x="128" y="837"/>
      <point x="154" y="801"/>
      <point x="187" y="801" type="curve" smooth="yes"/>
      <point x="199" y="801"/>
      <point x="211" y="804"/>
      <point x="222" y="811" type="curve" smooth="yes"/>
      <point x="301" y="858"/>
      <point x="376" y="891"/>
      <point x="512" y="891" type="curve" smooth="yes"/>
      <point x="648" y="891"/>
      <point x="740" y="841"/>
      <point x="740" y="688" type="curve" smooth="yes"/>
      <point x="740" y="594" type="line"/>
      <point x="740" y="594"/>
      <point x="637" y="594"/>
      <point x="619" y="594" type="curve" smooth="yes"/>
      <point x="288" y="594"/>
      <point x="70" y="520"/>
      <point x="70" y="276" type="curve" smooth="yes"/>
      <point x="70" y="86"/>
      <point x="219" y="-20"/>
    </contour>
    <contour>
      <point x="447" y="90" type="curve"/>
      <point x="327" y="90"/>
      <point x="228" y="147"/>
      <point x="228" y="280" type="curve" smooth="yes"/>
      <point x="228" y="500"/>
      <point x="502" y="494"/>
      <point x="704" y="494" type="curve" smooth="yes"/>
      <point x="716" y="494"/>
      <point x="727" y="494"/>
      <point x="738" y="494" type="curve"/>
      <point x="738" y="443" type="line"/>
      <point x="738" y="229"/>
      <point x="622" y="90"/>
    </contour>
  </outline>
</glyph>
<glyph name="b" format="1">
  <advance width="1157"/>
  <unicode hex="0062"/>
  <outline>
    <contour>
      <point x="643" y="-22" type="curve" smooth="yes"/>
      <point x="934" y="-22"/>
      <point x="1071" y="243"/>
      <point x="1071" y="500" type="curve" smooth="yes"/>
      <point x="1071" y="768"/>
      <point x="944" y="1013"/>
      <point x="651" y="1013" type="curve" smooth="yes"/>
      <point x="507" y="1013"/>
      <point x="367" y="949"/>
      <point x="298" y="815" type="curve"/>
      <point x="298" y="1352" type="line" smooth="yes"/>
      <point x="298" y="1401"/>
      <point x="259" y="1425"/>
      <point x="219" y="1425" type="curve" smooth="yes"/>
      <point x="179" y="1425"/>
      <point x="138" y="1400"/>
      <point x="138" y="1352" type="curve" smooth="yes"/>
      <point x="138" y="75" type="line" smooth="yes"/>
      <point x="138" y="24"/>
      <point x="175" y="0"/>
      <point x="214" y="0" type="curve" smooth="yes"/>
      <point x="251" y="0"/>
      <point x="289" y="24"/>
      <point x="292" y="71" type="curve"/>
      <point x="292" y="188" type="line"/>
      <point x="360" y="48"/>
      <point x="494" y="-22"/>
    </contour>
    <contour>
      <point x="610" y="90" type="curve" smooth="yes"/>
      <point x="374" y="90"/>
      <point x="298" y="288"/>
      <point x="298" y="514" type="curve" smooth="yes"/>
      <point x="298" y="713"/>
      <point x="387" y="903"/>
      <point x="614" y="903" type="curve" smooth="yes"/>
      <point x="834" y="903"/>
      <point x="911" y="697"/>
      <point x="911" y="508" type="curve" smooth="yes"/>
      <point x="911" y="314"/>
      <point x="833" y="90"/>
    </contour>
  </outline>
</glyph>
<glyph name="c" format="1">
  <advance width="971"/>
  <unicode hex="0063"/>
  <outline>
    <contour>
      <point x="90" y="496" type="curve" smooth="yes"/>
      <point x="90" y="775"/>
      <point x="262" y="1013"/>
      <point x="563" y="1013" type="curve" smooth="yes"/>
      <point x="689" y="1013"/>
      <point x="866" y="963"/>
      <point x="866" y="883" type="curve" smooth="yes"/>
      <point x="866" y="852"/>
      <point x="845" y="824"/>
      <point x="810" y="824" type="curve" smooth="yes"/>
      <point x="802" y="824"/>
      <point x="793" y="826"/>
      <point x="783" y="830" type="curve"/>
      <point x="716" y="869"/>
      <point x="648" y="888"/>
      <point x="577" y="888" type="curve" smooth="yes"/>
      <point x="384" y="888"/>
      <point x="259" y="735"/>
      <point x="259" y="491" type="curve" smooth="yes"/>
      <point x="259" y="303"/>
      <point x="339" y="102"/>
      <point x="576" y="102" type="curve" smooth="yes"/>
      <point x="649" y="102"/>
      <point x="721" y="126"/>
      <point x="802" y="167" type="curve"/>
      <point x="812" y="171"/>
      <point x="821" y="173"/>
      <point x="830" y="173" type="curve" smooth="yes"/>
      <point x="862" y="173"/>
      <point x="883" y="147"/>
      <point x="883" y="116" type="curve" smooth="yes"/>
      <point x="883" y="35"/>
      <point x="686" y="-22"/>
      <point x="554" y="-22" type="curve" smooth="yes"/>
      <point x="251" y="-22"/>
      <point x="90" y="214"/>
    </contour>
  </outline>
</glyph>
<glyph name="d" format="1">
  <advance width="1162"/>
  <unicode hex="0064"/>
  <outline>
    <contour>
      <point x="1024" y="75" type="line" smooth="yes"/>
      <point x="1024" y="24"/>
      <point x="985" y="0"/>
      <point x="945" y="0" type="curve" smooth="yes"/>
      <point x="905" y="0"/>
      <point x="867" y="25"/>
      <point x="864" y="73" type="curve"/>
      <point x="864" y="118" type="line" smooth="yes"/>
      <point x="864" y="130"/>
      <point x="864" y="141"/>
      <point x="863" y="150" type="curve"/>
      <point x="863" y="165" type="line"/>
      <point x="771" y="32"/>
      <point x="653" y="-22"/>
      <point x="505" y="-22" type="curve" smooth="yes"/>
      <point x="214" y="-22"/>
      <point x="91" y="242"/>
      <point x="91" y="500" type="curve" smooth="yes"/>
      <point x="91" y="768"/>
      <point x="215" y="1013"/>
      <point x="511" y="1013" type="curve" smooth="yes"/>
      <point x="647" y="1013"/>
      <point x="792" y="956"/>
      <point x="864" y="831" type="curve"/>
      <point x="864" y="1352" type="line" smooth="yes"/>
      <point x="864" y="1401"/>
      <point x="903" y="1425"/>
      <point x="943" y="1425" type="curve" smooth="yes"/>
      <point x="983" y="1425"/>
      <point x="1024" y="1400"/>
      <point x="1024" y="1352" type="curve" smooth="yes"/>
    </contour>
    <contour>
      <point x="554" y="889" type="curve" smooth="yes"/>
      <point x="334" y="889"/>
      <point x="260" y="694"/>
      <point x="260" y="508" type="curve" smooth="yes"/>
      <point x="260" y="328"/>
      <point x="315" y="102"/>
      <point x="538" y="102" type="curve" smooth="yes"/>
      <point x="789" y="102"/>
      <point x="860" y="290"/>
      <point x="860" y="514" type="curve" smooth="yes"/>
      <point x="860" y="711"/>
      <point x="781" y="889"/>
    </contour>
  </outline>
</glyph>
<glyph name="e" format="1">
  <advance width="1132"/>
  <unicode hex="0065"/>
  <outline>
    <contour>
      <point x="584" y="-22" type="curve" smooth="yes"/>
      <point x="712" y="-22"/>
      <point x="855" y="18"/>
      <point x="964" y="122" type="curve" smooth="yes"/>
      <point x="980" y="137"/>
      <point x="986" y="154"/>
      <point x="986" y="169" type="curve" smooth="yes"/>
      <point x="986" y="197"/>
      <point x="966" y="220"/>
      <point x="935" y="220" type="curve" smooth="yes"/>
      <point x="923" y="220"/>
      <point x="909" y="216"/>
      <point x="894" y="206" type="curve" smooth="yes"/>
      <point x="795" y="138"/>
      <point x="693" y="102"/>
      <point x="597" y="102" type="curve"/>
      <point x="418" y="105"/>
      <point x="262" y="216"/>
      <point x="262" y="468" type="curve"/>
      <point x="977" y="468" type="line" smooth="yes"/>
      <point x="1024" y="468"/>
      <point x="1041" y="495"/>
      <point x="1041" y="526" type="curve"/>
      <point x="1033" y="805"/>
      <point x="893" y="1013"/>
      <point x="568" y="1013" type="curve" smooth="yes"/>
      <point x="259" y="1013"/>
      <point x="94" y="771"/>
      <point x="94" y="496" type="curve" smooth="yes"/>
      <point x="94" y="174"/>
      <point x="314" y="-22"/>
    </contour>
    <contour>
      <point x="266" y="574" type="line"/>
      <point x="279" y="745"/>
      <point x="396" y="889"/>
      <point x="570" y="889" type="curve" smooth="yes"/>
      <point x="770" y="889"/>
      <point x="871" y="761"/>
      <point x="884" y="574" type="curve"/>
    </contour>
  </outline>
</glyph>
<glyph name="f" format="1">
  <advance width="696"/>
  <unicode hex="0066"/>
  <outline>
    <contour>
      <point x="402" y="874" type="line"/>
      <point x="402" y="79" type="line" smooth="yes"/>
      <point x="402" y="27"/>
      <point x="362" y="0"/>
      <point x="321" y="0" type="curve" smooth="yes"/>
      <point x="282" y="0"/>
      <point x="242" y="26"/>
      <point x="242" y="79" type="curve" smooth="yes"/>
      <point x="242" y="874" type="line"/>
      <point x="107" y="874" type="line" smooth="yes"/>
      <point x="64" y="874"/>
      <point x="43" y="904"/>
      <point x="43" y="933" type="curve" smooth="yes"/>
      <point x="43" y="962"/>
      <point x="64" y="991"/>
      <point x="107" y="991" type="curve" smooth="yes"/>
      <point x="242" y="991" type="line"/>
      <point x="242" y="1102" type="line" smooth="yes"/>
      <point x="242" y="1361"/>
      <point x="339" y="1449"/>
      <point x="492" y="1449" type="curve" smooth="yes"/>
      <point x="543" y="1449"/>
      <point x="598" y="1439"/>
      <point x="653" y="1424" type="curve" smooth="yes"/>
      <point x="681" y="1416"/>
      <point x="693" y="1393"/>
      <point x="693" y="1370" type="curve" smooth="yes"/>
      <point x="693" y="1341"/>
      <point x="674" y="1312"/>
      <point x="639" y="1312" type="curve" smooth="yes"/>
      <point x="594" y="1312"/>
      <point x="570" y="1324"/>
      <point x="529" y="1324" type="curve" smooth="yes"/>
      <point x="417" y="1324"/>
      <point x="402" y="1255"/>
      <point x="402" y="1023" type="curve" smooth="yes"/>
      <point x="402" y="991" type="line"/>
      <point x="574" y="991" type="line" smooth="yes"/>
      <point x="617" y="991"/>
      <point x="638" y="962"/>
      <point x="638" y="933" type="curve" smooth="yes"/>
      <point x="638" y="902"/>
      <point x="617" y="874"/>
      <point x="574" y="874" type="curve" smooth="yes"/>
    </contour>
  </outline>
</glyph>
<glyph name="g" format="1">
  <advance width="1162"/>
  <unicode hex="0067"/>
  <outline>
    <contour>
      <point x="866" y="493" type="qcurve"/>
      <point x="866" y="566"/>
      <point x="835" y="708"/>
      <point x="762" y="820"/>
      <point x="642" y="888"/>
      <point x="554" y="888" type="qcurve"/>
      <point x="471" y="888"/>
      <point x="358" y="829"/>
      <point x="290" y="725"/>
      <point x="261" y="581"/>
      <point x="261" y="497" type="qcurve"/>
      <point x="261" y="396"/>
      <point x="310" y="254"/>
      <point x="392" y="161"/>
      <point x="499" y="115"/>
      <point x="556" y="115" type="qcurve"/>
      <point x="615" y="115"/>
      <point x="727" y="163"/>
      <point x="814" y="258"/>
      <point x="866" y="402"/>
    </contour>
    <contour>
      <point x="867" y="195" type="line"/>
      <point x="839" y="141"/>
      <point x="763" y="69"/>
      <point x="675" y="23"/>
      <point x="577" y="0"/>
      <point x="528" y="0" type="qcurve"/>
      <point x="412" y="0"/>
      <point x="246" y="81"/>
      <point x="139" y="216"/>
      <point x="88" y="391"/>
      <point x="88" y="491" type="qcurve"/>
      <point x="88" y="597"/>
      <point x="139" y="787"/>
      <point x="244" y="929"/>
      <point x="404" y="1013"/>
      <point x="513" y="1013" type="qcurve"/>
      <point x="569" y="1013"/>
      <point x="672" y="993"/>
      <point x="763" y="946"/>
      <point x="842" y="870"/>
      <point x="873" y="815" type="qcurve"/>
      <point x="873" y="924" type="line"/>
      <point x="875" y="957"/>
      <point x="921" y="991"/>
      <point x="948" y="991" type="qcurve"/>
      <point x="977" y="991"/>
      <point x="1023" y="954"/>
      <point x="1023" y="917" type="qcurve"/>
      <point x="1023" y="-21" type="line"/>
      <point x="1023" y="-126"/>
      <point x="956" y="-277"/>
      <point x="833" y="-374"/>
      <point x="660" y="-419"/>
      <point x="553" y="-419" type="qcurve"/>
      <point x="485" y="-419"/>
      <point x="376" y="-403"/>
      <point x="290" y="-372"/>
      <point x="223" y="-328"/>
      <point x="196" y="-299" type="qcurve"/>
      <point x="176" y="-279"/>
      <point x="176" y="-255" type="qcurve"/>
      <point x="176" y="-232"/>
      <point x="211" y="-197"/>
      <point x="237" y="-197" type="qcurve"/>
      <point x="253" y="-197"/>
      <point x="271" y="-206" type="qcurve"/>
      <point x="299" y="-222"/>
      <point x="355" y="-251"/>
      <point x="420" y="-274"/>
      <point x="497" y="-287"/>
      <point x="546" y="-287" type="qcurve"/>
      <point x="618" y="-287"/>
      <point x="736" y="-262"/>
      <point x="821" y="-203"/>
      <point x="867" y="-106"/>
      <point x="867" y="-33" type="qcurve"/>
    </contour>
  </outline>
</glyph>
<glyph name="h" format="1">
  <advance width="1158"/>
  <unicode hex="0068"/>
  <outline>
    <contour>
      <point x="843" y="645" type="line"/>
      <point x="843" y="707"/>
      <point x="805" y="801"/>
      <point x="741" y="861"/>
      <point x="659" y="889"/>
      <point x="614" y="889" type="qcurve"/>
      <point x="552" y="889"/>
      <point x="444" y="851"/>
      <point x="362" y="773"/>
      <point x="315" y="657"/>
      <point x="315" y="575" type="qcurve"/>
      <point x="315" y="76" type="line"/>
      <point x="315" y="38"/>
      <point x="264" y="0"/>
      <point x="234" y="0" type="qcurve"/>
      <point x="204" y="0"/>
      <point x="155" y="38"/>
      <point x="155" y="76" type="qcurve"/>
      <point x="155" y="1352" type="line"/>
      <point x="155" y="1388"/>
      <point x="206" y="1425"/>
      <point x="236" y="1425" type="qcurve"/>
      <point x="266" y="1425"/>
      <point x="315" y="1389"/>
      <point x="315" y="1352" type="qcurve"/>
      <point x="315" y="825" type="line"/>
      <point x="335" y="871"/>
      <point x="405" y="941"/>
      <point x="494" y="989"/>
      <point x="596" y="1013"/>
      <point x="648" y="1013" type="qcurve"/>
      <point x="720" y="1013"/>
      <point x="848" y="971"/>
      <point x="946" y="880"/>
      <point x="1003" y="736"/>
      <point x="1003" y="633" type="qcurve"/>
      <point x="1003" y="76" type="line"/>
      <point x="1003" y="38"/>
      <point x="952" y="0"/>
      <point x="922" y="0" type="qcurve"/>
      <point x="892" y="0"/>
      <point x="843" y="38"/>
      <point x="843" y="76" type="qcurve"/>
    </contour>
  </outline>
</glyph>
<glyph name="i" format="1">
  <advance width="474"/>
  <unicode hex="0069"/>
  <outline>
    <contour>
      <point x="345" y="1336" type="qcurve"/>
      <point x="345" y="1299"/>
      <point x="288" y="1244"/>
      <point x="236" y="1244" type="qcurve"/>
      <point x="185" y="1244"/>
      <point x="128" y="1299"/>
      <point x="128" y="1336" type="qcurve"/>
      <point x="128" y="1373"/>
      <point x="185" y="1428"/>
      <point x="237" y="1428" type="qcurve"/>
      <point x="288" y="1428"/>
      <point x="345" y="1373"/>
    </contour>
    <contour>
      <point x="157" y="911" type="line"/>
      <point x="157" y="951"/>
      <point x="208" y="991"/>
      <point x="238" y="991" type="qcurve"/>
      <point x="253" y="991"/>
      <point x="281" y="981"/>
      <point x="303" y="961"/>
      <point x="317" y="931"/>
      <point x="317" y="911" type="qcurve"/>
      <point x="317" y="81" type="line"/>
      <point x="317" y="41"/>
      <point x="265" y="0"/>
      <point x="235" y="0" type="qcurve"/>
      <point x="205" y="0"/>
      <point x="157" y="39"/>
      <point x="157" y="81" type="qcurve"/>
    </contour>
  </outline>
</glyph>
<glyph name="j" format="1">
  <advance width="476"/>
  <unicode hex="006A"/>
  <outline>
    <contour>
      <point x="320" y="-33" type="line"/>
      <point x="320" y="-126"/>
      <point x="306" y="-256"/>
      <point x="252" y="-337"/>
      <point x="145" y="-373"/>
      <point x="52" y="-373" type="qcurve"/>
      <point x="45" y="-373"/>
      <point x="26" y="-371"/>
      <point x="8" y="-366"/>
      <point x="-4" y="-361"/>
      <point x="-4" y="-358" type="qcurve"/>
      <point x="-26" y="-356"/>
      <point x="-47" y="-325"/>
      <point x="-47" y="-307" type="qcurve"/>
      <point x="-47" y="-287"/>
      <point x="-20" y="-251"/>
      <point x="7" y="-251" type="qcurve"/>
      <point x="59" y="-251"/>
      <point x="120" y="-241"/>
      <point x="151" y="-205"/>
      <point x="159" y="-134"/>
      <point x="159" y="-72" type="qcurve"/>
      <point x="159" y="911" type="line"/>
      <point x="159" y="951"/>
      <point x="210" y="991"/>
      <point x="241" y="991" type="qcurve"/>
      <point x="256" y="991"/>
      <point x="284" y="981"/>
      <point x="306" y="961"/>
      <point x="320" y="931"/>
      <point x="320" y="911" type="qcurve"/>
    </contour>
    <contour>
      <point x="348" y="1336" type="qcurve"/>
      <point x="348" y="1299"/>
      <point x="290" y="1244"/>
      <point x="239" y="1244" type="qcurve"/>
      <point x="188" y="1244"/>
      <point x="131" y="1299"/>
      <point x="131" y="1336" type="qcurve"/>
      <point x="131" y="1373"/>
      <point x="188" y="1428"/>
      <point x="239" y="1428" type="qcurve"/>
      <point x="290" y="1428"/>
      <point x="348" y="1373"/>
    </contour>
  </outline>
</glyph>
<glyph name="k" format="1">
  <advance width="992"/>
  <unicode hex="006B"/>
  <outline>
    <contour>
      <point x="326" y="534" type="line"/>
      <point x="326" y="81" type="line" smooth="yes"/>
      <point x="326" y="28"/>
      <point x="285" y="0"/>
      <point x="244" y="0" type="curve" smooth="yes"/>
      <point x="205" y="0"/>
      <point x="166" y="25"/>
      <point x="166" y="81" type="curve" smooth="yes"/>
      <point x="166" y="1345" type="line" smooth="yes"/>
      <point x="166" y="1398"/>
      <point x="207" y="1425"/>
      <point x="247" y="1425" type="curve" smooth="yes"/>
      <point x="286" y="1425"/>
      <point x="326" y="1398"/>
      <point x="326" y="1345" type="curve" smooth="yes"/>
      <point x="326" y="589" type="line"/>
      <point x="778" y="968" type="line"/>
      <point x="793" y="983"/>
      <point x="810" y="991"/>
      <point x="829" y="991" type="curve" smooth="yes"/>
      <point x="866" y="991"/>
      <point x="899" y="962"/>
      <point x="899" y="927" type="curve" smooth="yes"/>
      <point x="899" y="912"/>
      <point x="893" y="896"/>
      <point x="878" y="883" type="curve" smooth="yes"/>
      <point x="493" y="562" type="line"/>
      <point x="929" y="112" type="line" smooth="yes"/>
      <point x="941" y="99"/>
      <point x="945" y="84"/>
      <point x="945" y="71" type="curve" smooth="yes"/>
      <point x="945" y="33"/>
      <point x="906" y="0"/>
      <point x="868" y="0" type="curve" smooth="yes"/>
      <point x="851" y="0"/>
      <point x="833" y="9"/>
      <point x="816" y="26" type="curve" smooth="yes"/>
    </contour>
  </outline>
</glyph>
<glyph name="l" format="1">
  <advance width="474"/>
  <unicode hex="006C"/>
  <outline>
    <contour>
      <point x="157" y="1345" type="line"/>
      <point x="157" y="1385"/>
      <point x="208" y="1425"/>
      <point x="238" y="1425" type="qcurve"/>
      <point x="253" y="1425"/>
      <point x="281" y="1415"/>
      <point x="303" y="1395"/>
      <point x="317" y="1365"/>
      <point x="317" y="1345" type="qcurve"/>
      <point x="317" y="81" type="line"/>
      <point x="317" y="41"/>
      <point x="265" y="0"/>
      <point x="235" y="0" type="qcurve"/>
      <point x="205" y="0"/>
      <point x="157" y="39"/>
      <point x="157" y="81" type="qcurve"/>
    </contour>
  </outline>
</glyph>
<glyph name="m" format="1">
  <advance width="1840"/>
  <unicode hex="006D"/>
  <outline>
    <contour>
      <point x="233" y="0" type="curve" smooth="yes"/>
      <point x="274" y="0"/>
      <point x="315" y="24"/>
      <point x="315" y="75" type="curve" smooth="yes"/>
      <point x="315" y="576" type="line" smooth="yes"/>
      <point x="315" y="789"/>
      <point x="449" y="889"/>
      <point x="613" y="889" type="curve" smooth="yes"/>
      <point x="731" y="889"/>
      <point x="841" y="816"/>
      <point x="841" y="642" type="curve" smooth="yes"/>
      <point x="841" y="76" type="line" smooth="yes"/>
      <point x="841" y="25"/>
      <point x="880" y="0"/>
      <point x="920" y="0" type="curve" smooth="yes"/>
      <point x="960" y="0"/>
      <point x="1001" y="25"/>
      <point x="1001" y="76" type="curve" smooth="yes"/>
      <point x="1001" y="579" type="line" smooth="yes"/>
      <point x="1001" y="809"/>
      <point x="1152" y="889"/>
      <point x="1300" y="889" type="curve" smooth="yes"/>
      <point x="1418" y="889"/>
      <point x="1528" y="816"/>
      <point x="1528" y="642" type="curve" smooth="yes"/>
      <point x="1528" y="75" type="line" smooth="yes"/>
      <point x="1528" y="24"/>
      <point x="1567" y="0"/>
      <point x="1607" y="0" type="curve" smooth="yes"/>
      <point x="1647" y="0"/>
      <point x="1688" y="24"/>
      <point x="1688" y="75" type="curve" smooth="yes"/>
      <point x="1688" y="633" type="line" smooth="yes"/>
      <point x="1688" y="906"/>
      <point x="1524" y="1013"/>
      <point x="1335" y="1013" type="curve" smooth="yes"/>
      <point x="1205" y="1013"/>
      <point x="1073" y="969"/>
      <point x="975" y="802" type="curve"/>
      <point x="922" y="954"/>
      <point x="791" y="1013"/>
      <point x="647" y="1013" type="curve" smooth="yes"/>
      <point x="508" y="1013"/>
      <point x="368" y="949"/>
      <point x="315" y="826" type="curve"/>
      <point x="315" y="921" type="line" smooth="yes"/>
      <point x="315" y="968"/>
      <point x="273" y="991"/>
      <point x="235" y="991" type="curve" smooth="yes"/>
      <point x="195" y="991"/>
      <point x="154" y="966"/>
      <point x="154" y="918" type="curve" smooth="yes"/>
      <point x="154" y="75" type="line" smooth="yes"/>
      <point x="154" y="24"/>
      <point x="193" y="0"/>
    </contour>
  </outline>
</glyph>
<glyph name="n" format="1">
  <advance width="1158"/>
  <unicode hex="006E"/>
  <outline>
    <contour>
      <point x="155" y="917" type="line"/>
      <point x="155" y="953"/>
      <point x="206" y="990"/>
      <point x="236" y="990" type="qcurve"/>
      <point x="290" y="990"/>
      <point x="323" y="910"/>
      <point x="315" y="826" type="qcurve"/>
      <point x="335" y="871"/>
      <point x="405" y="936"/>
      <point x="494" y="986"/>
      <point x="596" y="1013"/>
      <point x="648" y="1013" type="qcurve"/>
      <point x="720" y="1013"/>
      <point x="848" y="969"/>
      <point x="946" y="875"/>
      <point x="1003" y="729"/>
      <point x="1003" y="626" type="qcurve"/>
      <point x="1003" y="76" type="line"/>
      <point x="1003" y="38"/>
      <point x="952" y="0"/>
      <point x="922" y="0" type="qcurve"/>
      <point x="892" y="0"/>
      <point x="843" y="38"/>
      <point x="843" y="76" type="qcurve"/>
      <point x="843" y="639" type="line"/>
      <point x="843" y="704"/>
      <point x="805" y="796"/>
      <point x="741" y="859"/>
      <point x="659" y="889"/>
      <point x="614" y="889" type="qcurve"/>
      <point x="552" y="889"/>
      <point x="444" y="849"/>
      <point x="362" y="777"/>
      <point x="315" y="657"/>
      <point x="315" y="576" type="qcurve"/>
      <point x="315" y="76" type="line"/>
      <point x="315" y="38"/>
      <point x="264" y="0"/>
      <point x="234" y="0" type="qcurve"/>
      <point x="204" y="0"/>
      <point x="155" y="38"/>
      <point x="155" y="76" type="qcurve"/>
    </contour>
  </outline>
</glyph>
<glyph name="o" format="1">
  <advance width="1162"/>
  <unicode hex="006F"/>
  <outline>
    <contour>
      <point x="86" y="496" type="curve" smooth="yes"/>
      <point x="86" y="746"/>
      <point x="241" y="1013"/>
      <point x="580" y="1013" type="curve" smooth="yes"/>
      <point x="911" y="1013"/>
      <point x="1075" y="759"/>
      <point x="1075" y="496" type="curve" smooth="yes"/>
      <point x="1075" y="245"/>
      <point x="921" y="-22"/>
      <point x="580" y="-22" type="curve" smooth="yes"/>
      <point x="239" y="-22"/>
      <point x="86" y="245"/>
    </contour>
    <contour>
      <point x="257" y="496" type="curve" smooth="yes"/>
      <point x="257" y="324"/>
      <point x="346" y="102"/>
      <point x="580" y="102" type="curve" smooth="yes"/>
      <point x="815" y="102"/>
      <point x="903" y="325"/>
      <point x="903" y="496" type="curve" smooth="yes"/>
      <point x="903" y="666"/>
      <point x="814" y="889"/>
      <point x="580" y="889" type="curve" smooth="yes"/>
      <point x="348" y="889"/>
      <point x="257" y="667"/>
    </contour>
  </outline>
</glyph>
<glyph name="p" format="1">
  <advance width="1162"/>
  <unicode hex="0070"/>
  <outline>
    <contour>
      <point x="298" y="825" type="qcurve"/>
      <point x="325" y="873"/>
      <point x="402" y="944"/>
      <point x="495" y="991"/>
      <point x="601" y="1013"/>
      <point x="657" y="1013" type="qcurve"/>
      <point x="766" y="1013"/>
      <point x="923" y="924"/>
      <point x="1023" y="778"/>
      <point x="1071" y="590"/>
      <point x="1071" y="491" type="qcurve"/>
      <point x="1071" y="391"/>
      <point x="1021" y="205"/>
      <point x="918" y="63"/>
      <point x="759" y="-22"/>
      <point x="651" y="-22" type="qcurve"/>
      <point x="600" y="-22"/>
      <point x="498" y="1"/>
      <point x="406" y="47"/>
      <point x="327" y="118"/>
      <point x="298" y="164" type="qcurve"/>
      <point x="298" y="-305" type="line"/>
      <point x="298" y="-342"/>
      <point x="248" y="-379"/>
      <point x="218" y="-379" type="qcurve"/>
      <point x="188" y="-379"/>
      <point x="138" y="-342"/>
      <point x="138" y="-305" type="qcurve"/>
      <point x="138" y="917" type="line"/>
      <point x="138" y="954"/>
      <point x="187" y="990"/>
      <point x="217" y="990" type="qcurve"/>
      <point x="271" y="990"/>
      <point x="306" y="909"/>
    </contour>
    <contour>
      <point x="299" y="492" type="qcurve"/>
      <point x="299" y="416"/>
      <point x="334" y="277"/>
      <point x="409" y="168"/>
      <point x="529" y="102"/>
      <point x="613" y="102" type="qcurve"/>
      <point x="669" y="102"/>
      <point x="756" y="134"/>
      <point x="820" y="191"/>
      <point x="863" y="267"/>
      <point x="890" y="355"/>
      <point x="901" y="458"/>
      <point x="901" y="497" type="qcurve"/>
      <point x="901" y="564"/>
      <point x="875" y="703"/>
      <point x="810" y="816"/>
      <point x="700" y="888"/>
      <point x="616" y="889" type="qcurve"/>
      <point x="522" y="889"/>
      <point x="400" y="827"/>
      <point x="328" y="720"/>
      <point x="299" y="576"/>
    </contour>
  </outline>
</glyph>
<glyph name="q" format="1">
  <advance width="1162"/>
  <unicode hex="0071"/>
  <outline>
    <contour>
      <point x="868" y="825" type="qcurve"/>
      <point x="868" y="855"/>
      <point x="869" y="891"/>
      <point x="869" y="921" type="qcurve"/>
      <point x="871" y="956"/>
      <point x="919" y="991"/>
      <point x="947" y="991" type="qcurve"/>
      <point x="976" y="991"/>
      <point x="1023" y="954"/>
      <point x="1023" y="917" type="qcurve"/>
      <point x="1023" y="-303" type="line"/>
      <point x="1023" y="-340"/>
      <point x="972" y="-377"/>
      <point x="942" y="-377" type="qcurve"/>
      <point x="912" y="-377"/>
      <point x="863" y="-341"/>
      <point x="863" y="-303" type="qcurve"/>
      <point x="863" y="164" type="line"/>
      <point x="834" y="118"/>
      <point x="755" y="47"/>
      <point x="663" y="1"/>
      <point x="561" y="-22"/>
      <point x="510" y="-22" type="qcurve"/>
      <point x="402" y="-22"/>
      <point x="243" y="63"/>
      <point x="140" y="205"/>
      <point x="90" y="391"/>
      <point x="90" y="491" type="qcurve"/>
      <point x="90" y="590"/>
      <point x="138" y="778"/>
      <point x="238" y="924"/>
      <point x="395" y="1013"/>
      <point x="504" y="1013" type="qcurve"/>
      <point x="559" y="1013"/>
      <point x="667" y="991"/>
      <point x="763" y="944"/>
      <point x="841" y="873"/>
    </contour>
    <contour>
      <point x="862" y="492" type="qcurve"/>
      <point x="862" y="576"/>
      <point x="833" y="720"/>
      <point x="761" y="827"/>
      <point x="639" y="888"/>
      <point x="545" y="889" type="qcurve"/>
      <point x="461" y="888"/>
      <point x="351" y="816"/>
      <point x="286" y="703"/>
      <point x="259" y="564"/>
      <point x="259" y="497" type="qcurve"/>
      <point x="259" y="428"/>
      <point x="286" y="285"/>
      <point x="352" y="173"/>
      <point x="463" y="102"/>
      <point x="547" y="102" type="qcurve"/>
      <point x="632" y="102"/>
      <point x="751" y="168"/>
      <point x="827" y="274"/>
      <point x="862" y="418"/>
    </contour>
  </outline>
</glyph>
<glyph name="r" format="1">
  <advance width="709"/>
  <unicode hex="0072"/>
  <outline>
    <contour>
      <point x="233" y="0" type="curve" smooth="yes"/>
      <point x="274" y="0"/>
      <point x="315" y="25"/>
      <point x="315" y="74" type="curve" smooth="yes"/>
      <point x="315" y="565" type="line" smooth="yes"/>
      <point x="315" y="757"/>
      <point x="415" y="875"/>
      <point x="587" y="875" type="curve" smooth="yes"/>
      <point x="643" y="875"/>
      <point x="669" y="910"/>
      <point x="669" y="943" type="curve" smooth="yes"/>
      <point x="669" y="978"/>
      <point x="641" y="1013"/>
      <point x="589" y="1013" type="curve" smooth="yes"/>
      <point x="434" y="1013"/>
      <point x="355" y="942"/>
      <point x="315" y="826" type="curve"/>
      <point x="315" y="915" type="line" smooth="yes"/>
      <point x="315" y="963"/>
      <point x="287" y="991"/>
      <point x="240" y="991" type="curve" smooth="yes"/>
      <point x="192" y="991"/>
      <point x="155" y="963"/>
      <point x="155" y="915" type="curve" smooth="yes"/>
      <point x="155" y="74" type="line" smooth="yes"/>
      <point x="155" y="23"/>
      <point x="193" y="0"/>
    </contour>
  </outline>
</glyph>
<glyph name="s" format="1">
  <advance width="1024"/>
  <unicode hex="0073"/>
  <outline>
    <contour>
      <point x="284" y="747" type="curve" smooth="yes"/>
      <point x="284" y="606"/>
      <point x="493" y="621"/>
      <point x="749" y="533" type="curve"/>
      <point x="862" y="497"/>
      <point x="933" y="411"/>
      <point x="933" y="299" type="curve" smooth="yes"/>
      <point x="933" y="76"/>
      <point x="723" y="-22"/>
      <point x="496" y="-22" type="curve" smooth="yes"/>
      <point x="307" y="-22"/>
      <point x="112" y="60"/>
      <point x="112" y="133" type="curve" smooth="yes"/>
      <point x="112" y="164"/>
      <point x="139" y="189"/>
      <point x="178" y="189" type="curve"/>
      <point x="222" y="186"/>
      <point x="342" y="102"/>
      <point x="523" y="102" type="curve" smooth="yes"/>
      <point x="646" y="102"/>
      <point x="772" y="152"/>
      <point x="772" y="280" type="curve" smooth="yes"/>
      <point x="772" y="356"/>
      <point x="717" y="397"/>
      <point x="636" y="424" type="curve" smooth="yes"/>
      <point x="422" y="493"/>
      <point x="123" y="481"/>
      <point x="123" y="740" type="curve" smooth="yes"/>
      <point x="123" y="943"/>
      <point x="315" y="1013"/>
      <point x="515" y="1013" type="curve" smooth="yes"/>
      <point x="759" y="1013"/>
      <point x="872" y="920"/>
      <point x="872" y="865" type="curve" smooth="yes"/>
      <point x="872" y="836"/>
      <point x="845" y="814"/>
      <point x="810" y="814" type="curve" smooth="yes"/>
      <point x="794" y="814"/>
      <point x="779" y="817"/>
      <point x="763" y="828" type="curve" smooth="yes"/>
      <point x="701" y="869"/>
      <point x="632" y="889"/>
      <point x="510" y="889" type="curve" smooth="yes"/>
      <point x="391" y="889"/>
      <point x="284" y="856"/>
    </contour>
  </outline>
</glyph>
<glyph name="t" format="1">
  <advance width="706"/>
  <unicode hex="0074"/>
  <outline>
    <contour>
      <point x="238" y="991" type="line"/>
      <point x="251" y="1273" type="line"/>
      <point x="254" y="1316"/>
      <point x="293" y="1341"/>
      <point x="330" y="1341" type="curve" smooth="yes"/>
      <point x="363" y="1341"/>
      <point x="394" y="1320"/>
      <point x="394" y="1275" type="curve" smooth="yes"/>
      <point x="394" y="991" type="line"/>
      <point x="573" y="991" type="line" smooth="yes"/>
      <point x="616" y="991"/>
      <point x="637" y="961"/>
      <point x="637" y="930" type="curve" smooth="yes"/>
      <point x="637" y="899"/>
      <point x="616" y="871"/>
      <point x="573" y="871" type="curve" smooth="yes"/>
      <point x="394" y="871" type="line"/>
      <point x="394" y="407" type="line" smooth="yes"/>
      <point x="394" y="171"/>
      <point x="396" y="102"/>
      <point x="517" y="102" type="curve" smooth="yes"/>
      <point x="552" y="102"/>
      <point x="594" y="111"/>
      <point x="621" y="111" type="curve" smooth="yes"/>
      <point x="664" y="111"/>
      <point x="679" y="78"/>
      <point x="679" y="55" type="curve" smooth="yes"/>
      <point x="679" y="-10"/>
      <point x="559" y="-22"/>
      <point x="495" y="-22" type="curve" smooth="yes"/>
      <point x="316" y="-22"/>
      <point x="234" y="64"/>
      <point x="234" y="319" type="curve" smooth="yes"/>
      <point x="234" y="871" type="line"/>
      <point x="113" y="871" type="line" smooth="yes"/>
      <point x="70" y="871"/>
      <point x="48" y="900"/>
      <point x="48" y="931" type="curve" smooth="yes"/>
      <point x="48" y="962"/>
      <point x="70" y="991"/>
      <point x="113" y="991" type="curve" smooth="yes"/>
    </contour>
  </outline>
</glyph>
<glyph name="u" format="1">
  <advance width="1158"/>
  <unicode hex="0075"/>
  <outline>
    <contour>
      <point x="521" y="-20" type="curve" smooth="yes"/>
      <point x="670" y="-20"/>
      <point x="800" y="47"/>
      <point x="848" y="177" type="curve"/>
      <point x="848" y="73" type="line" smooth="yes"/>
      <point x="848" y="24"/>
      <point x="888" y="0"/>
      <point x="927" y="0" type="curve" smooth="yes"/>
      <point x="967" y="0"/>
      <point x="1008" y="24"/>
      <point x="1008" y="75" type="curve" smooth="yes"/>
      <point x="1008" y="916" type="line" smooth="yes"/>
      <point x="1008" y="967"/>
      <point x="969" y="991"/>
      <point x="929" y="991" type="curve" smooth="yes"/>
      <point x="889" y="991"/>
      <point x="848" y="965"/>
      <point x="848" y="916" type="curve" smooth="yes"/>
      <point x="848" y="393" type="line"/>
      <point x="835" y="196"/>
      <point x="712" y="90"/>
      <point x="556" y="90" type="curve" smooth="yes"/>
      <point x="399" y="90"/>
      <point x="320" y="185"/>
      <point x="320" y="365" type="curve" smooth="yes"/>
      <point x="320" y="916" type="line" smooth="yes"/>
      <point x="320" y="967"/>
      <point x="280" y="991"/>
      <point x="240" y="991" type="curve" smooth="yes"/>
      <point x="200" y="991"/>
      <point x="160" y="967"/>
      <point x="160" y="916" type="curve" smooth="yes"/>
      <point x="160" y="367" type="line" smooth="yes"/>
      <point x="160" y="94"/>
      <point x="308" y="-20"/>
    </contour>
  </outline>
</glyph>
<glyph name="v" format="1">
  <advance width="1027"/>
  <unicode hex="0076"/>
  <outline>
    <contour>
      <point x="519" y="0" type="curve" smooth="yes"/>
      <point x="589" y="0"/>
      <point x="625" y="36"/>
      <point x="659" y="121" type="curve" smooth="yes"/>
      <point x="969" y="890" type="line" smooth="yes"/>
      <point x="973" y="900"/>
      <point x="975" y="910"/>
      <point x="975" y="920" type="curve" smooth="yes"/>
      <point x="975" y="963"/>
      <point x="934" y="991"/>
      <point x="893" y="991" type="curve" smooth="yes"/>
      <point x="862" y="991"/>
      <point x="833" y="976"/>
      <point x="820" y="940" type="curve"/>
      <point x="518" y="185" type="line"/>
      <point x="205" y="940" type="line"/>
      <point x="192" y="976"/>
      <point x="163" y="991"/>
      <point x="134" y="991" type="curve" smooth="yes"/>
      <point x="93" y="991"/>
      <point x="51" y="961"/>
      <point x="51" y="919" type="curve" smooth="yes"/>
      <point x="51" y="910"/>
      <point x="53" y="900"/>
      <point x="57" y="890" type="curve" smooth="yes"/>
      <point x="378" y="121" type="line" smooth="yes"/>
      <point x="413" y="36"/>
      <point x="448" y="0"/>
    </contour>
  </outline>
</glyph>
<glyph name="w" format="1">
  <advance width="1718"/>
  <unicode hex="0077"/>
  <outline>
    <contour>
      <point x="472" y="0" type="curve" smooth="yes"/>
      <point x="519" y="0"/>
      <point x="565" y="20"/>
      <point x="585" y="87" type="curve"/>
      <point x="864" y="839" type="line"/>
      <point x="1137" y="87" type="line"/>
      <point x="1156" y="17"/>
      <point x="1198" y="0"/>
      <point x="1243" y="0" type="curve" smooth="yes"/>
      <point x="1288" y="0"/>
      <point x="1328" y="22"/>
      <point x="1347" y="82" type="curve"/>
      <point x="1652" y="886" type="line"/>
      <point x="1655" y="898"/>
      <point x="1657" y="908"/>
      <point x="1657" y="917" type="curve" smooth="yes"/>
      <point x="1657" y="960"/>
      <point x="1623" y="991"/>
      <point x="1580" y="991" type="curve" smooth="yes"/>
      <point x="1549" y="991"/>
      <point x="1521" y="973"/>
      <point x="1508" y="936" type="curve" smooth="yes"/>
      <point x="1244" y="181" type="line"/>
      <point x="983" y="912" type="line"/>
      <point x="963" y="972"/>
      <point x="921" y="991"/>
      <point x="869" y="991" type="curve" smooth="yes"/>
      <point x="818" y="991"/>
      <point x="775" y="972"/>
      <point x="755" y="912" type="curve"/>
      <point x="483" y="173" type="line"/>
      <point x="212" y="936" type="line"/>
      <point x="201" y="975"/>
      <point x="171" y="991"/>
      <point x="140" y="991" type="curve" smooth="yes"/>
      <point x="100" y="991"/>
      <point x="62" y="960"/>
      <point x="62" y="914" type="curve" smooth="yes"/>
      <point x="62" y="907"/>
      <point x="64" y="897"/>
      <point x="67" y="886" type="curve"/>
      <point x="367" y="82" type="line"/>
      <point x="386" y="19"/>
      <point x="428" y="0"/>
    </contour>
  </outline>
</glyph>
<glyph name="x" format="1">
  <advance width="1033"/>
  <unicode hex="0078"/>
  <outline>
    <contour>
      <point x="415" y="508" type="line"/>
      <point x="128" y="869" type="line"/>
      <point x="119" y="880"/>
      <point x="112" y="902"/>
      <point x="112" y="913" type="qcurve"/>
      <point x="112" y="929"/>
      <point x="126" y="957"/>
      <point x="150" y="978"/>
      <point x="181" y="991"/>
      <point x="197" y="991" type="qcurve"/>
      <point x="214" y="991"/>
      <point x="247" y="975"/>
      <point x="261" y="957" type="qcurve"/>
      <point x="525" y="609" type="line"/>
      <point x="797" y="961" type="line"/>
      <point x="809" y="977"/>
      <point x="838" y="991"/>
      <point x="853" y="991" type="qcurve"/>
      <point x="881" y="991"/>
      <point x="925" y="951"/>
      <point x="925" y="924" type="qcurve"/>
      <point x="925" y="903"/>
      <point x="910" y="884" type="qcurve"/>
      <point x="621" y="511" type="line"/>
      <point x="930" y="120" type="line"/>
      <point x="946" y="100"/>
      <point x="946" y="77" type="qcurve"/>
      <point x="946" y="62"/>
      <point x="932" y="34"/>
      <point x="908" y="13"/>
      <point x="877" y="0"/>
      <point x="861" y="0" type="qcurve"/>
      <point x="844" y="0"/>
      <point x="811" y="16"/>
      <point x="797" y="34" type="qcurve"/>
      <point x="507" y="413" type="line"/>
      <point x="217" y="29" type="line"/>
      <point x="195" y="0"/>
      <point x="163" y="0" type="qcurve"/>
      <point x="148" y="0"/>
      <point x="120" y="12"/>
      <point x="98" y="31"/>
      <point x="85" y="57"/>
      <point x="85" y="71" type="qcurve"/>
      <point x="85" y="91"/>
      <point x="99" y="108" type="qcurve"/>
    </contour>
  </outline>
</glyph>
<glyph name="y" format="1">
  <advance width="1029"/>
  <unicode hex="0079"/>
  <outline>
    <contour>
      <point x="441" y="10" type="line"/>
      <point x="55" y="887" type="line"/>
      <point x="48" y="901"/>
      <point x="48" y="916" type="qcurve"/>
      <point x="48" y="932"/>
      <point x="63" y="960"/>
      <point x="89" y="980"/>
      <point x="120" y="991"/>
      <point x="137" y="991" type="qcurve"/>
      <point x="160" y="991"/>
      <point x="200" y="967"/>
      <point x="211" y="941" type="qcurve"/>
      <point x="521" y="188" type="line"/>
      <point x="830" y="942" type="line"/>
      <point x="841" y="968"/>
      <point x="878" y="992"/>
      <point x="899" y="991" type="qcurve"/>
      <point x="929" y="991"/>
      <point x="979" y="951"/>
      <point x="979" y="918" type="qcurve"/>
      <point x="979" y="903"/>
      <point x="973" y="888" type="qcurve"/>
      <point x="470" y="-334" type="line"/>
      <point x="458" y="-363"/>
      <point x="419" y="-388"/>
      <point x="396" y="-388" type="qcurve"/>
      <point x="381" y="-388"/>
      <point x="351" y="-377"/>
      <point x="328" y="-358"/>
      <point x="314" y="-331"/>
      <point x="314" y="-314" type="qcurve"/>
      <point x="314" y="-300"/>
      <point x="320" y="-285" type="qcurve"/>
    </contour>
  </outline>
</glyph>
<glyph name="z" format="1">
  <advance width="931"/>
  <unicode hex="007A"/>
  <outline>
    <contour>
      <point x="787" y="131" type="line"/>
      <point x="820" y="131"/>
      <point x="853" y="90"/>
      <point x="853" y="65" type="qcurve"/>
      <point x="853" y="40"/>
      <point x="820" y="0"/>
      <point x="787" y="0" type="qcurve"/>
      <point x="164" y="0" type="line"/>
      <point x="123" y="0"/>
      <point x="77" y="45"/>
      <point x="77" y="77" type="qcurve"/>
      <point x="77" y="92"/>
      <point x="88" y="124"/>
      <point x="100" y="140" type="qcurve"/>
      <point x="661" y="859" type="line"/>
      <point x="155" y="859" type="line"/>
      <point x="123" y="859"/>
      <point x="90" y="900"/>
      <point x="90" y="925" type="qcurve"/>
      <point x="90" y="950"/>
      <point x="122" y="991"/>
      <point x="155" y="991" type="qcurve"/>
      <point x="769" y="991" type="line"/>
      <point x="814" y="991"/>
      <point x="862" y="948"/>
      <point x="862" y="916" type="qcurve"/>
      <point x="862" y="901"/>
      <point x="850" y="868"/>
      <point x="837" y="851" type="qcurve"/>
      <point x="282" y="131" type="line"/>
    </contour>
  </outline>
</glyph>
<glyph name="braceleft" format="1">
  <advance width="611"/>
  <unicode hex="007B"/>
  <outline>
    <contour>
      <point x="537" y="-81" type="line"/>
      <point x="566" y="-81"/>
      <point x="594" y="-121"/>
      <point x="594" y="-144" type="qcurve"/>
      <point x="594" y="-168"/>
      <point x="566" y="-207"/>
      <point x="537" y="-207" type="qcurve"/>
      <point x="419" y="-207" type="line"/>
      <point x="384" y="-207"/>
      <point x="316" y="-174"/>
      <point x="262" y="-114"/>
      <point x="228" y="-30"/>
      <point x="228" y="21" type="qcurve"/>
      <point x="228" y="318" type="line"/>
      <point x="228" y="373"/>
      <point x="218" y="460"/>
      <point x="186" y="523"/>
      <point x="129" y="561"/>
      <point x="83" y="566" type="qcurve"/>
      <point x="49" y="566"/>
      <point x="16" y="608"/>
      <point x="16" y="633" type="qcurve"/>
      <point x="16" y="659"/>
      <point x="49" y="701"/>
      <point x="83" y="701" type="qcurve"/>
      <point x="129" y="706"/>
      <point x="186" y="744"/>
      <point x="218" y="808"/>
      <point x="228" y="897"/>
      <point x="228" y="952" type="qcurve"/>
      <point x="228" y="1252" type="line"/>
      <point x="228" y="1303"/>
      <point x="262" y="1386"/>
      <point x="316" y="1446"/>
      <point x="384" y="1479"/>
      <point x="419" y="1479" type="qcurve"/>
      <point x="537" y="1479" type="line"/>
      <point x="566" y="1479"/>
      <point x="594" y="1439"/>
      <point x="594" y="1416" type="qcurve"/>
      <point x="594" y="1392"/>
      <point x="566" y="1353"/>
      <point x="537" y="1353" type="qcurve"/>
      <point x="474" y="1353" type="line"/>
      <point x="431" y="1353"/>
      <point x="391" y="1275"/>
      <point x="391" y="1203" type="qcurve"/>
      <point x="391" y="915" type="line"/>
      <point x="391" y="842"/>
      <point x="354" y="744"/>
      <point x="305" y="679"/>
      <point x="258" y="644"/>
      <point x="248" y="634" type="qcurve"/>
      <point x="258" y="629"/>
      <point x="305" y="594"/>
      <point x="354" y="527"/>
      <point x="391" y="426"/>
      <point x="391" y="355" type="qcurve"/>
      <point x="391" y="70" type="line"/>
      <point x="391" y="-2"/>
      <point x="431" y="-81"/>
      <point x="474" y="-81" type="qcurve"/>
    </contour>
  </outline>
</glyph>
<glyph name="bar" format="1">
  <advance width="455"/>
  <unicode hex="007C"/>
  <outline>
    <contour>
      <point x="158" y="1409" type="line"/>
      <point x="158" y="1444"/>
      <point x="202" y="1478"/>
      <point x="228" y="1478" type="qcurve"/>
      <point x="254" y="1478"/>
      <point x="297" y="1444"/>
      <point x="297" y="1409" type="qcurve"/>
      <point x="297" y="-377" type="line"/>
      <point x="297" y="-412"/>
      <point x="253" y="-447"/>
      <point x="227" y="-447" type="qcurve"/>
      <point x="201" y="-447"/>
      <point x="158" y="-412"/>
      <point x="158" y="-377" type="qcurve"/>
    </contour>
  </outline>
</glyph>
<glyph name="braceright" format="1">
  <advance width="611"/>
  <unicode hex="007D"/>
  <outline>
    <contour>
      <point x="135" y="-81" type="line"/>
      <point x="178" y="-81"/>
      <point x="218" y="-2"/>
      <point x="218" y="70" type="qcurve"/>
      <point x="218" y="355" type="line"/>
      <point x="218" y="426"/>
      <point x="255" y="527"/>
      <point x="304" y="594"/>
      <point x="351" y="629"/>
      <point x="360" y="634" type="qcurve"/>
      <point x="351" y="643"/>
      <point x="304" y="678"/>
      <point x="256" y="743"/>
      <point x="218" y="842"/>
      <point x="218" y="915" type="qcurve"/>
      <point x="218" y="1203" type="line"/>
      <point x="218" y="1275"/>
      <point x="178" y="1353"/>
      <point x="135" y="1353" type="qcurve"/>
      <point x="72" y="1353" type="line"/>
      <point x="43" y="1353"/>
      <point x="15" y="1392"/>
      <point x="15" y="1416" type="qcurve"/>
      <point x="15" y="1439"/>
      <point x="43" y="1479"/>
      <point x="72" y="1479" type="qcurve"/>
      <point x="189" y="1479" type="line"/>
      <point x="224" y="1479"/>
      <point x="293" y="1446"/>
      <point x="347" y="1386"/>
      <point x="381" y="1303"/>
      <point x="381" y="1252" type="qcurve"/>
      <point x="381" y="952" type="line"/>
      <point x="381" y="897"/>
      <point x="391" y="808"/>
      <point x="423" y="744"/>
      <point x="479" y="706"/>
      <point x="526" y="701" type="qcurve"/>
      <point x="559" y="701"/>
      <point x="593" y="659"/>
      <point x="593" y="633" type="qcurve"/>
      <point x="593" y="608"/>
      <point x="559" y="566"/>
      <point x="526" y="566" type="qcurve"/>
      <point x="479" y="561"/>
      <point x="423" y="523"/>
      <point x="391" y="460"/>
      <point x="381" y="373"/>
      <point x="381" y="318" type="qcurve"/>
      <point x="381" y="21" type="line"/>
      <point x="381" y="-30"/>
      <point x="347" y="-114"/>
      <point x="293" y="-174"/>
      <point x="224" y="-207"/>
      <point x="189" y="-207" type="qcurve"/>
      <point x="72" y="-207" type="line"/>
      <point x="43" y="-207"/>
      <point x="15" y="-168"/>
      <point x="15" y="-144" type="qcurve"/>
      <point x="15" y="-121"/>
      <point x="43" y="-81"/>
      <point x="72" y="-81" type="qcurve"/>
    </contour>
  </outline>
</glyph>
<glyph name="asciitilde" format="1">
  <advance width="1340"/>
  <unicode hex="007E"/>
  <outline>
    <contour>
      <point x="779" y="1297" type="qcurve"/>
      <point x="798" y="1297"/>
      <point x="829" y="1313"/>
      <point x="842" y="1332" type="qcurve"/>
      <point x="853" y="1349"/>
      <point x="879" y="1363"/>
      <point x="891" y="1363" type="qcurve"/>
      <point x="910" y="1363"/>
      <point x="937" y="1334"/>
      <point x="937" y="1315" type="qcurve"/>
      <point x="937" y="1310"/>
      <point x="935" y="1301"/>
      <point x="933" y="1296" type="qcurve"/>
      <point x="912" y="1243"/>
      <point x="833" y="1180"/>
      <point x="767" y="1180" type="qcurve"/>
      <point x="738" y="1180"/>
      <point x="675" y="1202"/>
      <point x="613" y="1227"/>
      <point x="554" y="1249"/>
      <point x="527" y="1249" type="qcurve"/>
      <point x="505" y="1249"/>
      <point x="468" y="1230"/>
      <point x="451" y="1209" type="qcurve"/>
      <point x="432" y="1186"/>
      <point x="407" y="1186" type="qcurve"/>
      <point x="388" y="1186"/>
      <point x="360" y="1211"/>
      <point x="360" y="1230" type="qcurve"/>
      <point x="360" y="1240"/>
      <point x="366" y="1252" type="qcurve"/>
      <point x="392" y="1306"/>
      <point x="472" y="1363"/>
      <point x="533" y="1363" type="qcurve"/>
      <point x="567" y="1363"/>
      <point x="634" y="1342"/>
      <point x="697" y="1318"/>
      <point x="754" y="1297"/>
    </contour>
  </outline>
</glyph>
<glyph name="cent" format="1">
  <advance width="1031"/>
  <unicode hex="00A2"/>
  <outline>
    <contour>
      <point x="83" y="496" type="qcurve"/>
      <point x="83" y="593"/>
      <point x="142" y="771"/>
      <point x="250" y="912"/>
      <point x="402" y="1004"/>
      <point x="495" y="1016" type="qcurve"/>
      <point x="495" y="1227" type="line"/>
      <point x="495" y="1259"/>
      <point x="535" y="1291"/>
      <point x="559" y="1291" type="qcurve"/>
      <point x="583" y="1291"/>
      <point x="622" y="1259"/>
      <point x="622" y="1227" type="qcurve"/>
      <point x="622" y="1017" type="line"/>
      <point x="659" y="1014"/>
      <point x="749" y="997"/>
      <point x="828" y="968"/>
      <point x="882" y="929"/>
      <point x="882" y="905" type="qcurve"/>
      <point x="882" y="883"/>
      <point x="854" y="843"/>
      <point x="832" y="843" type="qcurve"/>
      <point x="826" y="843"/>
      <point x="823" y="844" type="qcurve"/>
      <point x="759" y="866"/>
      <point x="651" y="892"/>
      <point x="597" y="892" type="qcurve"/>
      <point x="525" y="892"/>
      <point x="399" y="844"/>
      <point x="306" y="746"/>
      <point x="252" y="598"/>
      <point x="252" y="498" type="qcurve"/>
      <point x="252" y="408"/>
      <point x="298" y="263"/>
      <point x="385" y="161"/>
      <point x="511" y="106"/>
      <point x="591" y="106" type="qcurve"/>
      <point x="646" y="106"/>
      <point x="773" y="130"/>
      <point x="842" y="158" type="qcurve"/>
      <point x="846" y="159"/>
      <point x="852" y="160"/>
      <point x="856" y="160" type="qcurve"/>
      <point x="879" y="160"/>
      <point x="909" y="122"/>
      <point x="909" y="99" type="qcurve"/>
      <point x="909" y="70"/>
      <point x="849" y="27"/>
      <point x="761" y="-5"/>
      <point x="662" y="-23"/>
      <point x="622" y="-26" type="qcurve"/>
      <point x="622" y="-227" type="line"/>
      <point x="622" y="-259"/>
      <point x="582" y="-291"/>
      <point x="558" y="-291" type="qcurve"/>
      <point x="534" y="-291"/>
      <point x="495" y="-259"/>
      <point x="495" y="-227" type="qcurve"/>
      <point x="495" y="-25" type="line"/>
      <point x="393" y="-15"/>
      <point x="239" y="76"/>
      <point x="136" y="217"/>
      <point x="83" y="397"/>
    </contour>
  </outline>
</glyph>
<glyph name="sterling" format="1">
  <advance width="1361"/>
  <unicode hex="00A3"/>
  <outline>
    <contour>
      <point x="193" y="750" type="line"/>
      <point x="161" y="750"/>
      <point x="127" y="791"/>
      <point x="127" y="816" type="qcurve"/>
      <point x="127" y="841"/>
      <point x="160" y="881"/>
      <point x="193" y="881" type="qcurve"/>
      <point x="332" y="881" type="line"/>
      <point x="332" y="1102" type="line"/>
      <point x="332" y="1199"/>
      <point x="389" y="1332"/>
      <point x="490" y="1414"/>
      <point x="630" y="1451"/>
      <point x="713" y="1451" type="qcurve"/>
      <point x="779" y="1451"/>
      <point x="928" y="1434"/>
      <point x="996" y="1417" type="qcurve"/>
      <point x="1015" y="1410"/>
      <point x="1034" y="1377"/>
      <point x="1034" y="1358" type="qcurve"/>
      <point x="1034" y="1336"/>
      <point x="1007" y="1301"/>
      <point x="979" y="1301" type="qcurve"/>
      <point x="974" y="1301"/>
      <point x="966" y="1302"/>
      <point x="961" y="1303" type="qcurve"/>
      <point x="905" y="1308"/>
      <point x="799" y="1322"/>
      <point x="734" y="1322" type="qcurve"/>
      <point x="654" y="1322"/>
      <point x="559" y="1291"/>
      <point x="509" y="1219"/>
      <point x="494" y="1102"/>
      <point x="494" y="1016" type="qcurve"/>
      <point x="494" y="881" type="line"/>
      <point x="870" y="881" type="line"/>
      <point x="903" y="881"/>
      <point x="936" y="841"/>
      <point x="936" y="816" type="qcurve"/>
      <point x="936" y="791"/>
      <point x="903" y="750"/>
      <point x="870" y="750" type="qcurve"/>
      <point x="494" y="750" type="line"/>
      <point x="494" y="145" type="line"/>
      <point x="1132" y="145" type="line"/>
      <point x="1169" y="145"/>
      <point x="1205" y="99"/>
      <point x="1205" y="72" type="qcurve"/>
      <point x="1205" y="44"/>
      <point x="1169" y="-1"/>
      <point x="1132" y="-1" type="qcurve"/>
      <point x="227" y="-1" type="line"/>
      <point x="190" y="-1"/>
      <point x="153" y="45"/>
      <point x="153" y="73" type="qcurve"/>
      <point x="153" y="99"/>
      <point x="189" y="144"/>
      <point x="224" y="144" type="qcurve"/>
      <point x="332" y="144" type="line"/>
      <point x="332" y="750" type="line"/>
    </contour>
  </outline>
</glyph>
<glyph name="currency" format="1">
  <advance width="1162"/>
  <unicode hex="00A4"/>
  <outline>
    <contour>
      <point x="586" y="183" type="qcurve"/>
      <point x="505" y="183"/>
      <point x="373" y="225"/>
      <point x="322" y="262" type="qcurve"/>
      <point x="235" y="175" type="line"/>
      <point x="219" y="159"/>
      <point x="199" y="159" type="qcurve"/>
      <point x="179" y="159"/>
      <point x="148" y="190"/>
      <point x="148" y="211" type="qcurve"/>
      <point x="148" y="231"/>
      <point x="164" y="247" type="qcurve"/>
      <point x="249" y="332" type="line"/>
      <point x="203" y="389"/>
      <point x="158" y="528"/>
      <point x="158" y="601" type="qcurve"/>
      <point x="158" y="673"/>
      <point x="202" y="809"/>
      <point x="247" y="866" type="qcurve"/>
      <point x="164" y="950" type="line"/>
      <point x="148" y="966"/>
      <point x="148" y="986" type="qcurve"/>
      <point x="148" y="1006"/>
      <point x="179" y="1037"/>
      <point x="199" y="1037" type="qcurve"/>
      <point x="218" y="1037"/>
      <point x="235" y="1021" type="qcurve"/>
      <point x="318" y="937" type="line"/>
      <point x="369" y="975"/>
      <point x="502" y="1020"/>
      <point x="586" y="1020" type="qcurve"/>
      <point x="669" y="1020"/>
      <point x="803" y="975"/>
      <point x="854" y="937" type="qcurve"/>
      <point x="938" y="1021" type="line"/>
      <point x="954" y="1037"/>
      <point x="974" y="1037" type="qcurve"/>
      <point x="994" y="1037"/>
      <point x="1025" y="1006"/>
      <point x="1025" y="985" type="qcurve"/>
      <point x="1025" y="977"/>
      <point x="1018" y="958"/>
      <point x="1010" y="950" type="qcurve"/>
      <point x="925" y="866" type="line"/>
      <point x="970" y="809"/>
      <point x="1014" y="672"/>
      <point x="1014" y="601" type="qcurve"/>
      <point x="1014" y="528"/>
      <point x="968" y="389"/>
      <point x="923" y="332" type="qcurve"/>
      <point x="1010" y="247" type="line"/>
      <point x="1018" y="239"/>
      <point x="1025" y="220"/>
      <point x="1025" y="211" type="qcurve"/>
      <point x="1025" y="191"/>
      <point x="994" y="159"/>
      <point x="974" y="159" type="qcurve"/>
      <point x="956" y="158"/>
      <point x="939" y="175" type="qcurve"/>
      <point x="850" y="263" type="line"/>
      <point x="799" y="225"/>
      <point x="668" y="183"/>
    </contour>
    <contour>
      <point x="586" y="918" type="qcurve"/>
      <point x="510" y="918"/>
      <point x="396" y="863"/>
      <point x="319" y="774"/>
      <point x="281" y="660"/>
      <point x="281" y="601" type="qcurve"/>
      <point x="281" y="542"/>
      <point x="319" y="428"/>
      <point x="396" y="339"/>
      <point x="510" y="285"/>
      <point x="586" y="285" type="qcurve"/>
      <point x="662" y="285"/>
      <point x="776" y="339"/>
      <point x="853" y="428"/>
      <point x="891" y="542"/>
      <point x="891" y="601" type="qcurve"/>
      <point x="891" y="660"/>
      <point x="853" y="774"/>
      <point x="776" y="863"/>
      <point x="662" y="918"/>
    </contour>
  </outline>
</glyph>
<glyph name="yen" format="1">
  <advance width="1177"/>
  <unicode hex="00A5"/>
  <outline>
    <contour>
      <point x="685" y="626" type="line"/>
      <point x="1016" y="626" type="line"/>
      <point x="1047" y="626"/>
      <point x="1077" y="588"/>
      <point x="1077" y="565" type="qcurve"/>
      <point x="1077" y="542"/>
      <point x="1047" y="505"/>
      <point x="1016" y="505" type="qcurve"/>
      <point x="680" y="505" type="line"/>
      <point x="680" y="390" type="line"/>
      <point x="1016" y="390" type="line"/>
      <point x="1047" y="390"/>
      <point x="1077" y="352"/>
      <point x="1077" y="329" type="qcurve"/>
      <point x="1077" y="306"/>
      <point x="1047" y="269"/>
      <point x="1016" y="269" type="qcurve"/>
      <point x="680" y="269" type="line"/>
      <point x="680" y="84" type="line"/>
      <point x="680" y="63"/>
      <point x="665" y="33"/>
      <point x="640" y="12"/>
      <point x="608" y="2"/>
      <point x="591" y="2" type="qcurve"/>
      <point x="574" y="2"/>
      <point x="543" y="12"/>
      <point x="517" y="33"/>
      <point x="502" y="63"/>
      <point x="502" y="84" type="qcurve"/>
      <point x="502" y="269" type="line"/>
      <point x="163" y="269" type="line"/>
      <point x="133" y="269"/>
      <point x="102" y="307"/>
      <point x="102" y="330" type="qcurve"/>
      <point x="102" y="353"/>
      <point x="132" y="390"/>
      <point x="163" y="390" type="qcurve"/>
      <point x="502" y="390" type="line"/>
      <point x="502" y="505" type="line"/>
      <point x="163" y="505" type="line"/>
      <point x="133" y="505"/>
      <point x="103" y="544"/>
      <point x="103" y="567" type="qcurve"/>
      <point x="103" y="589"/>
      <point x="132" y="626"/>
      <point x="163" y="626" type="qcurve"/>
      <point x="494" y="626" type="line"/>
      <point x="41" y="1306" type="line"/>
      <point x="34" y="1316"/>
      <point x="29" y="1335"/>
      <point x="29" y="1344" type="qcurve"/>
      <point x="29" y="1361"/>
      <point x="45" y="1390"/>
      <point x="72" y="1412"/>
      <point x="107" y="1424"/>
      <point x="125" y="1424" type="qcurve"/>
      <point x="146" y="1424"/>
      <point x="186" y="1404"/>
      <point x="200" y="1381" type="qcurve"/>
      <point x="603" y="755" type="line"/>
      <point x="1008" y="1382" type="line"/>
      <point x="1021" y="1405"/>
      <point x="1060" y="1424"/>
      <point x="1080" y="1424" type="qcurve"/>
      <point x="1111" y="1424"/>
      <point x="1159" y="1387"/>
      <point x="1159" y="1358" type="qcurve"/>
      <point x="1159" y="1349"/>
      <point x="1154" y="1329"/>
      <point x="1147" y="1319" type="qcurve"/>
    </contour>
  </outline>
</glyph>
<glyph name="brokenbar" format="1">
  <advance width="455"/>
  <unicode hex="00A6"/>
  <outline>
    <contour>
      <point x="227" y="-117" type="curve" smooth="yes"/>
      <point x="262" y="-117"/>
      <point x="297" y="-94"/>
      <point x="297" y="-47" type="curve" smooth="yes"/>
      <point x="297" y="567" type="line" smooth="yes"/>
      <point x="297" y="607"/>
      <point x="269" y="631"/>
      <point x="240" y="636" type="curve"/>
      <point x="271" y="641"/>
      <point x="297" y="665"/>
      <point x="297" y="705" type="curve" smooth="yes"/>
      <point x="297" y="1291" type="line" smooth="yes"/>
      <point x="297" y="1338"/>
      <point x="263" y="1361"/>
      <point x="228" y="1361" type="curve" smooth="yes"/>
      <point x="193" y="1361"/>
      <point x="158" y="1338"/>
      <point x="158" y="1291" type="curve" smooth="yes"/>
      <point x="158" y="705" type="line" smooth="yes"/>
      <point x="158" y="664"/>
      <point x="183" y="641"/>
      <point x="214" y="636" type="curve"/>
      <point x="184" y="628"/>
      <point x="158" y="608"/>
      <point x="158" y="567" type="curve" smooth="yes"/>
      <point x="158" y="-47" type="line" smooth="yes"/>
      <point x="158" y="-94"/>
      <point x="192" y="-117"/>
    </contour>
  </outline>
</glyph>
<glyph name="section" format="1">
  <advance width="1169"/>
  <unicode hex="00A7"/>
  <outline>
    <contour>
      <point x="858" y="1471" type="qcurve"/>
      <point x="881" y="1464"/>
      <point x="902" y="1433"/>
      <point x="902" y="1415" type="qcurve"/>
      <point x="902" y="1390"/>
      <point x="869" y="1348"/>
      <point x="843" y="1348" type="qcurve"/>
      <point x="835" y="1348" type="line"/>
      <point x="831" y="1348"/>
      <point x="827" y="1350" type="qcurve"/>
      <point x="788" y="1361"/>
      <point x="692" y="1382"/>
      <point x="653" y="1382" type="qcurve"/>
      <point x="616" y="1382"/>
      <point x="537" y="1369"/>
      <point x="471" y="1336"/>
      <point x="428" y="1278"/>
      <point x="428" y="1234" type="qcurve"/>
      <point x="428" y="1196"/>
      <point x="472" y="1140"/>
      <point x="543" y="1095"/>
      <point x="634" y="1058"/>
      <point x="729" y="1020"/>
      <point x="820" y="976"/>
      <point x="891" y="919"/>
      <point x="935" y="844"/>
      <point x="935" y="794" type="qcurve"/>
      <point x="935" y="748"/>
      <point x="897" y="670"/>
      <point x="835" y="606"/>
      <point x="758" y="556"/>
      <point x="718" y="539" type="qcurve"/>
      <point x="763" y="521"/>
      <point x="843" y="475"/>
      <point x="903" y="414"/>
      <point x="937" y="334"/>
      <point x="937" y="282" type="qcurve"/>
      <point x="937" y="201"/>
      <point x="870" y="83"/>
      <point x="759" y="5"/>
      <point x="614" y="-32"/>
      <point x="536" y="-32" type="qcurve"/>
      <point x="464" y="-32"/>
      <point x="318" y="-10"/>
      <point x="252" y="13" type="qcurve"/>
      <point x="229" y="21"/>
      <point x="208" y="53"/>
      <point x="208" y="70" type="qcurve"/>
      <point x="208" y="94"/>
      <point x="241" y="135"/>
      <point x="269" y="135" type="qcurve"/>
      <point x="279" y="135"/>
      <point x="294" y="130" type="qcurve"/>
      <point x="336" y="114"/>
      <point x="440" y="97"/>
      <point x="510" y="97" type="qcurve"/>
      <point x="554" y="97"/>
      <point x="644" y="117"/>
      <point x="716" y="161"/>
      <point x="761" y="232"/>
      <point x="761" y="284" type="qcurve"/>
      <point x="761" y="324"/>
      <point x="715" y="378"/>
      <point x="639" y="419"/>
      <point x="542" y="451"/>
      <point x="440" y="486"/>
      <point x="343" y="528"/>
      <point x="267" y="589"/>
      <point x="221" y="673"/>
      <point x="221" y="732" type="qcurve"/>
      <point x="221" y="777"/>
      <point x="260" y="854"/>
      <point x="323" y="918"/>
      <point x="402" y="967"/>
      <point x="442" y="983" type="qcurve"/>
      <point x="403" y="1007"/>
      <point x="333" y="1053"/>
      <point x="281" y="1109"/>
      <point x="251" y="1180"/>
      <point x="251" y="1229" type="qcurve"/>
      <point x="251" y="1306"/>
      <point x="313" y="1413"/>
      <point x="417" y="1480"/>
      <point x="553" y="1510"/>
      <point x="627" y="1510" type="qcurve"/>
      <point x="686" y="1510"/>
      <point x="803" y="1487"/>
    </contour>
    <contour>
      <point x="547" y="938" type="qcurve"/>
      <point x="517" y="919"/>
      <point x="458" y="884"/>
      <point x="411" y="842"/>
      <point x="382" y="788"/>
      <point x="382" y="751" type="qcurve"/>
      <point x="382" y="716"/>
      <point x="425" y="663"/>
      <point x="488" y="624"/>
      <point x="559" y="595"/>
      <point x="588" y="583" type="qcurve"/>
      <point x="618" y="600"/>
      <point x="684" y="634"/>
      <point x="739" y="677"/>
      <point x="775" y="731"/>
      <point x="775" y="768" type="qcurve"/>
      <point x="775" y="806"/>
      <point x="727" y="857"/>
      <point x="657" y="893"/>
      <point x="578" y="922"/>
    </contour>
  </outline>
</glyph>
<glyph name="dieresis" format="1">
  <advance width="569"/>
  <unicode hex="00A8"/>
  <outline>
    <contour>
      <point x="96" y="1208" type="curve" smooth="yes"/>
      <point x="163" y="1208"/>
      <point x="200" y="1255"/>
      <point x="200" y="1303" type="curve" smooth="yes"/>
      <point x="200" y="1350"/>
      <point x="163" y="1396"/>
      <point x="96" y="1396" type="curve" smooth="yes"/>
      <point x="30" y="1396"/>
      <point x="-7" y="1350"/>
      <point x="-7" y="1303" type="curve" smooth="yes"/>
      <point x="-7" y="1255"/>
      <point x="30" y="1208"/>
    </contour>
    <contour>
      <point x="474" y="1208" type="curve" smooth="yes"/>
      <point x="540" y="1208"/>
      <point x="577" y="1255"/>
      <point x="577" y="1303" type="curve" smooth="yes"/>
      <point x="577" y="1350"/>
      <point x="540" y="1396"/>
      <point x="474" y="1396" type="curve" smooth="yes"/>
      <point x="407" y="1396"/>
      <point x="370" y="1350"/>
      <point x="370" y="1303" type="curve" smooth="yes"/>
      <point x="370" y="1255"/>
      <point x="407" y="1208"/>
    </contour>
  </outline>
</glyph>
<glyph name="copyright" format="1">
  <advance width="1656"/>
  <unicode hex="00A9"/>
  <outline>
    <contour>
      <point x="848" y="399" type="curve" smooth="yes"/>
      <point x="927" y="399"/>
      <point x="1104" y="436"/>
      <point x="1104" y="508" type="curve" smooth="yes"/>
      <point x="1104" y="532"/>
      <point x="1086" y="552"/>
      <point x="1063" y="552" type="curve" smooth="yes"/>
      <point x="1054" y="552"/>
      <point x="1048" y="550"/>
      <point x="1043" y="547" type="curve" smooth="yes"/>
      <point x="984" y="515"/>
      <point x="927" y="497"/>
      <point x="867" y="497" type="curve" smooth="yes"/>
      <point x="716" y="497"/>
      <point x="582" y="603"/>
      <point x="582" y="798" type="curve" smooth="yes"/>
      <point x="582" y="998"/>
      <point x="708" y="1087"/>
      <point x="857" y="1087" type="curve" smooth="yes"/>
      <point x="921" y="1087"/>
      <point x="991" y="1070"/>
      <point x="1052" y="1037" type="curve"/>
      <point x="1060" y="1034"/>
      <point x="1066" y="1032"/>
      <point x="1071" y="1032" type="curve" smooth="yes"/>
      <point x="1098" y="1032"/>
      <point x="1116" y="1058"/>
      <point x="1116" y="1083" type="curve" smooth="yes"/>
      <point x="1116" y="1151"/>
      <point x="919" y="1186"/>
      <point x="845" y="1186" type="curve" smooth="yes"/>
      <point x="641" y="1186"/>
      <point x="460" y="1055"/>
      <point x="460" y="796" type="curve" smooth="yes"/>
      <point x="460" y="537"/>
      <point x="648" y="399"/>
    </contour>
    <contour>
      <point x="837" y="239" type="curve" smooth="yes"/>
      <point x="505" y="239"/>
      <point x="263" y="470"/>
      <point x="263" y="790" type="curve" smooth="yes"/>
      <point x="263" y="1108"/>
      <point x="505" y="1340"/>
      <point x="837" y="1340" type="curve" smooth="yes"/>
      <point x="1167" y="1340"/>
      <point x="1406" y="1108"/>
      <point x="1406" y="790" type="curve" smooth="yes"/>
      <point x="1406" y="470"/>
      <point x="1167" y="239"/>
    </contour>
    <contour>
      <point x="837" y="127" type="curve" smooth="yes"/>
      <point x="1217" y="127"/>
      <point x="1526" y="424"/>
      <point x="1526" y="790" type="curve" smooth="yes"/>
      <point x="1526" y="1155"/>
      <point x="1217" y="1453"/>
      <point x="837" y="1453" type="curve" smooth="yes"/>
      <point x="454" y="1453"/>
      <point x="144" y="1155"/>
      <point x="144" y="790" type="curve" smooth="yes"/>
      <point x="144" y="424"/>
      <point x="454" y="127"/>
    </contour>
  </outline>
</glyph>
<glyph name="ordfeminine" format="1">
  <advance width="1043"/>
  <unicode hex="00AA"/>
  <outline>
    <contour>
      <point x="656" y="1257" type="line" smooth="yes"/>
      <point x="656" y="1373"/>
      <point x="585" y="1412"/>
      <point x="479" y="1412" type="curve" smooth="yes"/>
      <point x="372" y="1412"/>
      <point x="318" y="1383"/>
      <point x="256" y="1345" type="curve"/>
      <point x="247" y="1338"/>
      <point x="237" y="1337"/>
      <point x="229" y="1337" type="curve" smooth="yes"/>
      <point x="202" y="1337"/>
      <point x="184" y="1358"/>
      <point x="184" y="1382" type="curve" smooth="yes"/>
      <point x="184" y="1393"/>
      <point x="190" y="1403"/>
      <point x="200" y="1413" type="curve" smooth="yes"/>
      <point x="264" y="1476"/>
      <point x="361" y="1510"/>
      <point x="482" y="1510" type="curve" smooth="yes"/>
      <point x="661" y="1510"/>
      <point x="773" y="1432"/>
      <point x="773" y="1249" type="curve" smooth="yes"/>
      <point x="772" y="776" type="line" smooth="yes"/>
      <point x="772" y="741"/>
      <point x="743" y="723"/>
      <point x="714" y="723" type="curve" smooth="yes"/>
      <point x="686" y="723"/>
      <point x="657" y="740"/>
      <point x="657" y="775" type="curve" smooth="yes"/>
      <point x="657" y="847" type="line"/>
      <point x="614" y="754"/>
      <point x="509" y="701"/>
      <point x="403" y="701" type="curve" smooth="yes"/>
      <point x="255" y="701"/>
      <point x="140" y="788"/>
      <point x="140" y="936" type="curve" smooth="yes"/>
      <point x="140" y="1125"/>
      <point x="313" y="1195"/>
      <point x="568" y="1195" type="curve" smooth="yes"/>
      <point x="595" y="1195"/>
      <point x="627" y="1194"/>
      <point x="656" y="1191" type="curve"/>
    </contour>
    <contour>
      <point x="656" y="1102" type="line"/>
      <point x="578" y="1102" type="line" smooth="yes"/>
      <point x="438" y="1102"/>
      <point x="263" y="1085"/>
      <point x="263" y="939" type="curve" smooth="yes"/>
      <point x="263" y="840"/>
      <point x="337" y="796"/>
      <point x="429" y="793" type="curve"/>
      <point x="552" y="796"/>
      <point x="648" y="873"/>
      <point x="656" y="1030" type="curve"/>
    </contour>
  </outline>
</glyph>
<glyph name="guillemotleft" format="1">
  <advance width="1158"/>
  <unicode hex="00AB"/>
  <outline>
    <contour>
      <point x="404" y="925" type="line"/>
      <point x="418" y="950"/>
      <point x="454" y="972"/>
      <point x="472" y="972" type="qcurve"/>
      <point x="495" y="972"/>
      <point x="528" y="941"/>
      <point x="528" y="918" type="qcurve"/>
      <point x="528" y="913"/>
      <point x="526" y="900"/>
      <point x="523" y="894" type="qcurve"/>
      <point x="358" y="544" type="line"/>
      <point x="523" y="193" type="line"/>
      <point x="528" y="182"/>
      <point x="528" y="168" type="qcurve"/>
      <point x="528" y="145"/>
      <point x="495" y="115"/>
      <point x="472" y="115" type="qcurve"/>
      <point x="454" y="115"/>
      <point x="418" y="136"/>
      <point x="404" y="162" type="qcurve"/>
      <point x="192" y="544" type="line"/>
    </contour>
    <contour>
      <point x="790" y="925" type="line"/>
      <point x="804" y="951"/>
      <point x="841" y="971"/>
      <point x="858" y="972" type="qcurve"/>
      <point x="881" y="972"/>
      <point x="915" y="941"/>
      <point x="915" y="918" type="qcurve"/>
      <point x="915" y="904"/>
      <point x="910" y="894" type="qcurve"/>
      <point x="745" y="544" type="line"/>
      <point x="910" y="193" type="line"/>
      <point x="915" y="182"/>
      <point x="915" y="169" type="qcurve"/>
      <point x="915" y="146"/>
      <point x="881" y="115"/>
      <point x="858" y="115" type="qcurve"/>
      <point x="841" y="115"/>
      <point x="804" y="136"/>
      <point x="790" y="162" type="qcurve"/>
      <point x="578" y="544" type="line"/>
    </contour>
  </outline>
</glyph>
<glyph name="logicalnot" format="1">
  <advance width="1340"/>
  <unicode hex="00AC"/>
  <outline>
    <contour>
      <point x="1183" y="296" type="line"/>
      <point x="1183" y="262"/>
      <point x="1139" y="229"/>
      <point x="1113" y="229" type="qcurve"/>
      <point x="1087" y="229"/>
      <point x="1044" y="262"/>
      <point x="1044" y="296" type="qcurve"/>
      <point x="1044" y="649" type="line"/>
      <point x="221" y="649" type="line"/>
      <point x="189" y="649"/>
      <point x="159" y="692"/>
      <point x="159" y="718" type="qcurve"/>
      <point x="159" y="744"/>
      <point x="189" y="787"/>
      <point x="221" y="787" type="qcurve"/>
      <point x="1112" y="787" type="line"/>
      <point x="1125" y="787"/>
      <point x="1151" y="775"/>
      <point x="1171" y="755"/>
      <point x="1183" y="730"/>
      <point x="1183" y="717" type="qcurve"/>
    </contour>
  </outline>
</glyph>
<glyph name="registered" format="1">
  <advance width="1657"/>
  <unicode hex="00AE"/>
  <outline>
    <contour>
      <point x="579" y="1066" type="line"/>
      <point x="579" y="1079"/>
      <point x="587" y="1105"/>
      <point x="605" y="1127"/>
      <point x="633" y="1141"/>
      <point x="653" y="1141" type="qcurve"/>
      <point x="909" y="1141" type="line"/>
      <point x="985" y="1141"/>
      <point x="1090" y="1115"/>
      <point x="1155" y="1064"/>
      <point x="1183" y="988"/>
      <point x="1183" y="937" type="qcurve"/>
      <point x="1183" y="881"/>
      <point x="1148" y="808"/>
      <point x="1086" y="761"/>
      <point x="1002" y="738"/>
      <point x="953" y="733" type="qcurve"/>
      <point x="1138" y="469" type="line"/>
      <point x="1146" y="457"/>
      <point x="1146" y="443" type="qcurve"/>
      <point x="1146" y="421"/>
      <point x="1109" y="391"/>
      <point x="1087" y="391" type="qcurve"/>
      <point x="1076" y="391"/>
      <point x="1055" y="402"/>
      <point x="1047" y="414" type="qcurve"/>
      <point x="841" y="732" type="line"/>
      <point x="693" y="732" type="line"/>
      <point x="693" y="444" type="line"/>
      <point x="693" y="418"/>
      <point x="657" y="391"/>
      <point x="635" y="391" type="qcurve"/>
      <point x="614" y="391"/>
      <point x="579" y="417"/>
      <point x="579" y="444" type="qcurve"/>
    </contour>
    <contour>
      <point x="693" y="1044" type="line"/>
      <point x="693" y="827" type="line"/>
      <point x="887" y="827" type="line"/>
      <point x="920" y="827"/>
      <point x="983" y="831"/>
      <point x="1032" y="853"/>
      <point x="1062" y="899"/>
      <point x="1062" y="941" type="qcurve"/>
      <point x="1062" y="974"/>
      <point x="1034" y="1015"/>
      <point x="986" y="1037"/>
      <point x="924" y="1044"/>
      <point x="890" y="1044" type="qcurve"/>
    </contour>
    <contour>
      <point x="834" y="93" type="qcurve"/>
      <point x="737" y="93"/>
      <point x="557" y="141"/>
      <point x="401" y="229"/>
      <point x="272" y="352"/>
      <point x="180" y="500"/>
      <point x="130" y="671"/>
      <point x="130" y="762" type="qcurve"/>
      <point x="130" y="854"/>
      <point x="180" y="1026"/>
      <point x="272" y="1176"/>
      <point x="401" y="1299"/>
      <point x="557" y="1387"/>
      <point x="737" y="1435"/>
      <point x="834" y="1435" type="qcurve"/>
      <point x="930" y="1435"/>
      <point x="1109" y="1387"/>
      <point x="1265" y="1299"/>
      <point x="1393" y="1176"/>
      <point x="1485" y="1026"/>
      <point x="1535" y="854"/>
      <point x="1535" y="762" type="qcurve"/>
      <point x="1535" y="670"/>
      <point x="1485" y="500"/>
      <point x="1393" y="352"/>
      <point x="1265" y="229"/>
      <point x="1109" y="141"/>
      <point x="930" y="93"/>
    </contour>
    <contour>
      <point x="254" y="762" type="qcurve"/>
      <point x="254" y="641"/>
      <point x="341" y="436"/>
      <point x="495" y="288"/>
      <point x="708" y="204"/>
      <point x="834" y="204" type="qcurve"/>
      <point x="959" y="204"/>
      <point x="1171" y="288"/>
      <point x="1325" y="436"/>
      <point x="1411" y="641"/>
      <point x="1411" y="762" type="qcurve"/>
      <point x="1411" y="883"/>
      <point x="1325" y="1087"/>
      <point x="1171" y="1235"/>
      <point x="959" y="1319"/>
      <point x="834" y="1319" type="qcurve"/>
      <point x="708" y="1319"/>
      <point x="495" y="1235"/>
      <point x="341" y="1087"/>
      <point x="254" y="883"/>
    </contour>
  </outline>
</glyph>
<glyph name="overscore" format="1">
  <advance width="569"/>
  <unicode hex="00AF"/>
  <outline>
    <contour>
      <point x="83" y="1312" type="line"/>
      <point x="49" y="1312"/>
      <point x="16" y="1353"/>
      <point x="16" y="1379" type="qcurve"/>
      <point x="16" y="1404"/>
      <point x="49" y="1446"/>
      <point x="83" y="1446" type="qcurve"/>
      <point x="492" y="1446" type="line"/>
      <point x="524" y="1446"/>
      <point x="556" y="1404"/>
      <point x="556" y="1379" type="qcurve"/>
      <point x="556" y="1353"/>
      <point x="524" y="1312"/>
      <point x="492" y="1312" type="qcurve"/>
    </contour>
  </outline>
</glyph>
<glyph name="degree" format="1">
  <advance width="819"/>
  <unicode hex="00B0"/>
  <outline>
    <contour>
      <point x="716" y="1108" type="qcurve"/>
      <point x="716" y="1047"/>
      <point x="667" y="940"/>
      <point x="584" y="860"/>
      <point x="473" y="814"/>
      <point x="410" y="814" type="qcurve"/>
      <point x="347" y="814"/>
      <point x="235" y="860"/>
      <point x="152" y="940"/>
      <point x="104" y="1047"/>
      <point x="104" y="1108" type="qcurve"/>
      <point x="104" y="1169"/>
      <point x="152" y="1276"/>
      <point x="234" y="1356"/>
      <point x="346" y="1403"/>
      <point x="410" y="1403" type="qcurve"/>
      <point x="473" y="1403"/>
      <point x="584" y="1356"/>
      <point x="667" y="1276"/>
      <point x="716" y="1169"/>
    </contour>
    <contour>
      <point x="205" y="1108" type="qcurve"/>
      <point x="205" y="1065"/>
      <point x="236" y="993"/>
      <point x="290" y="940"/>
      <point x="365" y="911"/>
      <point x="410" y="911" type="qcurve"/>
      <point x="453" y="911"/>
      <point x="528" y="940"/>
      <point x="584" y="993"/>
      <point x="615" y="1065"/>
      <point x="615" y="1108" type="qcurve"/>
      <point x="615" y="1150"/>
      <point x="583" y="1222"/>
      <point x="528" y="1276"/>
      <point x="452" y="1306"/>
      <point x="408" y="1306" type="qcurve"/>
      <point x="364" y="1306"/>
      <point x="289" y="1276"/>
      <point x="235" y="1222"/>
      <point x="205" y="1150"/>
    </contour>
  </outline>
</glyph>
<glyph name="plusminus" format="1">
  <advance width="1340"/>
  <unicode hex="00B1"/>
  <outline>
    <contour>
      <point x="739" y="277" type="line"/>
      <point x="739" y="245"/>
      <point x="694" y="212"/>
      <point x="668" y="212" type="qcurve"/>
      <point x="642" y="212"/>
      <point x="600" y="244"/>
      <point x="600" y="277" type="qcurve"/>
      <point x="600" y="532" type="line"/>
      <point x="227" y="532" type="line"/>
      <point x="194" y="532"/>
      <point x="160" y="574"/>
      <point x="160" y="600" type="qcurve"/>
      <point x="160" y="625"/>
      <point x="193" y="666"/>
      <point x="227" y="666" type="qcurve"/>
      <point x="600" y="666" type="line"/>
      <point x="600" y="924" type="line"/>
      <point x="600" y="956"/>
      <point x="644" y="990"/>
      <point x="670" y="990" type="qcurve"/>
      <point x="696" y="990"/>
      <point x="739" y="957"/>
      <point x="739" y="924" type="qcurve"/>
      <point x="739" y="666" type="line"/>
      <point x="1113" y="666" type="line"/>
      <point x="1147" y="666"/>
      <point x="1181" y="625"/>
      <point x="1181" y="599" type="qcurve"/>
      <point x="1181" y="574"/>
      <point x="1147" y="532"/>
      <point x="1113" y="532" type="qcurve"/>
      <point x="739" y="532" type="line"/>
    </contour>
    <contour>
      <point x="1113" y="134" type="line"/>
      <point x="1148" y="134"/>
      <point x="1182" y="93"/>
      <point x="1182" y="67" type="qcurve"/>
      <point x="1182" y="42"/>
      <point x="1147" y="0"/>
      <point x="1113" y="0" type="qcurve"/>
      <point x="227" y="0" type="line"/>
      <point x="193" y="0"/>
      <point x="159" y="42"/>
      <point x="159" y="67" type="qcurve"/>
      <point x="159" y="93"/>
      <point x="193" y="134"/>
      <point x="227" y="134" type="qcurve"/>
    </contour>
  </outline>
</glyph>
<glyph name="twosuperior" format="1">
  <advance width="745"/>
  <unicode hex="00B2"/>
  <outline>
    <contour>
      <point x="369" y="1318" type="qcurve"/>
      <point x="325" y="1318"/>
      <point x="241" y="1286"/>
      <point x="211" y="1269" type="qcurve"/>
      <point x="194" y="1259"/>
      <point x="178" y="1259" type="qcurve"/>
      <point x="161" y="1259"/>
      <point x="139" y="1280"/>
      <point x="139" y="1294" type="qcurve"/>
      <point x="139" y="1313"/>
      <point x="186" y="1353"/>
      <point x="258" y="1384"/>
      <point x="341" y="1404"/>
      <point x="377" y="1404" type="qcurve"/>
      <point x="427" y="1404"/>
      <point x="518" y="1379"/>
      <point x="587" y="1328"/>
      <point x="628" y="1253"/>
      <point x="628" y="1203" type="qcurve"/>
      <point x="628" y="1157"/>
      <point x="587" y="1058"/>
      <point x="520" y="958"/>
      <point x="433" y="858"/>
      <point x="340" y="766"/>
      <point x="249" y="685"/>
      <point x="211" y="652" type="qcurve"/>
      <point x="595" y="652" type="line"/>
      <point x="615" y="652"/>
      <point x="637" y="625"/>
      <point x="637" y="609" type="qcurve"/>
      <point x="637" y="593"/>
      <point x="616" y="567"/>
      <point x="595" y="567" type="qcurve"/>
      <point x="163" y="567" type="line"/>
      <point x="125" y="567"/>
      <point x="90" y="597"/>
      <point x="90" y="620" type="qcurve"/>
      <point x="90" y="657"/>
      <point x="130" y="694" type="qcurve"/>
      <point x="160" y="721"/>
      <point x="241" y="797"/>
      <point x="328" y="885"/>
      <point x="413" y="980"/>
      <point x="480" y="1074"/>
      <point x="521" y="1160"/>
      <point x="521" y="1195" type="qcurve"/>
      <point x="521" y="1225"/>
      <point x="495" y="1271"/>
      <point x="453" y="1302"/>
      <point x="398" y="1318"/>
    </contour>
  </outline>
</glyph>
<glyph name="threesuperior" format="1">
  <advance width="789"/>
  <unicode hex="00B3"/>
  <outline>
    <contour>
      <point x="368" y="1018" type="line"/>
      <point x="404" y="1019"/>
      <point x="472" y="1037"/>
      <point x="524" y="1074"/>
      <point x="555" y="1131"/>
      <point x="555" y="1170" type="qcurve"/>
      <point x="555" y="1204"/>
      <point x="528" y="1258"/>
      <point x="483" y="1294"/>
      <point x="423" y="1313"/>
      <point x="390" y="1313" type="qcurve"/>
      <point x="358" y="1313"/>
      <point x="296" y="1300"/>
      <point x="243" y="1285"/>
      <point x="205" y="1273"/>
      <point x="198" y="1273" type="qcurve"/>
      <point x="179" y="1273"/>
      <point x="156" y="1300"/>
      <point x="156" y="1316" type="qcurve"/>
      <point x="156" y="1336"/>
      <point x="204" y="1367"/>
      <point x="274" y="1388"/>
      <point x="352" y="1399"/>
      <point x="383" y="1399" type="qcurve"/>
      <point x="435" y="1399"/>
      <point x="532" y="1372"/>
      <point x="608" y="1316"/>
      <point x="654" y="1230"/>
      <point x="654" y="1171" type="qcurve"/>
      <point x="654" y="1132"/>
      <point x="629" y="1069"/>
      <point x="586" y="1021"/>
      <point x="527" y="989"/>
      <point x="493" y="981" type="qcurve"/>
      <point x="493" y="980" type="line"/>
      <point x="532" y="971"/>
      <point x="596" y="933"/>
      <point x="643" y="877"/>
      <point x="669" y="806"/>
      <point x="669" y="764" type="qcurve"/>
      <point x="669" y="705"/>
      <point x="624" y="619"/>
      <point x="548" y="562"/>
      <point x="448" y="535"/>
      <point x="394" y="535" type="qcurve"/>
      <point x="365" y="535"/>
      <point x="286" y="548"/>
      <point x="215" y="570"/>
      <point x="166" y="602"/>
      <point x="166" y="622" type="qcurve"/>
      <point x="166" y="637"/>
      <point x="190" y="662"/>
      <point x="209" y="662" type="qcurve"/>
      <point x="219" y="662"/>
      <point x="224" y="660" type="qcurve"/>
      <point x="252" y="646"/>
      <point x="345" y="620"/>
      <point x="397" y="620" type="qcurve"/>
      <point x="476" y="620"/>
      <point x="569" y="693"/>
      <point x="569" y="764" type="qcurve"/>
      <point x="569" y="805"/>
      <point x="537" y="869"/>
      <point x="484" y="913"/>
      <point x="415" y="936"/>
      <point x="377" y="936" type="qcurve"/>
      <point x="332" y="936" type="line"/>
      <point x="312" y="936"/>
      <point x="292" y="961"/>
      <point x="292" y="976" type="qcurve"/>
      <point x="292" y="992"/>
      <point x="312" y="1016"/>
      <point x="332" y="1017" type="qcurve"/>
    </contour>
  </outline>
</glyph>
<glyph name="acute" format="1">
  <advance width="569"/>
  <unicode hex="00B4"/>
  <outline>
    <contour>
      <point x="161" y="1120" type="line"/>
      <point x="140" y="1103"/>
      <point x="120" y="1103" type="qcurve"/>
      <point x="103" y="1103"/>
      <point x="83" y="1125"/>
      <point x="83" y="1141" type="qcurve"/>
      <point x="83" y="1148"/>
      <point x="88" y="1165"/>
      <point x="95" y="1173" type="qcurve"/>
      <point x="364" y="1474" type="line"/>
      <point x="387" y="1500"/>
      <point x="415" y="1499" type="qcurve"/>
      <point x="432" y="1499"/>
      <point x="464" y="1484"/>
      <point x="490" y="1459"/>
      <point x="505" y="1428"/>
      <point x="505" y="1412" type="qcurve"/>
      <point x="505" y="1400"/>
      <point x="495" y="1376"/>
      <point x="483" y="1367" type="qcurve"/>
    </contour>
  </outline>
</glyph>
<glyph name="mu" format="1">
  <advance width="1158"/>
  <unicode hex="00B5"/>
  <outline>
    <contour>
      <point x="155" y="915" type="line"/>
      <point x="155" y="953"/>
      <point x="205" y="990"/>
      <point x="235" y="990" type="qcurve"/>
      <point x="265" y="990"/>
      <point x="315" y="953"/>
      <point x="315" y="915" type="qcurve"/>
      <point x="315" y="345" type="line"/>
      <point x="315" y="280"/>
      <point x="353" y="184"/>
      <point x="417" y="121"/>
      <point x="499" y="91"/>
      <point x="544" y="91" type="qcurve"/>
      <point x="602" y="91"/>
      <point x="707" y="127"/>
      <point x="787" y="201"/>
      <point x="838" y="310"/>
      <point x="843" y="384" type="qcurve"/>
      <point x="843" y="916" type="line"/>
      <point x="843" y="953"/>
      <point x="894" y="991"/>
      <point x="924" y="991" type="qcurve"/>
      <point x="954" y="991"/>
      <point x="1003" y="954"/>
      <point x="1003" y="916" type="qcurve"/>
      <point x="1003" y="75" type="line"/>
      <point x="1003" y="38"/>
      <point x="952" y="0"/>
      <point x="922" y="0" type="qcurve"/>
      <point x="892" y="0"/>
      <point x="843" y="37"/>
      <point x="843" y="74" type="qcurve"/>
      <point x="843" y="164" type="line"/>
      <point x="822" y="120"/>
      <point x="753" y="53"/>
      <point x="667" y="7"/>
      <point x="568" y="-17"/>
      <point x="519" y="-17" type="qcurve"/>
      <point x="462" y="-17"/>
      <point x="358" y="11"/>
      <point x="315" y="43" type="qcurve"/>
      <point x="315" y="-173" type="line"/>
      <point x="315" y="-213"/>
      <point x="263" y="-253"/>
      <point x="233" y="-253" type="qcurve"/>
      <point x="203" y="-253"/>
      <point x="155" y="-215"/>
      <point x="155" y="-173" type="qcurve"/>
    </contour>
  </outline>
</glyph>
